<svg xmlns="http://www.w3.org/2000/svg" xml:space="preserve" id="Layer_20" x="0" y="0" style="enable-background:new 0 0 1998.4 2437.8" version="1.1" viewBox="0 0 1998.4 2437.8"><style>.st1{fill:#fff}</style><path d="M615.7 1170.8c-3.2 0-6-.2-8.8 0-2.4.2-4.8-.2-7-1.2-3.3-1.7-7-2.3-10.7-1.8-4 .4-7.8-.7-11.5-1.3-2.3-.4-4.5-1-6.7-1.8-2.2-.6-4.4-1.4-6.5-2.3-1.7-.9-2.8-.5-4.5-.1-3.2.7-5.8 2.5-8.2 4.4-3.7 2.9-12.1 4.3-15.4 4-.3 0-.6-.1-.9-.2-3.3-1.3-6.8-2.3-9.9-3.9-6.5-3.6-12.9-7.4-19.3-11.3-2.4-1.4-4.7-3.1-7.1-4.6-4-2.5-7.8-5.2-12-7.3-5-2.5-9.2-6.4-14.4-8.8-2.7-1.2-5-3.2-7.3-4.8H463c-2.9 1.1-1.2 3.5-2.4 5.1l-3-1.4c-1.5 2.3-2.7 4.6-2.4 7.2.2 1.8 1.5 3.3 3.3 3.6-.5 1.6-1 3.1-1.4 4.3-2.5.2-4.4.1-6.1-.9-.4-.2-1.2.1-1.7.1v3.8l9.8 5.2v4.3c-1.9 2-3.6 4.1-6.5 4.6l-16.8-6.7-3.6 3.2v3.2l4.1 2.7v5.2c3.9 2 8.6 1.5 11.7 4.6v2.7l-4.1 3.6 1.1 4.8c-1.3 1.2-2.7 2.5-3.9 3.6v6.6c1.7.9 3.8 1 5.4 1.7 1.9.8 4 .7 5.8 1.7s4.7.3 6.3 1.5c2 1.4 4.5-.6 5.9 1.6 2.3-.3 4.4.7 6.6 1 3.6.6 6.9 2.3 10.6 2.1 1.7 2 4.2.2 6.3 1.7 1.6 1.2 4.3.7 6.5 1.2 3.4.8 6.9 1.2 10.1 2.2 4.9 1.5 9.9 2.6 14.9 3.8 2.5.7 5 1.5 7.5 2.2v2.3l-2.2 2.3c.5 1.8.9 3.7 1.2 5.6.1 1.7.1 3.5 0 5.2l5.1 2.1c-.5.9-.9 1.9-1.1 2.9-.2 3.2-.2 6.3 0 9.5.4 3.3-1.1 6.3-1.1 9.6 0 11.8.2 23.7 0 35.5s1.1 23.4-1 35.1v45.5c0 15.2.1 30.3 0 45.5s.5 30-.8 45.1c-.8 8.9-.3 18-.1 27s-.1 17.7.7 26.6c1.2 12.2-.7 24.7 1.5 37.3 4.1-.6 8.3.9 12.2-1.2l1.8 4c2.7.5 4.7-.6 6.5-2.3s3.7-3.8 6-4.8c2.6-1.2 4-3.6 6.4-4.9 2.9-1.6 5.2-4.3 7.6-6.3v-4.5l-4.3-2.8-4.2.9c-.5-3.5-.9-6.6-1.2-9.2l-4.1-3.2c-.3-4.3 1-8 1.9-11.9.5-2.5.3-5 1-7.6s.3-5.3 1-8.1 0-5.7 1-8.6-.4-5.9.9-9.1c1.1-2.6.3-6 1.1-9 .9-3.7.8-7.7 1.1-11.6 0-.5-.1-1.2.2-1.4 1.5-1.2.6-2.8.8-4.2.4-1.3.7-2.7 1-4.1.4-4.3.7-8.7 1-13.1 0-.5-.2-1.1 0-1.5 2.1-3.4.3-7 .8-9.4-1.9-4.1-6-1.9-7.7-4.5-.1-2.8.5-6-.6-8.3-1.2-2.7 1-5.7-1.7-8l11.1-7.4v-4l-2.5-3.1-6.2.6c-.6-1.8-1-3.7-1.2-5.6-.2-6-.2-12 0-18s-.6-11.7.8-17.6c1-4.2.8-8.7 1.1-13.1 0-.3-.1-.7 0-1 2.2-3.7.6-7.8 1.8-11.8s.9-8.7 1.2-13c0-.5-.2-1.2 0-1.5 1.2-1.4.8-3 1-4.6.2-1.7.8-3.4.9-5.1.2-2.9-.5-5.9 1-8.6-.6-5.1 1.7-10 .9-15.3l-2.5-2.3c-2.2-.7-5.2 1.2-7.3-1.5V1237l4.6-5.4c2.4.4 5.3.2 7.6 1.4 3.6 1.9 7.5 2.8 11.1 4.7 6.2 3.2 13 4.7 19.2 8 2.9 1.5 6.3 2.4 9.4 3.7l9.9 3.9c4.3 1.8 8.5 3.7 12.8 5.4 6.4 2.6 12.8 5.3 19.3 7.7 3.7 1.4 7.4 3 11.2 4.5 7 2.7 14.3 4.8 21.3 7.8 2.5 1.1 5 2.6 7.7 3.2 5.3 1.2 9.9 4.5 15.4 5.1 2.7 2.4 6.3 2.5 9.4 3.9s6.8 2.1 10 3.6 6.7 1.7 9.3 4.2c.2.2.6.3.9.3 2.9 0 5.4 1.4 8 2.5.9.3 1.9.3 2.8.5.8.3 1.6.6 2.3 1l3.4-2 1.5 1.5c-.5 1.9.9 4.2-.9 5.9 1.5 2.4 2.1 5.2 1.8 8.1l1.7 1.6c1.6-.5 3.3-.8 5-1.1 5.2-.4 10.4-.7 15.6-1 .5 0 1.1.1 1.4-.2 1.6-1.6 3.5-.4 5.2-.8s3.4-.8 5.1-1c3.7-.4 7.5-.2 11-1.2 2-.5 4.1-.7 6.1-.9 2-.2 4-.8 6.1-.9 2.7-.2 5.4 0 8.1-.9 2.3-.7 5-.3 7.6-1 2.4-.7 5-.2 7.6-1s5.3-.3 8.1-1c2.5-.7 5.3-.5 8.1-1 4.1-.8 8.4-.8 12.6-1.1.3 0 .8.1 1 0 1.3-1.4 3-.8 4.6-1s3.4-.8 5.1-1c3.8-.4 7.7-.7 11.6-1 .3 0 .8.1 1 0 2-2 4.4-.6 6.6-1 2.2-.5 4.4-.9 6.6-1 3.6 0 7-1.8 10.6-1.1 1.3-1.4 3-.8 4.6-1s3.4-.8 5.1-.9c2.9 0 5.8-.3 8.6-.9 2.9-.7 6-.2 9.1-1 2.1-.5 4.3-.9 6.5-1.1 2.4-.2 4.7-.5 7.1-.9 5.5-1 11.1-1 16.7-2.1 2.5-.5 5-.1 7.6-.9 2.4-.8 5-.1 7.6-.9 2.3-.7 5-.6 7.5-1.1s5.4-.5 8.1-1c4.1-.7 8.4-.2 12.6-1s8.7-.8 13.1-1.1c.5 0 1.1 0 1.3-.3 1.3-1.4 2.8-.4 4.2-.7 1.5-.4 3-.8 4.6-1 5.9-.4 11.7-.7 17.6-1 .3 0 .8.1 1 0 1.9-1.5 4-.8 6.1-1s4-.8 6.1-1c3-.2 6 0 9.1-.9 2.9-.8 6-.2 9.1-1 2.9-.8 6.1-.7 9.1-.9 5.2-.4 10.3-1.9 15.6-1.2.7.1 1.6.3 2 0 1.9-1.5 4.1-.7 6.1-1 2.2-.3 4.4-.7 6.6-1 2.9-.4 6.2.1 8.5-1.2 2-1.2 4.4.4 5.9-1.5 5.5-.5 10.5-3.2 16.1-3.4 1.8-.1 3.7-.8 5.6-1s3.5-1.1 5.3-1.6c.4-.2.9-.2 1.4-.2 3.5 0 6.8-1.4 10.2-1.8s6.8-1.5 10.1-2.2c3.4-.8 6.8-1.3 10.2-1.7 5.9-.6 11.1-4.2 17.2-3.2.1 0 .2-.2.4-.3 3.8-1.4 7.9-1.9 11.9-2.7 2.5-.5 5.1-.7 7.5-1.2 4.3-.8 8.8-1.3 12.7-3 2.5-1.1 5-.5 7.4-1.3 2.9-1 6-1.7 9-2.3 5.4-1.2 10.9-1.3 16.2-3.1 4.5-1.4 9.3-1.5 13.8-3 1.5-.6 3-.9 4.6-1 4.4.2 8.2-2.5 12.6-2.2 1.9-2 4.5-.5 6.8-1.7 2.1-1.1 5-.8 7.5-1.2.8-.1 1.5-.4 2.2-.6l12-2.4c2.5-.5 5.2-.4 7.5-1.2 3.9-1.4 8-1.6 11.9-2.7 4.7-1.2 9.6-1.6 14.2-3.1 1.6-.5 3.3-.3 5.3-.5l1.1 1.1v8.7h4.8c-.7 1.2-1.2 2.3-1.9 3.7 0 11.6-.3 23.6.1 35.6s-1.4 24-1.1 36.1c.3 13.7.1 27.3.1 41s.2 27.3-.1 41 .7 27.1-.8 40.6c-.9 8.1-.2 16.3-.2 24.4l1.5 1.5h9l2.7 2.7v4.3c2.2-.1 4.4-.1 6.6 0 2.7.4 5.5-.4 7.6-2.2 2.3-2.2 5.5-3.2 8.7-2.9l4-3.5v-5.4c-1.3-1.1-2.8-2.1-4.3-2.9-3.7-1.5-4.7-4.3-4.6-8.3l2.9-1 3.7-3.2 1.3-5.2c-.2-.4-.9-1-.8-1.4.8-4.5-2.7-8.2-2.1-12.7-1.8-1.4-.1-3.7-1.2-5-1.2-1.6-.1-3.4-.9-4.6-1.2-1.7-.7-3.4-.9-5.2-.2-.6-.3-1.2-.6-1.8-1.3-4.4-2.7-8.8-2.4-13.5.2-3.5-.1-7 .1-10.5 0-3.2-.7-6.3-2.1-9.2l2.6-4 4 1.3c2.8-.6 4.5-2 5.3-5.2v-3.7l-4.2-3.4 3.4-2.7c-.4-4.2.1-7.9-.9-11.7-1-3.5.2-7.3-1-11.1-.9-2.7 0-5.7-.9-8.6-.8-2.6-.4-5.7-1-8.6-.7-3.6-.1-7.4-1-11.1-.7-2.7 0-5.7-1-8.6-.6-1.8 0-4-.2-5.9s-.8-4.1-.9-6.1c-.4-4.7-.7-9.4-1-14.1 0-.2.1-.4 0-.5-2.3-2.4-.4-5.5-1.6-8.3-1.1-2.5-.3-5.9-.4-8.8v-8.5c0-.3.1-.7.2-1l2.6-2.5c.5-2.1.9-4.2 1.2-6.4.2-2.3 0-4.6 0-7 .7-.5 1.3-1 2-1.3 2.5-1.5 5.5-1.3 8.2-1.9s5.2-1.8 8.1-1.1c5.8-2.8 12.2-1.6 18.3-2.8 2.4-.5 5-.9 7.4-1.6.6-.2 1.2-.6 1.8-.6 3 .3 5.7-.5 8.4-1.5-.5-4.1-.9-8.1-1.5-12.9l-4-4.8h-3.4c-.8-1.3-1.6-2.7-2.1-3.7.6-1.7 1-3 1.4-4.2 3.3-2.5 6.5-4.9 11.3-5.5l-2.2-2.5c-1.3 1.6-2.8.9-4.3.9l-1.6-2.8h-5.6l-2-2.7c-3.2-.9-5.7-1.8-8.3-2.3-4.7-.8-8.8 1.3-12.5 3.6-3.3 2.1-7.2 3.3-11.1 3.4-3.9.1-7.8 1.5-10.8 3.9-4.5 0-4.5 0-8.3 1.6-4.7 2-9.7 2.5-14.6 3.3-.9.2-2.3.3-2.8-.2-1.2-1.2-2.5-.5-3.7-.7-4.8-.8-9 2.2-13.7 2-.5 0-1 .8-1.6.9-5.8 1.7-11.8 2.3-17.8 3-2.5.3-5.4.9-7.4-.2-2.3-1.2-4.8.1-6.9-1.7-.8-.7-2.8 0-4.2.3-2.5.4-4.9 1.5-7.3 1.5-4.4 0-8.7-.6-13.1-.9-.2 0-.3-.1-.4-.2-1.2-1.5-2.8-.5-4.2-.8s-3-.7-4.6-1-2.7 0-4.2-.8c-1-.6-2.9.6-4.5.8-1 0-1.9-.1-2.8-.4-3.1-1-6.1-2.2-9.2-3.1-.9-.2-1.8-.2-2.7 0-4.6 1.1-9.1 2.7-13.9 2.6-.3 0-.6.1-.9.2l-1.7 1.7h-2.2c-1.2-2.3-2.2-4.3-3.3-6.5-3.7-.3-4.9-5.1-9-4.4-.5-1.1-1.1-2.1-1.8-3-1-.8-2.1-1.5-3.2-2.1-.1-1.3-.2-2.5-.2-3.5-2.6-1.1-5.5-1.6-8.4-1.3l-3.9 3.9h-5.2l-2.6-3h-6.3l-1.5-1.5v-9.3l-2.9-1.5c-.1 2.1-.2 3.7-.2 5.2h-1.7c-.4-2.7 0-6-1.4-8.2-1.6-2.8.6-6-1.4-7.9.2-1.5.4-2.6.5-3.8h-3.6c.6 4.2 1.6 8.1 1.7 12.2s1.8 8.2.1 11.9l-2.3 2.3c-7.8-2.9-14.8-8.2-22.9-11.6.7-4.8-.9-8.9-2.5-13l-3.2 1.3c-.4-3.7-4.3-6.7-.7-10.2h8.1c1.8-2.6 5.7-.9 7.5-3.7-.3-1.3-1.3-3.2-.8-3.8 1.3-1.7-.7-2.4-.5-3.9.7-5.6-.1-11.3-2.3-16.5l-5.8-5.8-2.7-6.2h-4.8l-.6 2c-1-.9-2-1.9-2.9-2.9-1.8-2.2-2.6-4.6-.8-7.3 1.4-2.2 2.7-4.5 4.2-7-1.4-2.2-3.1-4.3-4.1-6.8-1.1-2.8-2.7-5-5.3-5.9-11.6-1.7-22.5 1-33.9 4.2l-3.8 3.8c-.8 4-1.6 8-2.3 11.4.6 1.2 1.3 2.3 2 3.4 4.7 5.4 9.5 10.7 14.1 16.2 2.1 2.5 4.1 5.2 4.1 8.8v10.6c-6.5 2.2-13.2 1.8-19.1 3.3-1.5-1.9-3-3.3-3.8-5s-2.5-3.4-2.1-5.6c-2.1-1.4-.2-3.8-1.6-5.7l-4.3-2.2c0-1.7-.1-3.3-2.3-3.6-2.4.8-1.6 2.9-2 5.4l-2.8 2.5c-.4 4.7 1.1 9.7-2 14.2-.4.7-.1 1.9-.1 2.2-3.4 2.9-7.2 1.3-10.6 2.5s-7 .8-10.5 1.2c-.5 0-1.2-.2-1.4.1-1.8 2-4.3.4-6.5 1.3s-4.4.6-6.5.8c-3-3.8-2.4-7.9-2.5-12.3-1.5-1.5-2.9-3.8-4.9-4.7-2.8-1.3-5.5-2.9-8.6-4.5-1 1.5-1.7 3.6-3 4.2-1.9.9-3.1 2.4-4.4 3.7-2.1 2.1-2.4 4.5-1.6 7.4s2.2 5.7 1.4 8.9c-.6.5-1.3.8-2.1 1.1-2 .5-4 .8-6.1 1-2.1.1-4.1.4-6.1.9-2.6.7-5.3.2-8.1 1-2.5.7-5.4.7-8.1.9-4.7.5-9.3 1.9-14.1 1.2-.8-.1-1.8.6-2.7.7-1.4.2-2.9.2-3.6.2l-3-2.3c-.1-3.3-.9-6.1-1.2-9-.9-6.8-1.5-7.2.3-11.7.6-1.8.9-3.8.8-5.7l-7.8-2.6c-.5-2.6-2-4.8-4.3-6.1-1.8-1.1-3.2-1.9-2.9-3.9l-3.2-2c.3-1.1.6-2.2 1-3.3l-1.5-1.5c-.2-.9-.3-1.8-.4-2.5h-3.2c.2 1.5.2 2.9.5 4.2s.8 2.7 1.1 3.8l-3.4 2.6 1.5 2.5c-2.1 2.2-4 4.1-4.5 7.3-.3 2.3-2.1 4.1-4.3 4.6-.9.3-1.7.8-2.4 1.4.1.7.1 1.3 0 2-.2.6-.9 1-1.4 1.4-1.6-.8-6.7-1.8-8-.8-2.3 1.7-5 0-7.1 1.1-2.6 1.4-5.1.5-7.7.8-.2 0-.5-.3-.3-.2-.6-1.6-1.1-2.7-1.6-3.9-.8.5-1.3 1-1.9 1-4.4.4-8.7.7-13.1 1-.5 0-1.2-.2-1.5.1-1.8 1.9-4.1.6-6.1.9-2 .5-4 .8-6.1 1-2.8.2-5.6.8-8.2 2l-1.2.5v3.1c-1 .5-2.1 1.4-3 1.3-4-.6-7.7 1.3-11.6 1.1-3.2-.1-6.4.7-9.5 1.2-3.5.5-7.1 1-10.2 2.4l-2.6 1.7v19.4l3.5 2.3c-3.5 0-6.3.6-8.7-.2-1.6-.6-3.4-.9-5.1-.7-2.1.3-3.7-1.1-5.6-1.1-2.6.1-5.1-.2-7.6-.9-2.4-.7-5-.2-7.6-1s-5.7-.3-8.6-1-6 0-9.1-1c-1.8-.6-4.2.3-5.8-.5-1.9-1-3.5-.4-5.3-.6-1.9-.2-3.8-.5-5.6-.9-2.8-.7-5.7 0-8.6-.9-2.6-.8-5.7-.4-8.5-1-4.1-.9-8.4-.8-12.6-1.1-.3 0-.8.1-1 0-1.7-1.6-3.7-.7-5.6-1s-3.8-1-5.6-.9c-4.4.2-8.6-1.8-13.1-1.1-.3 0-.8.1-1 0-1.5-1.8-3.4-.7-5.1-1-1.9-.3-3.7-.8-5.6-1-4.4-.4-8.8-.3-13-1.2-3.2-.6-6.4-.9-9.6-.9-.7-.1-1.4-.4-1.9-.8l-4.1 1.3c-2.5 2.5-5.3 5.2-8.1 8.2-.5.8-.8 1.6-1 2.6 1.1 3.4 2 6.3 3 9.2 1.4 3.8 1.4 7.9 0 11.7-1.2 2.9-6.9 5.2-9.5 3.9l-.1-.1-2.1-4.4c-3.8 1.8-7.5 4-10.9 6.5h-4.1l-4.2-4.8c-1.7 0-4.1-.7-5.6.2-3.2 1.8-5.4.3-8.5-1.2-2.4.3-5.4.9-8.4 1-5 .2-10 0-15.1 0l-3.4-3.3zm609.1 359c.1-.9.1-1.8.2-2.4l-2.6-1.9 3.6-2.9v-7.4l-.8.7c-.2-.8-.5-1.7-.7-2.5l-3 1.8-1.7-1.8c1.6-3.7 3-6.9 2-10.6-4.5.8-3.2-3.5-4.8-5l1.9-3.2 6 1 4.7-3.4c-1.3-2-2.3-3.7-3.6-5.6 1.8-3.2 1-6.8 1.1-8.8l-2.6-4.4c-3 1.5-6.3 1.4-8.1 3.7v4.6l1.7.4v4.4c-.5.5-.9.9-1.5 1.6h-4.4c.6 3.6-2 5.3-4 7.4v4c-2.8 2.6-4.9 5.8-6.3 9.4 1.3 1.5 3 2.6 3.2 4 .4 3.2 2.6 5 4.8 7.3h3.7l-3.9 3.9 3.8 6 11.3-.3zm-430.6-11.9c-.8 1.3-1.5 2.6-2.3 3.9.7 1.4 1.9 2.5.6 4.1-.4.6-.8 1.8-.5 2.2 2.6 3.5.1 6.7-1.3 9.1-1.7 2.9-2.8 5.6-2.8 8.8 0 .2-.3.5-.5.8h-3.3c-.5 1-1 2.1-1.5 3.2l.6.4-3.3 2.7c.1 1.1.1 1.9.2 3.2 3.4-.9 6.4-2 9.4-2.4 3.3-.4 6.6-.1 10.2-.1l1.6-5.8 3.9-1.8c-.4-.8-.8-1.4-1.3-2.3l4.9-2.3c-.5-2.5-2.8-2.9-4-4.6.2-3.2 3.9-5.3 2.9-9.2l-6.4-1.8-1.7.9-1.6-3.1 1.1-3.3c-1.3-1.3-2.1-3-4.9-2.6zm334.4-74.9.9-.8c.7-2.5 1.1-5.2 2.3-7.5 1.2-2.5 3.3-4.5 3.3-7.7h-8.7l-6.8 8.4c4.4.7 7.6 2.2 7.6 7-3.7.5-3.8 4.9-6.6 6.2-2-2.2-3.5.2-5.2.4-.1.5-.2 1-.4 1.4-.3.6-.7 1.1-1.1 1.7l1.9 1.9 11.3-1.4 5.8-5.8-4.3-3.8zm-8.8 55.9c-2.8-.4-5.3-.9-7.8-1.1s-5.2 0-7.8 0l-2.1 3.6c.8 3 1.5 5.7 2.2 8.6l8.6-1.5 1.7-1.7h3.2c.5-2.7 3-4.7 2-7.9zm-8.8-140.1c-5.1 2.8-5 8-7 12 .8 3.7 1.5 7.3 2.5 11 .3 1.2 1.4 2.2 2.5 3.9l1.9-3.6c-.4-3.5.4-6.9 2.4-9.8l-3.2-5c1-2.8.8-5.5.9-8.5zm-136.8 184c-3.2.8-2.7 4.9-5.9 5.2-.5 2.8-4 3.6-4.4 6.5 3 1.3 5-.8 7-1.6l4.7 1.7 5.2-1 .4-2.1 2-1.6c-1.4-2.1-2.9-3.5-4.8-3.3-1.1-2.1-1.9-3.9-4.2-3.8zm244.8 6c-3-1-4.8-3.8-7.9-2.8v6.7c4.6 3 9.7 1.9 14.3 2.1 2.5-1.8 1.3-4 1.5-5.4-2.8-2.1-5.4-2.1-7.9-.6zm-423.2-38 4.7-3.9c.9-2.8 1.5-4.9 2.3-7.3l-6.1-2.1c-1 1-1.8 2.1-2.7 3.3-.7 1.2-1.3 2.5-1.9 3.8.5 2 .9 3.6 1.2 5l2.5 1.2zm320.5 24.1c-3.2 3.2-5 6.9-4.2 11.7 3.1.5 6.3-.3 8.9-2.2-.3-3.2.7-6.6-1.4-9.6h-3.3zm-5.4-238.4c1.5.8 3 1.6 4.6 2.2 2.3.7 4.2-.9 6.3-1.3l2.1-2.1v-3.1l-3.1-2.6-4.7 4.4-2.6-1.4-2.6 3.9zm-326.4 191.3c2.4-2.4 5.2-4.6 4.4-8.6l-1.2-1.2h-3.8c-1.2 2.8-2.5 5.6-3.7 8.4l1.4 1.4h2.9zm9.6 6.2-4.4-2.4c-3.4 4.6-3.8 5.8-.5 9.2 2.8-1.3 3.1-4.4 4.9-6.8zm328.4-15.4c1.4 0 2.7 2.6 4.8.4-.8-2.3-1.7-4.8-2.7-7.6l-5.2 2.1 3.1 5.1zm-324.4 37.3 4.1 1.1 1.8-1.8-3.5-4.5-2.5.2v5z" style="fill:none;stroke:#fff;stroke-miterlimit:10"/><path d="m615.7 1170.8 2.8 3c5.1 0 10.1.1 15.1 0 3-.1 6-.7 8.4-1 3.1 1.6 5.3 3.1 8.5 1.2 1.5-.9 3.9-.2 5.6-.2l4.2 4.8h4.1c3.4-2.5 7.1-4.6 10.9-6.5l2.1 4.4c-.1-.1 0 .1.1.1 2.6 1.3 8.4-1 9.5-3.9 1.4-3.8 1.4-7.9 0-11.7-1-2.9-1.9-5.9-3-9.2.2-.9.5-1.8 1-2.6 2.7-2.9 5.6-5.7 8.1-8.2l4.1-1.3c.6.4 1.2.7 1.9.8 3.2 0 6.4.4 9.6.9 4.2.9 8.7.8 13 1.2 1.9.2 3.7.7 5.6 1 1.7.3 3.7-.8 5.1 1 .1.2.7.1 1 0 4.5-.8 8.7 1.3 13.1 1.1 1.8-.1 3.7.7 5.6.9s3.9-.6 5.6 1c.2.2.7 0 1 0 4.2.3 8.5.3 12.6 1.1 2.9.6 5.9.2 8.5 1 3 1 5.8.3 8.6.9 1.8.5 3.7.8 5.6.9 1.7.2 3.4-.4 5.3.6 1.6.8 4-.1 5.8.5 3 1 6.2.3 9.1 1s5.9.2 8.6 1 5.2.2 7.6 1c2.5.7 5.1 1 7.6.9 1.9 0 3.5 1.4 5.6 1.1 1.7-.2 3.5.1 5.1.7 2.4.8 5.2.2 8.7.2l-3.5-2.3v-19.4l2.6-1.7c3.1-1.4 6.7-1.8 10.2-2.4 3.1-.5 6.3-1.3 9.5-1.2 3.9.2 7.6-1.7 11.6-1.1.9.1 1.9-.8 3-1.3v-3.1l1.2-.5c2.6-1.2 5.3-1.8 8.2-2 2.1-.2 4.1-.5 6.1-1 2-.4 4.3 1 6.1-.9.2-.3 1 0 1.5-.1 4.4-.3 8.7-.6 13.1-1 .5 0 1-.6 1.9-1 .5 1.2 1 2.3 1.6 3.9-.2-.1 0 .2.3.2 2.5-.3 5.1.6 7.7-.8 2-1.1 4.7.6 7.1-1.1 1.3-.9 6.4.1 8 .8.5-.5 1.1-.9 1.4-1.4.1-.7.2-1.3 0-2 .7-.6 1.5-1.1 2.4-1.4 2.3-.5 4-2.3 4.3-4.6.5-3.2 2.4-5.1 4.5-7.3l-1.5-2.5 3.4-2.6c-.3-1.1-.8-2.4-1.1-3.8s-.4-2.7-.5-4.2h3.2c.1.7.3 1.6.4 2.5l1.5 1.5c-.3 1.2-.6 2.2-1 3.3l3.2 2c-.3 2 1.2 2.8 2.9 3.9 2.3 1.3 3.8 3.5 4.3 6.1l7.9 2.7c.1 2-.2 4-.8 5.8-1.7 4.4-1.1 4.9-.3 11.7.3 2.8 1.2 5.7 1.2 9l3 2.3c.7 0 2.2 0 3.6-.2.9-.1 1.8-.8 2.7-.7 4.8.6 9.4-.8 14.1-1.2 2.7-.3 5.5-.2 8.1-.9 2.7-.8 5.5-.3 8.1-1 2-.5 4.1-.8 6.1-.9 2-.2 4.1-.5 6.1-1 .7-.3 1.4-.6 2.1-1.1.8-3.2-.6-6-1.4-8.9s-.4-5.4 1.6-7.4c1.3-1.3 2.5-2.9 4.4-3.7 1.3-.6 2-2.7 3-4.2 3.1 1.6 5.8 3.2 8.6 4.5 2 .9 3.4 3.2 4.9 4.7.1 4.4-.5 8.6 2.5 12.3 2.1-.2 4.5 0 6.5-.8s4.7.8 6.5-1.3c.2-.2 1-.1 1.4-.1 3.5-.3 7.3 0 10.5-1.2s7.1.3 10.6-2.5c0-.3-.4-1.6.1-2.2 3-4.4 1.6-9.4 2-14.2l2.8-2.5c.4-2.5-.4-4.6 2-5.4 2.2.3 2.3 1.9 2.3 3.6l4.3 2.2c1.4 1.9-.5 4.4 1.6 5.7-.4 2.3 1.2 3.9 2.1 5.6s2.3 3 3.8 5c5.9-1.4 12.7-1.1 19.1-3.3V1112c0-3.6-2-6.3-4.1-8.8-4.6-5.5-9.4-10.8-14.1-16.2-.7-1.1-1.4-2.2-2-3.4.7-3.4 1.5-7.5 2.3-11.4l3.8-3.8c11.4-3.2 22.3-5.9 33.9-4.2 2.6.9 4.2 3 5.3 5.9 1 2.4 2.7 4.5 4.1 6.8-1.4 2.4-2.7 4.7-4.2 7-1.8 2.7-1 5.1.8 7.3.9 1 1.9 2 2.9 2.9l.6-2h4.8l2.7 6.2 5.8 5.8c2.2 5.2 3 10.9 2.3 16.5-.2 1.5 1.8 2.2.5 3.9-.5.7.5 2.6.8 3.8-1.8 2.8-5.7 1.1-7.5 3.7h-8.1c-3.6 3.6.4 6.6.7 10.2l3.2-1.3c1.6 4.1 3.2 8.2 2.5 13 8.1 3.4 15.1 8.7 22.9 11.6l2.3-2.3c1.8-3.7 0-7.7-.1-11.9s-1.1-8.1-1.7-12.2h3.5c-.2 1.1-.3 2.3-.5 3.8 2 1.9-.3 5.1 1.4 7.9 1.3 2.2 1 5.5 1.4 8.2h1.7c.1-1.6.2-3.1.2-5.2l2.9 1.5v9.3l1.5 1.5h6.3l2.6 3h5.2l3.9-3.9c2.9-.3 5.8.1 8.4 1.3.1.9.2 2.2.2 3.5 1.1.6 2.2 1.3 3.2 2.1.7.9 1.3 1.9 1.8 3 4.1-.7 5.3 4.2 9 4.4 1.1 2.2 2.2 4.2 3.3 6.5h2.2l1.7-1.7c.3-.1.6-.1.9-.2 4.8.1 9.3-1.6 13.9-2.6.9-.2 1.8-.2 2.7 0 3.1 1 6.1 2.1 9.2 3.1.9.3 1.8.5 2.8.4 1.5-.2 3.5-1.4 4.5-.8 1.5.9 2.8.6 4.2.8s3.1.7 4.6 1 3-.7 4.2.8c.1.1.3.2.4.2 4.4.3 8.7.9 13.1.9 2.4 0 4.9-1 7.3-1.5 1.4-.3 3.5-.9 4.2-.3 2.1 1.8 4.6.4 6.9 1.7 1.9 1 4.9.5 7.4.2 6-.7 12-1.2 17.8-3 .6-.2 1.1-1 1.6-.9 4.7.2 8.9-2.8 13.7-2 1.2.2 2.5-.4 3.7.7.5.5 1.9.4 2.8.2 4.9-.8 9.9-1.4 14.6-3.3 3.8-1.6 3.8-1.6 8.3-1.6 3.1-2.4 6.9-3.8 10.8-3.9 4-.1 7.8-1.3 11.1-3.4 3.7-2.2 7.8-4.4 12.5-3.6 2.6.5 5.1 1.4 8.3 2.3l2 2.7h5.6l1.6 2.8c1.6 0 3 .7 4.3-.9l2.2 2.5c-4.7.6-8 3-11.3 5.5-.4 1.2-.8 2.5-1.4 4.2.6 1 1.3 2.3 2.1 3.7h3.4l4 4.8c.5 4.8 1 8.8 1.5 12.9-2.8.9-5.4 1.8-8.4 1.5-.6-.1-1.2.4-1.8.6-2.4.7-4.9 1.1-7.4 1.6-6.1 1.3-12.5.1-18.3 2.8-2.8-.7-5.4.5-8.1 1.1s-5.7.4-8.2 1.9c-.7.4-1.3.9-2 1.3 0 2.4.2 4.7 0 7-.3 2.1-.7 4.3-1.2 6.4l-2.6 2.5c-.1.3-.2.7-.2 1v8.5c0 3-.7 6.3.4 8.8 1.2 2.8-.7 6 1.6 8.3.1.1 0 .3 0 .5.3 4.7.6 9.4 1 14.1.2 2 .8 4 .9 6.1s-.5 4.2.2 5.9c1 2.9.3 5.9 1 8.6 1 3.7.3 7.5 1 11.1.6 2.9.2 5.9 1 8.6 1 2.9.1 5.9.9 8.6 1.2 3.7.1 7.6 1 11.1 1 3.8.6 7.4.9 11.7l-3.4 2.7 4.2 3.4v3.7c-.8 3.1-2.5 4.6-5.3 5.2l-4-1.3-2.6 4c1.4 2.9 2.1 6 2.1 9.2-.2 3.5.1 7-.1 10.5-.3 4.7 1.2 9.1 2.4 13.5l.6 1.8c.2 1.7-.2 3.4.9 5.2.8 1.2-.3 3.1.9 4.6 1 1.3-.7 3.6 1.2 5-.5 4.4 2.9 8.2 2.1 12.7-.1.5.6 1.1.8 1.4l-1.3 5.2-3.7 3.2-2.9 1c-.1 4 .9 6.7 4.6 8.3 1.5.8 3 1.8 4.3 2.9v5.4l-4 3.5c-3.2-.3-6.3.7-8.7 2.9-2.1 1.7-4.9 2.5-7.6 2.2-2.2-.1-4.4-.1-6.6 0v-4.3l-2.7-2.7h-9l-1.5-1.5c0-8.1-.7-16.3.2-24.4 1.5-13.6.5-27.1.8-40.6s.1-27.3.1-41 .2-27.3-.1-41c-.2-12 1.5-24 1.1-36.1s-.1-24-.1-35.6c.7-1.4 1.3-2.4 1.9-3.7h-4.8v-8.5l-1.1-1.1c-2 .2-3.7 0-5.3.5-4.7 1.5-9.6 1.8-14.2 3.1-3.9 1-8 1.3-11.9 2.7-2.3.8-5 .8-7.5 1.2-4 .7-8 1.6-12 2.4-.8.2-1.5.5-2.2.6-2.5.4-5.4 0-7.5 1.2-2.3 1.2-4.9-.2-6.8 1.7-4.4-.4-8.2 2.3-12.6 2.2-1.6.1-3.1.4-4.6 1-4.5 1.5-9.3 1.6-13.8 3-5.3 1.7-10.9 1.9-16.2 3.1-3 .6-6.1 1.4-9 2.3-2.5.9-4.9.3-7.4 1.3-4 1.7-8.4 2.2-12.7 3-2.4.5-5 .7-7.5 1.2-4 .8-8.1 1.2-11.9 2.7-.2 0-.3.3-.4.3-6.1-1-11.4 2.7-17.2 3.2-3.4.4-6.8 1-10.2 1.7-3.4.7-6.7 1.8-10.1 2.2s-6.7 1.9-10.2 1.8c-.5 0-.9.1-1.4.2-1.8.6-3.5 1.5-5.3 1.6s-3.8.9-5.6 1c-5.6.2-10.7 2.8-16.1 3.4-1.5 1.9-3.9.3-5.9 1.5-2.3 1.3-5.6.9-8.5 1.2-2.2.3-4.4.7-6.6 1-2 .2-4.2-.5-6.1 1-.4.3-1.3.1-2 0-5.3-.7-10.4.8-15.6 1.2-3 .2-6.2.2-9.1.9-3.1.8-6.2.2-9.1 1-3.1.8-6.1.7-9.1.9-2 .2-4 .7-6.1 1s-4.2-.5-6.1 1c-.2.2-.7 0-1 0-5.9.3-11.7.6-17.6 1-1.5.2-3.1.6-4.6 1-1.4.3-3-.7-4.2.7-.3.3-.9.3-1.3.3-4.4.3-8.8.3-13.1 1.1s-8.5.4-12.6 1c-2.7.4-5.5.4-8.1 1s-5.2.3-7.5 1.1c-2.6.8-5.2.2-7.6.9-2.6.8-5.1.5-7.6.9-5.5 1-11.2 1.1-16.7 2.1-2.4.4-4.7.7-7.1.9-2.2.2-4.4.6-6.5 1.1-3.1.7-6.2.2-9.1 1-2.8.6-5.7.9-8.6.9-1.7.1-3.4.7-5.1.9s-3.3-.4-4.6 1c-3.6-.7-7 1.1-10.6 1.1-2.2.1-4.4.5-6.6 1-2.2.4-4.6-1-6.6 1-.2.2-.6 0-1 0-3.9.3-7.7.6-11.6 1-1.7.2-3.4.7-5.1 1s-3.3-.4-4.6 1c-.2.2-.6 0-1 0-4.2.3-8.5.3-12.6 1.1-2.7.6-5.5.3-8.1 1-2.7.7-5.5.3-8.1 1s-5.2.3-7.6 1c-2.6.7-5.2.3-7.6 1-2.8.9-5.4.7-8.1.9-2 .2-4 .7-6.1.9-2.1.1-4.1.4-6.1.9-3.5.9-7.3.8-11 1.2-1.7.2-3.4.6-5.1 1s-3.6-.8-5.2.8c-.3.3-.9.2-1.4.2-5.2.3-10.4.6-15.6 1-1.7.2-3.4.6-5 1.1l-1.7-1.6c.3-2.8-.4-5.7-1.8-8.1 1.9-1.7.4-4 .9-5.9l-1.5-1.5-3.4 2c-.8-.4-1.5-.7-2.3-1-.9-.3-1.9-.2-2.8-.5-2.6-1.1-5-2.5-8-2.5-.3 0-.6-.1-.9-.3-2.6-2.5-6.2-2.8-9.3-4.2s-6.8-2.1-10-3.6-6.7-1.5-9.4-3.9c-5.5-.6-10.1-3.9-15.4-5.1-2.7-.6-5.1-2.1-7.7-3.2-7-3-14.2-5-21.3-7.8-3.7-1.4-7.4-3-11.2-4.5-6.5-2.4-12.9-5.2-19.3-7.7-4.3-1.7-8.5-3.6-12.8-5.4-3.3-1.4-6.6-2.6-9.9-3.9-3.1-1.3-6.5-2.2-9.4-3.7-6.2-3.3-13-4.8-19.2-8-3.6-1.8-7.5-2.8-11.1-4.7-2.2-1.2-5.2-1-7.6-1.4l-4.4 5.2v32.4c2.1 2.7 5 .8 7.3 1.5l2.5 2.3c.8 5.3-1.5 10.2-.9 15.3-1.5 2.7-.8 5.7-1 8.6-.2 1.7-.7 3.4-.9 5.1-.2 1.6.2 3.2-1 4.6-.2.3 0 1 0 1.5-.3 4.4 0 8.9-1.2 13s.4 8.1-1.8 11.8c-.2.2 0 .7 0 1-.3 4.4-.1 8.9-1.1 13.1-1.5 5.9-.6 11.8-.8 17.6s-.2 12 0 18c.2 1.9.6 3.8 1.2 5.6l6.2-.6 2.5 3.1v4l-11.1 7.4c2.7 2.3.4 5.4 1.7 8 1.1 2.3.5 5.5.6 8.3 1.8 2.6 5.9.4 7.7 4.5-.5 2.4 1.3 6-.8 9.4-.2.4 0 1 0 1.5-.3 4.4-.6 8.7-1 13.1-.3 1.4-.6 2.7-1 4.1-.3 1.4.6 3-.8 4.2-.3.2-.1.9-.2 1.4-.3 3.9-.2 7.8-1.1 11.6-.7 3.1 0 6.4-1.1 9-1.3 3.2.1 6.3-.9 9.1s-.3 5.8-1 8.6-.3 5.5-1 8.1-.4 5.1-1 7.6c-.8 3.9-2.1 7.7-1.9 11.9l4.1 3.2c.3 2.5.8 5.7 1.2 9.2l4.2-.9 4.3 2.8v4.5c-2.4 2-4.7 4.7-7.6 6.3-2.5 1.3-3.8 3.8-6.4 4.9-2.3 1-4.1 3.1-6 4.8s-3.9 2.8-6.5 2.3l-1.8-4c-3.9 2.1-8.2.6-12.2 1.2-2.2-12.6-.3-25.1-1.5-37.3-.9-8.9-.5-17.8-.7-26.6s-.7-18.1.1-27c1.3-15 .6-30.1.8-45.1s0-30.3 0-45.5v-45.5c2-11.7.7-23.4 1-35.1s.1-23.7 0-35.5c0-3.2 1.5-6.2 1.1-9.6-.2-3.2-.2-6.3 0-9.5.2-1 .6-2 1.1-2.9l-5.2-2.1c.1-1.7.1-3.5 0-5.2-.3-1.8-.7-3.6-1.2-5.4l2.2-2.3v-2.3c-2.5-.7-5-1.5-7.5-2.2-5-1.3-10-2.4-14.9-3.8-3.3-1-6.8-1.3-10.1-2.2-2.1-.5-4.8 0-6.5-1.2-2.1-1.5-4.7.3-6.3-1.7-3.7.2-7-1.6-10.6-2.1-2.2-.4-4.3-1.4-6.6-1-1.4-2.2-3.9-.2-5.9-1.6-1.6-1.2-4.5-.5-6.3-1.5s-3.9-.8-5.8-1.7c-1.6-.7-3.6-.8-5.4-1.7v-6.6c1.1-1 2.6-2.3 3.9-3.6l-1.1-4.8 4.1-3.6v-2.7c-3.1-3.1-7.7-2.7-11.7-4.6v-5.2l-4.1-2.7v-3.2l3.6-3.2 16.8 6.7c2.9-.5 4.7-2.7 6.5-4.6v-4.3l-9.8-5.2v-3.8c.5 0 1.2-.4 1.7-.1 1.8 1 3.7 1.1 6.1.9.4-1.2.9-2.7 1.4-4.3-1.8-.4-3.1-1.8-3.3-3.6-.4-2.6.9-4.9 2.4-7.2l3 1.4c1.1-1.6-.5-4 2.4-5.1h2.5c2.3 1.6 4.6 3.6 7.3 4.8 5.2 2.3 9.3 6.2 14.4 8.8 4.2 2.1 8 4.8 12 7.3 2.4 1.5 4.7 3.2 7.1 4.6 6.4 3.8 12.8 7.7 19.3 11.3 3.1 1.7 6.6 2.7 9.9 3.9.3.1.6.2.9.2 3.3.3 11.7-1.1 15.4-4 2.4-1.9 4.9-3.7 8.2-4.4 1.7-.3 2.8-.8 4.5.1 2.1.9 4.3 1.7 6.5 2.3 2.2.8 4.4 1.4 6.7 1.8 3.8.6 7.6 1.7 11.5 1.3 3.7-.5 7.4.2 10.7 1.8 2.2 1 4.6 1.4 7 1.2 3.2-.5 6.1-.3 9.3-.3z" class="st1"/><path d="M1224.8 1529.8h-11.6l-3.8-6 3.9-3.9h-3.7c-2.2-2.2-4.3-4-4.8-7.3-.2-1.3-1.9-2.5-3.2-4 1.4-3.6 3.5-6.8 6.3-9.4v-4c1.9-2.1 4.6-3.8 4-7.4h4.4c.6-.6 1.1-1.1 1.5-1.6v-4.3l-1.7-.4v-4.6c1.8-2.3 5.1-2.2 8.1-3.7l2.6 4.4c-.1 2 .8 5.6-1.1 8.8 1.2 1.9 2.3 3.6 3.6 5.6l-4.7 3.4-6-1-1.9 3.2c1.7 1.5.3 5.8 4.8 5 1 3.7-.3 6.9-2 10.6l1.7 1.8 3-1.8c.2.8.5 1.7.7 2.5l.8-.7v7.4l-3.6 2.9 2.6 1.9c.3.8.2 1.7.1 2.6zM794.2 1517.9c2.8-.4 3.7 1.3 5 2.8l-1.1 3.3 1.6 3.1 1.7-.9 6.4 1.8c1 3.8-2.7 6-2.9 9.2 1.2 1.7 3.5 2.2 4 4.6l-4.9 2.3c.5.9.9 1.5 1.3 2.3l-3.9 1.8-1.6 5.8c-3.6 0-6.9-.3-10.2.1-3 .4-6 1.5-9.4 2.4-.1-1.3-.1-2-.2-3.2l3.3-2.7-.6-.4c.5-1.1 1-2.2 1.5-3.2h3.3c.2-.3.5-.5.5-.8 0-3.3 1.1-6 2.8-8.8 1.4-2.5 3.9-5.7 1.3-9.1-.3-.4 0-1.7.5-2.2 1.3-1.6.1-2.7-.6-4.1.6-1.5 1.4-2.8 2.2-4.1zM1128.6 1443l4 3.8-5.8 5.8-11.3 1.4-1.9-1.9c.4-.5.8-1.1 1.1-1.7.2-.5.3-.9.4-1.4 1.7-.1 3.2-2.6 5.2-.4 2.9-1.4 2.9-5.7 6.6-6.2.1-4.8-3.1-6.4-7.6-7l6.8-8.4h8.7c0 3.2-2 5.3-3.3 7.7-1.2 2.3-1.6 5-2.3 7.5l-.6.8zM1119.8 1498.9c1 3.2-1.4 5.2-2.1 7.9h-3.2l-1.7 1.7-8.6 1.5c-.7-2.8-1.4-5.5-2.2-8.6l2.1-3.6c2.5 0 5.1-.1 7.8 0s5.1.7 7.9 1.1zM1111 1358.8c-.1 3 .1 5.7-1 8.4l3.2 5c-1.9 2.9-2.8 6.4-2.4 9.8l-1.9 3.6c-1.1-1.7-2.2-2.7-2.5-3.9-1-3.6-1.7-7.3-2.5-11 2.1-4 2.1-9.1 7.1-11.9zM974.2 1542.8c2.3 0 3.1 1.7 4.2 3.8 1.9-.3 3.4 1.1 4.8 3.3l-2 1.6-.4 2.1-5.2 1-4.7-1.7c-2 .7-4 2.8-7 1.6.4-2.9 3.9-3.7 4.4-6.5 3.2-.3 2.7-4.4 5.9-5.2zM1219.1 1548.8c2.5-1.5 5-1.4 7.8.6-.1 1.4 1 3.6-1.5 5.4-4.6-.2-9.6.9-14.3-2.1v-6.7c3.1-1 5 1.8 8 2.8zM795.8 1510.8l-2.4-1.3c-.3-1.4-.8-3-1.2-5 .6-1.3 1.2-2.5 1.9-3.8.8-1.1 1.7-2.2 2.7-3.3l6.1 2.1c-.8 2.4-1.4 4.5-2.3 7.3l-4.8 4zM1116.4 1534.9h3.2c2.1 3 1.1 6.3 1.4 9.6-2.5 1.9-5.7 2.7-8.9 2.2-.8-4.9 1-8.6 4.3-11.8zM1110.9 1296.6l2.7-4 2.6 1.4 4.7-4.4 3.1 2.6v3.1l-2.1 2.1c-2.1.4-4.1 2-6.3 1.3-1.7-.5-3.2-1.3-4.7-2.1zM784.5 1487.8h-3l-1.4-1.4c1.2-2.8 2.5-5.6 3.7-8.4h3.8l1.2 1.2c.9 4-1.9 6.2-4.3 8.6zM794.1 1494c-1.8 2.4-2.1 5.5-4.9 6.8-3.3-3.4-2.8-4.7.5-9.2l4.4 2.4zM1122.5 1478.6l-3.1-5.1 5.2-2.1c1 2.8 1.9 5.3 2.7 7.6-2.2 2.2-3.4-.4-4.8-.4zM798.1 1515.9v-5l2.5-.2 3.5 4.5-1.8 1.8-4.2-1.1z" class="st1"/></svg>