<svg id="Layer_15" data-name="Layer 15" xmlns="http://www.w3.org/2000/svg" viewBox="0 0 1998.43 2437.8"><defs><style>.cls-1{fill:#fff;}</style></defs><path class="cls-1" d="M424.52,1190.91c1.74-4.09,4.72-6.27,9.47-5.38l3.81,3.8,4.62-1.12c3,1.89,2.46,5,3.61,7.34s2.37,4.66,3.56,7c-.56,1.32-1,2.45-1.57,3.73l-8.75,3.27c.39,2.29-.72,4.59,1.06,6.6a36.2,36.2,0,0,1,2.59,3.33c.8,1.14.14,2.91,1.75,3.81.64.36.88,4.4.88,5.41,0,3.22-1.39,6.07-2.13,9.1a30.84,30.84,0,0,0-1.22,4.54,4.68,4.68,0,0,1-4.61,4.48l4.8,4.22-4.66.39c-1-1.43-1.85-2.75-2.77-4.12l-2.71,5h-2.68a5.22,5.22,0,0,1,.84-5,10.65,10.65,0,0,1-2.14-7.07c.1-1.32-.63-2.7-.92-4.07s.15-2.73-.75-4.21c-.73-1.21-.15-3.21-.15-5.21l1.91-1.5c-.8-1.65-1.37-3.1-2.16-4.41a36.83,36.83,0,0,0-2.52-3.29c-1.09,4.07-1.95,8.34-6.11,10.85-2.52-.6-4.32,3.29-7.46,1.48,1.38-3.26,4.9-3.15,6.92-4.79.32-2,.68-3.87.91-5.77s-.38-4.13.55-5.2c1.47-1.68-.19-4.1,1.85-5.29-.2-3.63,2.6-3.83,5.06-4.38a9.51,9.51,0,0,1,1.71,0v-3.76l-2.59-1.84Zm11.79,12.83,6.93-2.68v-2.4c-1.25-1.12-2.42-2.24-3.68-3.24-.2-.16-.82.21-1.23.33l1.36,1.79C438.06,1199.13,436.37,1200.62,436.31,1203.74Zm.28,33.64h.5v-4h-.5Zm-1,4h.5v-3h-.5Zm2.09-49H438v-1h-.33Z"/></svg>