<svg id="Layer_7" data-name="Layer 7" xmlns="http://www.w3.org/2000/svg" viewBox="0 0 1998.43 2437.8"><defs><style>.cls-1{fill:#fff;}</style></defs><path class="cls-1" d="M686.06,1289.23c3.28-1.86,1.84-5.57,3.5-8.86,1.1,2.56,1.94,4.51,3,7l12.31-12.68H711c30.49,0,61,0,91.48-.15,22-.11,43.95-.44,65.93-.67,1.66,0,3.32,0,4.24,0l14,12.06,2.23-2.13c.07,5.61,3,9.22,6.48,12.75,8.69,9,17.13,18.15,25.77,27.14,9.45,9.84,19,19.54,28.52,29.34q12.32,12.75,24.52,25.6a37.46,37.46,0,0,1,2.7,3.72,44.72,44.72,0,0,1-4.52.52c-6.63,0-13.25,0-19.87,0s-13.33-.06-20,0c-18,.19-35.94.51-53.92.6-7.64,0-15.28-.74-22.91-.56-60,1.42-119.94.06-179.89,1.09-22.47.38-44.93.22-67.4.67-1.61,0-3.23,0-5.41,0a23.17,23.17,0,0,1,1-3.19,7.11,7.11,0,0,1,1.34-1.47q8.91-9.43,17.84-18.85c7.81-8.19,15.68-16.33,23.48-24.54q17.68-18.64,35.29-37.35c.79-.84,1.33-2,2.17-2.72C686.22,1294.56,687.27,1292.31,686.06,1289.23Zm187.75-12.37c-1.29-.1-1.78-.16-2.28-.16q-65,.08-129.93.19c-4.15,0-8.29.54-12.43.52-5.65,0-11.29-.44-16.93-.5a59.62,59.62,0,0,0-6.88.7c-3.71,4.09-7.26,8-10.43,11.49v11.57L693,1303c-.94,2.11,2.18,4.57-.59,6.6-2.2-2.3-.72-5.31-2-8l-4.81-3.35c-5.79,6.15-11.47,12.2-17.17,18.23q-18.18,19.21-36.37,38.42-11.51,12.13-23,24.26a7.88,7.88,0,0,0-.95,1.55c.38.42.57.85.8.87,1.66.13,3.31.26,5,.25,50.45-.31,100.9-.76,151.35-.91q99.94-.3,199.89-.21a33.79,33.79,0,0,0,3.49,0,21.18,21.18,0,0,0,3.09-.84,33.45,33.45,0,0,0-2.29-3.11c-7-7.38-13.93-14.77-21-22.08q-19.41-20.12-38.91-40.17c-3.69-3.83-7.28-7.76-10.93-11.62-2.27-2.4-4.57-4.75-7.09-7.37-1.35,2.43-2.31,4.51-3.57,6.36-1.39,2,.19,5-2.87,7.65.51-7.57-1.91-14,.17-20.43Z"/><path class="cls-1" d="M769.93,1280c.55,2.47.89,4,1.36,6.14l2.53,3v10.19l-2.49,2.14c-1.21,2.45.86,5.64-1.81,8.22-1.18-3.68.46-7.94-3.23-9.78-.37-3.12-.69-5.75-1-8.38a4.12,4.12,0,0,1,0-2C766.64,1286.64,768.07,1283.81,769.93,1280Z"/><path class="cls-1" d="M726.28,1288.23l1.61-2c.93-1.67-.46-3.88,1.64-5.21,2.07,1.09,1,3.28,1.78,5.1l2.56,3.08v11.54l-1.7,1.94c-.13,2.32-.26,4.59-.46,7.95-2.53-3.28-1-6.33-2.25-9l-3.18-2.2Z"/><path class="cls-1" d="M848.19,1283.4c2.23,5.4,3.61,10,2.32,15l-3.26,10.95c-.32-.08-.59-.11-.59-.16-.33-5.35-2.38-10.59-1.56-16C845.58,1290.09,847,1287.12,848.19,1283.4Z"/><path class="cls-1" d="M811.26,1298.91l-3.1,10.56a26.74,26.74,0,0,1-.92-2.86c-.42-2.24-.78-4.49-1.15-6.74-.87-5.34.38-10.27,2.83-15C810.11,1289.44,813,1293.57,811.26,1298.91Z"/></svg>