<svg id="Layer_6" data-name="Layer 6" xmlns="http://www.w3.org/2000/svg" viewBox="0 0 1998.43 2437.8"><defs><style>.cls-1{fill:#fff;}</style></defs><path class="cls-1" d="M542.53,986.76c14.7-16,27.44-19.17,28.83-19.8,37.43-16.92,87,5.91,93.34,46.58,3.51,22.46-1.84,46.68-5.69,69.69-1.1,6.55-16.77,13.09-15.76,17.15,4.45,17.86,12.88,34.69,19.21,52.13,4.2,11.56,10.81,23.9,9.64,35.19-.78,7.5-13,19-20.77,19.61-21.73,1.61-43.83-1.23-65.74-2.88-19.81-1.49-31.76-21.65-27.67-45.82,1.71-10.15,2.28-20.72,5.58-30.34,8.68-25.29-8.22-38.54-22.71-53.88-20.62-21.83-19.88-68.33,1.74-87.63"/></svg>