<svg xmlns="http://www.w3.org/2000/svg" viewBox="0 0 1998.43 2437.8"><defs><style>.cls-1,.cls-2,.cls-4,.cls-5{fill:none;stroke:#fff;stroke-miterlimit:10;}.cls-1{stroke-width:2px;}.cls-2{stroke-width:3px;}.cls-3{fill:#fff;}.cls-5{stroke-width:5px;}</style></defs><g id="Layer_19" data-name="Layer 19"><rect class="cls-1" x="269.29" y="679.11" width="1481.14" height="1076.62"/></g><g id="Layer_18" data-name="Layer 18"><rect class="cls-2" x="50.98" y="678.52" width="1908.02" height="1043.58"/></g><g id="Layer_16" data-name="Layer 16"><rect class="cls-2" x="1143.51" y="983.22" width="640.88" height="480.16"/></g><g id="Layer_17" data-name="Layer 17"><rect class="cls-2" x="516.52" y="982.98" width="614.89" height="480.7"/></g><g id="Layer_14" data-name="Layer 14"><rect class="cls-2" x="195.09" y="953.46" width="831.36" height="468.26"/></g><g id="Layer_15" data-name="Layer 15"><rect class="cls-2" x="534.37" y="862.19" width="960.33" height="732.15"/></g><g id="Layer_13" data-name="Layer 13"><rect class="cls-2" x="762.55" y="745.12" width="1186.52" height="714.29"/></g><g id="Layer_12" data-name="Layer 12"><path class="cls-3" d="M1157,1235.23h-1.73a4.08,4.08,0,0,1,1.69-5.34c2.88-1.55,4.41-4.05,6.25-6.43a16.63,16.63,0,0,1,2-1.79c-.44-1.41-.87-2.74-1.4-4.43l5-7.9v-3.25c2-4,5.36-6.27,8-9.23-.36-1.94-.72-3.93-1.06-5.73,7.35-7.77,11.77-9.9,16.5-7.74a17.82,17.82,0,0,0,2.85-3.48,29.57,29.57,0,0,1,5.54-7.66c2.21-2.13,3.08-4.76,4.11-7.35,2.77-6.93,4-14.33,6.14-21.44.92-3,.72-6.37,1.11-9.56.26-2.2.74-4.38,1-6.59.2-2.06.49-4.08.83-6.11.67-4.06.34-8.31.14-12.47-.11-2.32.62-4.4,1-6.59s-.49-4.39.87-6.67c.8-1.35.15-3.58.15-5.41,0-2.83,0-5.67,0-8.5,0-1.91-.06-3.76.91-5.63.78-1.48-.72-3.59.94-5.12.26-.24.2-1,.13-1.42-.69-4.77.56-9.46,1.22-14.05.88-6.17.53-12.69,3.63-18.44-.16-4.36,2.28-8.24,2.22-12.61a9,9,0,0,1,1-4.54c3.08-5.09,3.09-11,4.91-16.47,2-6,2.62-12.38,5.5-18.23,2.72-5.53,3.89-11.73,5.67-17.66s4.11-12.21,9-16.74c1.33-1.24,2.36-2.71,3.71-4,2.68-2.47,6-2.74,9.14-3.37a72.8,72.8,0,0,1,11.06-1.06c3.66-.16,7.38.32,11-.11,6.63-.79,12.19,2.17,17.31,5.28,4.14,2.52,8.15,6,9.66,11.25,4.21,4.82,4.82,11.37,8,16.68,1.12,1.87,1.79,4.11,4.26,5,1.84-3.37,4.76-5.77,7.5-8.24,3.18-2.86,5-6.53,7.27-10a83.87,83.87,0,0,1,5.43-7.74c3.43-4.25,8.3-5.75,13.46-6,5.32-.29,10.66-.15,16,0,1.87.05,3.72.76,5.59.92a22.41,22.41,0,0,1,5.63.9c1.66.56,3.06,1.87,4.64,2a10.12,10.12,0,0,1,5.11,2.18c3.14,2.34,7,3.93,8.67,7.94.24.57.91,1,1.49,1.54a74.16,74.16,0,0,0,2.35,22.74l7.73-5.12c6.58-.26,6.58-.26,9.76-2.53.08-.74.17-1.53.27-2.47h2.54c.15.42.18,1.19.58,1.55,3.37,3,4.86,6.83,5.82,11.12.55,2.52,1.91,4.86,2.94,7.37l6.83-2.71c.08,1.31.13,2.09.18,2.93l-5.65,5.55h-2l-5.1-9.17c-5.61,1.21-4.79,6.16-5.62,10.5L1424,1002v-5.21c1.73-3.08,3.47-6.37,5.41-9.55,1-1.63.61-2.74-1.18-4-4.09-.49-8.2,1.89-13.11,2l-7.53,8.91c.57,1.74,1.21,3.64,1.84,5.54,1.19,5.66-.67,11.65,1.37,17.47,2.23-1,3.82-2.15,6-2.08,1.29,0,2.62-.8,3.93-1.26.73-.26,1.45-.55,2.62-1,.34.92.7,1.86,1.05,2.8.22,2.33-2,4.54-1.6,7.69.41,2.94.09,6,.09,9v1.35l-1.49,1.51-1.42-1.31a12.6,12.6,0,0,0-2.06,2.3c-2.65,5.06-5.6,10-7.69,15.31-2.73,6.88-6.24,13.41-8.64,20.43a10.59,10.59,0,0,0-.08,7.44,4.62,4.62,0,0,1,.32,2.82c-1.83,4.67-1.58,9.87-3.82,14.42a1.71,1.71,0,0,0-.09,1.42c2.18,3.13-.1,7,1.87,10.25.75,1.22-.4,3.19,1,4.59.46.44.12,1.64.53,2.23a7,7,0,0,0,2,1.37l-1.55,3.65a4.67,4.67,0,0,1-.94-.38c-2.74-2.3-3.35-5.58-4.06-8.82-.35-1.62-.81-3.22-1.47-5.79-1.55,2.44-3,3.65-3.58,5.69-.74,2.5-2,4.82-2.9,7.29-.66,1.89-2,3.43-2.25,5.62-.21,1.63-2,3.06-3.14,4.62-.69-.69-1.17-1.16-1.79-1.79,2-4.56,3.46-9.44,6-13.91,1.68-2.89,2.15-6.46,3.72-9.43s2-6.51,3.26-9.66c.65-1.56.12-3.62.12-5.45v-8.41c1.87-1.72,1.59-4.1,2.28-6.15,1.21-3.64,3-7.08,4.49-10.63s2.78-7.22,4.39-10.68c1.16-2.48,2.58-4.92,3.72-7.46a5.68,5.68,0,0,0,.14-2l-2.48-1.53c-2-5.14-1.61-10.22-1.5-15.23.07-3,.76-6,.92-9.09s0-6.33.08-9.49a10.55,10.55,0,0,1,1.1-2.84,16,16,0,0,1-1.06-1.87c-1.2-2.93-2.3-5.75-2.21-9.14.15-5,.13-10.22-1.07-15-1.07-4.3-.24-8.46-1.11-13.44-.33-.87-1.92-1.79-2.86-3.35-2.18-3.63-6.3-5.07-10.13-6.62-2.14-.87-4.26-1.8-6.33-2.8-2.27-.65-4.63.3-7.09-1-2-1.08-4.59.12-7.09-.94-2-.84-4.78.07-7.2.32-3.59.38-7,1.62-10.84,2.84-8.7,8.08-13.93,18.64-16.33,30.61h-2.42a3.24,3.24,0,0,1-.37-1.2,7.71,7.71,0,0,1,.48-1.78c.18-.54.38-1.07.79-2.21-2.42.63-4.44,1-5.24,2.82-1.88,4.17-5.48,7-7.9,10.72a40.84,40.84,0,0,0-3.12,4.71c-1.73,3.77-4.47,6.88-6.91,10.08a39.78,39.78,0,0,0-6.06,12c-1.35,4.13-1.63,8.64-3.19,12.68-1.73,4.47-2.65,9.16-4.5,13.63-1.75,4.25-3.48,8.57-5.26,12.82s-4.06,8-5.91,12-3.6,8.2-5.48,12.23c-2.49,5.33-5.94,10.22-9.07,15.24-2.39,3.86-5.39,7.42-7.27,11.5-1.64,3.57-4.37,5.93-6.82,8.68h-3.17a27.75,27.75,0,0,1-1,3c-.37.85-1.14,1.55-1.42,2.41-.77,2.36-1.37,4.77-2,7.16a41.34,41.34,0,0,1-1.51,5.37,40.59,40.59,0,0,0-2.37,10c-.39,2.51-1.8,4.9-1.12,7.57-2.44,1.89.35,5.21-2,7.22-.33.29-.1,1.29,0,2,.26,2.45-.46,4.74-.93,7.1-.43,2.16-.07,4.4-1,6.62-.43,1.08-.55,2.39-1.11,3.55a8.82,8.82,0,0,0-1,3.07c-.15,2.16,0,4.33,0,5.64.72,2.71,2.06,3.85,4.1,4.25,1.87-1.51,4.24-.65,6.45-.93,2-.25,4-.7,6-1.06l6.22-6.23c.37-2.24,1.52-4.9,1-7.17a41.14,41.14,0,0,1-.81-7.33c1.76-2.89,3.35-5.58,5-8.23,1.5-2.38,3.25-4.63,4.59-7.1,2.93-5.41,7.49-9.37,11.68-13.67.4-.41.45-1.14.74-1.68,1.08-2.1,2.6-4,3.71-6,2.77-5,6.5-9.23,9.38-14.08s5.93-9.55,8.89-14.32c.82-1.32,1.36-2.93,2.45-4,2.4-2.25,3.6-5.13,4.89-8s2.73-5.49,3.83-8.42a103.75,103.75,0,0,1,7.92-16.2c4.75-8,8.35-16.7,13.91-24.25q3.81-5.16,7.57-10.36a32.36,32.36,0,0,0,2.11-3.13c.68-1.21.91-2.79,1.84-3.7,3-3,4.08-7.41,7.72-9.84a37,37,0,0,0,3.47-2.48,23.45,23.45,0,0,0,7.59-12.56l2.47-2.47c.44-2.26,1-4.25,1.19-6.28a57.53,57.53,0,0,0,.05-5.86l2.38-3.72,1.77,1.77c-.81,3-.84,6.35-1.84,9.53,0,.14-.31.26-.3.37.4,3.45-1.19,6.47-1.88,9.7a19.11,19.11,0,0,1-3.8,8,25.64,25.64,0,0,0-3.84,5.9c-1.78,4.6-6.28,7.5-7.5,12.39-4.07,3.5-5.72,8.68-8.66,13-1.82,2.65-4.93,4.26-5.83,7.54-4.3,4.31-7,9.77-10.47,14.67-2.34,3.31-4.44,6.8-6.46,10.32-1.07,1.85-1.61,4-2.6,5.91-2.5,4.81-5.25,9.48-7.66,14.33-3,6-6.27,11.9-6.31,18.88-1.68,2.17-1,4.71-1,7.09,0,2.2-.39,4.38.79,6.66.81,1.56.16,3.87.16,5.84l-3.09,2c-2.08,4.4-3.86,8.16-5.91,12.53,0,4.44.26,9.62-.1,14.76-.23,3.34,1.11,6.35,1.12,9.59,0,3,1.81,5.59,2.51,8.45.44,1.8,1.13,3.54,2,6.19,1.35,1.31,3.43,3.22,5.39,5.25,3.84,4,8.94,5.63,13.89,7.51a9,9,0,0,0,3,0c6.67,0,13.34,0,20,0,6.15-.07,12.23.12,18.19,2,2.42.75,13.19-.11,16-1a12.1,12.1,0,0,0,4.57-2.18,55.85,55.85,0,0,0,8.28-8.57,36.85,36.85,0,0,1,6.35-6.76c2.12-1.76,5.21-1.94,7.95-2.42,6.65-1.18,13.53-1.19,19.83-4,2.31.46,3.34-1.72,4.89-2.63a89.15,89.15,0,0,1,12.87-6.4c.86-.33,1.51-1.19,2.35-1.57,4.91-2.19,8.76-6,13.47-8.52a4.23,4.23,0,0,0,.72-.69c5.4-5.07,10.83-10.1,16.17-15.23a32,32,0,0,0,2.86-3.8c4.59-5.93,9.88-11.31,13.82-17.77,1.3-2.14,2.28-4.44,4.14-6.32,2.86-2.9,6.33-4.86,9.65-7a41.92,41.92,0,0,0,11.25-10,66.26,66.26,0,0,0,7.8-14.22c1.45-3.57,2.79-7.18,4.39-10.68,1.24-2.72,2.58-5.32,2.66-8.42a7.44,7.44,0,0,1,1-4c.88-1.22.78-2.39.94-3.65.24-1.87.67-3.72,1-5.59.26-1.71-.43-3.46.89-5.17.65-.83,0-2.59.14-3.91.19-2.05-.72-4.24.93-6.13.33-.38.12-1.3,0-2-.29-2-.63-4.06-1-6.08s.85-4-.89-5.64a.72.72,0,0,1-.1-.45,50.23,50.23,0,0,0-.05-5.49,45.11,45.11,0,0,0-1.29-5.31c-1.37-1.72-3.47-3.51-4.48-5.79-2.84-6.42-8.26-10-13.79-13.56a42.83,42.83,0,0,1-5.82-4c-3.67-3.37-7.13-7-10.54-10.35v-2.55l2.44-.12c4,4,7.94,8,12,11.95a15.2,15.2,0,0,0,3.47,2.47,40,40,0,0,1,10.74,7.82,19.29,19.29,0,0,1,3.49,4.55c2,4,5.45,7.28,6.1,12,.08.59.65,1.11.71,1.69.38,4.19.64,8.4,1.05,12.58a35.74,35.74,0,0,0,1,5.09c.69,2.68-.93,5-1.06,7.58-.13,2.37.89,4.93-.93,7.11-.17.19,0,.65,0,1,.16,4.19-1,8.15-1.8,12.21-.42,2.13-1,4.31-1.3,6.54a23.15,23.15,0,0,1-1.92,5.67c-1.29,3.3-2.55,6.62-4,9.84s-3.15,6.34-4,9.83a12.41,12.41,0,0,1-2.33,4,60.51,60.51,0,0,1-13.73,13.7,35.4,35.4,0,0,1-4.86,2.75c-4.18,2.08-5.87,6.34-9,9.28-.18,3.16-2.82,5-4.45,7.11-5.59,7.34-11,14.85-17.9,21.13-1.42,1.29-2.49,3-4.53,3.55-.14,0-.26.2-.35.34-2.4,3.64-6.24,5.67-9.34,8.52-2.64,2.42-5.83,3.76-8.66,5.75s-6.11,2.51-8.43,5c-4.53,1-7.94,4.16-12,6.16a32.86,32.86,0,0,1-8.79,3,35.18,35.18,0,0,1-7.12.82c-2.42,0-4.72.83-7.06,1.2-4.52.72-9,2.65-11.63,6.66-1.85,2.78-4.27,4.9-6.43,7.32-.62.69-1.1,1.49-2,2.71a30.19,30.19,0,0,0-3.22,1.48,20.67,20.67,0,0,1-9.9,2.63c-4.17.08-8.39.46-12.49-.07-11.85-1.51-23.76-.21-35.58-1.09-6.42-.48-13-1.8-18.31-6.38a14.22,14.22,0,0,0-2.76-1.44h-26.4c-2.44-1.51-5-2.38-6.86-4.56-3.57-4.25-6.26-8.75-5.9-14.58.15-2.48,0-5,0-7.06,1.32-2.19,2-4.5,4.69-4.94,1.07-2.18-.28-3.92-1.12-5.81h-2.23c-.38.61-.86,1.4-1.35,2.18-1.23,2-2.6,3.91-3.65,6-.84,1.65-2.19,3.54-1.15,5.35a8.82,8.82,0,0,1,.52,7.07c-1.76,6.1-1.37,5.75-4.48,8.64-1.58,1.47-3.07,3-4.68,4.67-4.49.32-9.35-.85-13.2,2-.44,4.86-.85,9.33-1.25,13.69-4.22,2.66-8.25,4.87-13.1,4.31-5.11-.6-10,1.64-15,1-5.14,3-8.78,7.44-12.85,11.44-.88.87-1.31,2.19-2.18,3.06a14.73,14.73,0,0,1-3.1,2.14,11.64,11.64,0,0,1-2.92,1.38c-3.57.92-4.83,1.75-7.39,4.93a38.91,38.91,0,0,1-2.94,3c-2.5.47-5.23-.2-7.9,1-1.58.71-3,1.5-4.54,2.33-3.92,2.13-8,3.94-12.11,5.75a7.47,7.47,0,0,1-2.66,0l-3.4-4.78v-2.75c2.47-2.43,5.1-4.84,6.07-8.47,5.48-2,6.35-1.85,11.36-9l2.79.19c-.61,4.83-3.74,7.68-7.11,9.66a39.46,39.46,0,0,0-7,5.5v6a52.15,52.15,0,0,0,5.62-2.64c2.51-1.57,5.54-2.21,7.69-4.49.6-.63,2.11-.77,3-1,2.57-.5,5.29-.18,7.62-.18l5.66-5.66c.5-2.4,1-4.71,1.53-7.29l2.63-1.55v4.38H1193c2.84-2.7,5.92-4.75,7.76-7.6,2.29-3.58,5.48-5.63,8.93-7.59l7.78-1.71c2.83,0,5.67-.07,8.5,0,5.26.15,9.72-1.4,12.93-5.66a41.41,41.41,0,0,0-.11-6.62,9.33,9.33,0,0,0-1-3c-1.39-2.31-1.86-4.92-3-7.28a16.84,16.84,0,0,1-1.9-8c2.26-2,4.09-4,4.09-7,1.78-1.39.44-3.43,1-5.06a27.55,27.55,0,0,0,1.86-10.23,5.87,5.87,0,0,1,0-2.48c2.11-4.19,1.66-8.91,2.78-13.32.52-2.06.34-4.61,1.31-6.46,1.19-2.27,1.45-4.76,2.55-6.95.84-1.68.18-3.37.84-5.15,1.89-5,3.66-10.19,5.68-15.15,1.54-3.77,2.29-8.24,5.78-11.1,1.12-4.2,4-7.58,5.17-11.87,1.15-4.14,2-8.44,3.81-12.4.58-1.24.34-3,1.11-4,1.43-1.92.53-4.08,1.19-6,.92-2.68,1.85-5.36,1.76-8.28s1.59-5.61,1-8.58c-.31-1.53-.8-3-1-4.59s0-3.33,0-5c0-5.17.09-10.33,0-15.5a17.41,17.41,0,0,1,1.6-8.36l1.44.41v42c0,.5.21,1.17,0,1.47-1.7,2.12-.54,4.71-1.26,7a56.82,56.82,0,0,0-1.82,7.27,34.6,34.6,0,0,1-3,9.23,16,16,0,0,0-1.91,7.8,19.5,19.5,0,0,0-1,2c-1.78,5-4.69,9.41-7.38,14-.87,1.47-2.47,3.57-1.08,6.22,1.3-1.72,2.35-3.15,3.45-4.54,4.67-5.91,7.19-13.22,12-19,3.81-4.53,4.61-10.51,7.9-15.24-.54-2.66,2.47-3.65,2.79-5.83.59-4,3.14-7.06,4.78-10.51,2.92-6.16,4.79-12.68,7.43-18.92,2.56-6,3.34-12.62,5.16-18.87,1.46-5,3.37-10,7-14.09,2.41-2.7,4.81-5.44,6.09-9a13.69,13.69,0,0,1,2.08-3.14c1.95-2.67,3.93-5.33,5.8-7.86l-1.6-4.42c-1.31-1.41-3.09-3.16-3.64-6.23-.64-3.57-2.39-7-4-10.3-1.09-2.24-2.89-4.12-4.15-6.29a17.43,17.43,0,0,0-5.87-6.17c-4.65-3-9.19-6.06-15-6-3-2.05-6.46-1.12-9.56-.79-2,.22-4.07,1-6.09.71-2.25-.36-4,1.09-6.09,1.06-4.78-.07-8.37,2.39-11.82,5.28-4.45,3.72-6.07,9.09-8.15,14.12-1.53,3.72-2.19,7.8-3.28,11.66a93.82,93.82,0,0,1-4.89,12.44,57.45,57.45,0,0,0-3.74,12.41c-.73,3.7-1.67,7.41-2.73,10.92-2.12,7-3.91,14.08-5.4,21.23-.74,3.53-1.52,7.09-2.37,10.55-1.22,4.93-1.57,10-2.57,14.88-.6,3,.37,6.16-1.09,9.06.51,6.9-1.7,13.66-1,20.58.11,1.14.43,2.7-.15,3.39-1.57,1.84-.48,3.82-.82,5.69a60.13,60.13,0,0,0-1,6.08c-.44,5.52.42,11-.88,16.61-1,4.53-.81,9.35-1.14,14.05,0,.49.21,1.22,0,1.46-1.88,1.82-.06,4.44-1.11,6-1.22,1.86-.19,4.22-1.85,5.76-.09,4.78-1.75,9.23-3,13.74a48.86,48.86,0,0,1-3.17,8.67,47.23,47.23,0,0,1-4.88,7,96.72,96.72,0,0,0-9.91,15.9c-3.26,6.55-7.49,12.52-11.08,18.88a28.36,28.36,0,0,1-8.81,9.62c-2.57,1.71-5.43,3-8.1,4.55-3,1.73-3.3,5.43-5.65,7.65A1.39,1.39,0,0,0,1157,1235.23Zm114.93-63.7c-.55,8.41-.54,9.89,1.49,13.74,2.36,4.48,6.43,7.1,10.16,9.85h19c.56-.68,1.06-1.27,1.61-1.92-3.2-3.61-3.3-8.22-5.18-12.13a14,14,0,0,1-1-7c.24-2.71-1.16-5-1.13-7.6,0-4.83-.21-9.67.1-14.48.18-2.76.51-6,2.08-8,2.72-3.54,4-7.86,6.65-11v-20.48l-4.81,4.81c0,.12.27,1-.05,1.41-7,9.55-12.6,20.17-21.34,27.38l-2.29,5.82c-.81,1.88.37,4-1.17,6.07-.63.86-.5,3,.48,4.64s1.13,4.14,1.69,6.52Zm138.56-129.72c1.32-2.17,2.41-3.89,3.41-5.65s1.43-3.78,3.85-4.36c.82-.2,1.42-1.33,2-1.93v-11.71a24,24,0,0,0-10.9,4.43C1409.11,1028.69,1408.19,1034.88,1410.47,1041.81ZM1184.56,1196c3.11-2.32,4-6.35,6.38-9.92-4.56.41-8.09,1.6-10.18,5.25Zm-15.64,21.81,1.12.78c2-2,4-3.82,5.8-5.91.68-.8.73-2.14,1.17-3.58C1172.79,1211.18,1168.77,1212.78,1168.92,1217.81Zm10.25-11.38c2.13-1.87,2.79-4.44,3.94-7.21-3.77,1.13-3.77,1.13-6.21,3.73C1177.28,1204.81,1177.28,1204.81,1179.17,1206.43Z"/><path class="cls-3" d="M1483.91,998.53,1479,994c-2.87,2.27-3.2,5.44-3.12,8.23l9.18,7.08c2.76.2,4.62-2.43,6.83-4.54-.09-3.63.39-7.33-1.65-10.77-.57-1-.23-2.44-.32-4,3.88,1,4.37,4.1,4.84,6.71a10.53,10.53,0,0,0,2.49,5.43l4.14-2.28c.34.73.69,1.5,1,2.3-2.12,1.93-4.11,5.14-7.48,5.19-3.45,2.46-6.29,4.83-9.45,6.64a15.44,15.44,0,0,0-5.7,5.59c-1.11,1.79-3,3.08-4.43,4.69a40.28,40.28,0,0,0-9.53,18.54c-.49,2.26-1.44,4.42-2.52,7.64l-4.51,3.35a64.44,64.44,0,0,0-16,16.77,47.5,47.5,0,0,1-5.88,7c-5,5.17-5.06,5.12-7.06,12.08-1.22,4.21-1.22,4.21-4.48,6.93-.22-.8-.46-1.67-.69-2.54l-.83.73c0-4-.26-8,.08-12a37.78,37.78,0,0,1,2-9.15c1.28-3.7.88-7.8,2.93-11.28-.41-3,1.36-5.45,2.1-8.13a64.05,64.05,0,0,0,2-11.19c.45-4.8,1.83-9.51,2.91-14.25.12-.55,1-.9,1.25-1.47.81-2,2.8-3.32,3-5.8.09-1.22,1.41-2.44,2.38-3.46a8.3,8.3,0,0,0,2.44-5.5c.94-.94,1.89-1.88,2.83-2.83.25-2.26.29-4.53-1.28-6.39-1.27-1.5-.33-3.16-.8-5.24,1.27.26,2.86.15,3.15.71,1.14,2.24,3.66,2.91,5,5-.3,2.72.13,5.34,2.57,7.46l6.2-1.37c2-1.95,4.27-4.12,6.41-6.45A21.19,21.19,0,0,0,1475,989.4c.23-3.94-.9-7.53-2.35-11.46l2.78-2.2c.7,4.1,3.2,7.08,3.62,10.89.14,1.24,1.55,2.32,2.3,3.52,1.23,2,2.45,4,3.56,6,.26.49,0,1.23,0,1.86Zm-12.44,19.7h-2.15c-5.36-.05-10.33,1.07-14.61,4.6a9.61,9.61,0,0,1-3.41,1.36c-.39.12-.89-.14-1.36-.24v-2.21c1.83-2.72,5.14-3.46,7.88-4.75,6-2.84,12.43-2.09,18.11-.71l3.87-2.71v-3.93c-2.42-2.63-5.43-2.65-9.06-2.21-1.37,1.21-3,2.79-4.75,4.15a19.26,19.26,0,0,1-4.42,2.59,26,26,0,0,1-4.59,1.05l-6.63-3.19c-1.77,2.91-3.39,5.58-5,8.25q-3,5-6,10c-1.55,2.61-2,5.56-2.42,8.49-.19,1.41.08,2.8-.93,4.15-.53.72-.09,2.15-.09,3.23.77,0,1.16.18,1.41,0,3.31-1.62,6.58-3.21,10.3-1a2.4,2.4,0,0,0,1.9-.11,20,20,0,0,1,10.11-1.8c.94-1.85,3.36-2.43,3.25-5.19-3.42.69-6.64-.73-9.82,1a2.93,2.93,0,0,1-4-1.45v-4.07c1.61-3.34,4.6-5.48,7.11-8a5.47,5.47,0,0,1,2.92-1.31c3.82-.55,7.66-.93,11.76-1.41.65-.7,1.52-1.63,2.44-2.64Zm-42.67,62.59c3.26-3.26,6.68-5.51,8.42-8.69,2.79-5.09,7.13-8.87,10.17-13.71a11.39,11.39,0,0,1,5.06-4.42c2.55-1.12,4.7-3.15,7-4.85.32-.24.39-.81.57-1.21l-1.54-1.81c-3.29,1-6.23,2.2-9.45,2.11-1.83-.06-3.68.13-5.49,0a6.51,6.51,0,0,0-4.76,1.76,17.88,17.88,0,0,0-6,9c-.92,2.86-.39,6.25-2.07,8.57-1.46,2-.33,4-1.36,6C1428.44,1075.31,1429,1077.88,1428.8,1080.82Zm30.93-53.5-5.87,5.33c0,1,.07,1.62.12,2.58a41.84,41.84,0,0,0,4.89,0,39.62,39.62,0,0,0,4.73-1.17l3.14-3.13v-3.57Z"/><path class="cls-3" d="M1493.26,967.05c-2.62-2-2.42-4.74-2.36-7.48.07-3.47-1.5-6.34-3.29-9.78-.88,2-2.67,3.56-1.54,4.87,1.3,1.51.14,3.24,1.26,4.54a6.69,6.69,0,0,1,1.38,2.41,13.32,13.32,0,0,1,0,3.19c-3.24-1.91-4.9-4-4.88-7.21,0-6,0-12,0-16.81-2.25-7.12-7.61-10.16-12-14.07-3.59-.45-6.18-3.65-10-3.53-2,.06-3.83-1.47-6.25-.12-1.8,1-4.45.37-6.69.71s-4.25,1-6.37,1.45a2.34,2.34,0,0,1-.71,0c-3.9,2.09-5,6.24-8,9.75-.51-1.19-.78-1.81-1.12-2.59h-4a20.17,20.17,0,0,0-3.36,2c-2.75,2.48-5.33,5.15-6.71,8.69a9.27,9.27,0,0,0-.64,3.21c-.08,4.49,0,9,0,13.13a15.54,15.54,0,0,0,7.25,7.48l-1.74,2.53c-1.58-.76-3.09-1.5-4.61-2.21a4,4,0,0,1-2-2.43c-1.71-4-1.9-4-1.9-7.2,0-5,0-10,0-14.78.4-.52.84-.86,1-1.29,1.9-6.29,6.71-9.66,12.25-12.3.84-.4,1.93-.6,2.45-1.26,2.58-3.24,6.35-4.68,9.94-6.6,4.66-.37,9.53-.54,14.32-1.27,1.5-.23,3-1.21,4.59-.83,4.95,1.2,10.25,1.75,14.38,5,6.32,5,12.22,10.45,15.11,18.34a109.09,109.09,0,0,0,5,12v7.22l4.92,3.68V968a3.88,3.88,0,0,1-1.37.24C1496,967.85,1494.49,967.39,1493.26,967.05Z"/><path class="cls-3" d="M1469.33,1109.23h1.82c1.94-1.88,4.22-3.48,5.59-5.66a21.66,21.66,0,0,1,2.34-3c4.31-4.76,8.91-9.28,12-15,3.5-2.33,5.15-6.25,7.22-9.54,3-4.77,6.3-9.58,7.64-15.28.6-2.55,1.47-5,2.32-7.89l3,1.88c-2.44,2.08-1.07,5-2.17,7.56-2,4.7-3.75,9.46-6.52,13.78-.84,1.32-1.77,2.6-2.64,3.9-1.13,1.7-2,3.67-3.4,5.06a52.48,52.48,0,0,0-8.83,11.85c-2.11,3.73-5.64,6.32-8.38,9.54-3.63,4.26-8.38,6.9-13,9.8-3.15,2-6.09,4.43-9.64,5.65-6,2.06-11.64,4.87-17.42,7.39-2.69,1.16-5.25,2.61-7.85,4-3.56,1.86-7.08,3.81-10.66,5.61-1.76.89-3.64,2.13-5.46,2.12-2,0-4.09-1.24-6.12-2-.87-.31-1.72-.68-3.25-1.29l-6-6.22c-.36-2-.8-4.43-1.18-6.58l1.48-1.48a2.14,2.14,0,0,1,.66.27c.38.33,1,.73,1,1.06-.29,3.89,2.92,6,4.86,8.42,1.67,2.07,5,2.83,7.71,4a3.11,3.11,0,0,0,2.31-.33c3-1.57,6-3.28,9-4.9,1.77-1,3.55-1.88,5.38-2.7,2.39-1.06,5.23-1.52,7.16-3.12,3.75-3.1,8.36-4.09,12.64-5.73,2-.78,3.83-2,5.93-2.59s3.56-1.94,5.28-3C1464.69,1113.18,1467.25,1111.66,1469.33,1109.23Z"/><path class="cls-3" d="M1460.22,963.19c.38,3.18.63,5.21.87,7.18l-3.31,4.76h-3.73c-1.41-3.68-6.17-5.77-5-11,3.93.41,3.69,5.72,7.34,6.12,1.77-3.42-1-6.39-.49-9.67,3.4-2.51,6.71-5.42,11.49-4.16,4.62,1.38,5.62,6.46,9.35,9v3.15l5.64,5.64c2.6-.21,5.26.06,7.6,2.64l-1.76.62.44.58h-5c-1.79-1.58-4-3.52-6.43-5.73h-4.83c-1.89-2.78.66-5.06.42-7.66-2.66-2.34-4.66-5.92-9.65-5.41Z"/><path class="cls-3" d="M1442.38,956.23c-2.11-2.31-4.92-4.15-5.61-7.83h2.8l4.81,4.81h5.72l4.59-3.52,11.64-2.25,7.63,6.31c-.35,2.06-1.51,2.64-2.81,2.52l-4.73-4.73c-6.38-1.15-10.74,1.64-15.08,4.69Z"/><path class="cls-3" d="M1463,932l-11.12,1.25c1.4-3.71,3.34-5.32,6.3-5,2.3.28,4.52,1.19,6.82,1.53,4.58.66,7,4.18,10,7.07-.5,2.16-1.86,1.65-3,1C1469.14,936.06,1466.3,934.13,1463,932Z"/><path class="cls-3" d="M1509.12,1085.5c-.32,1.87-.19,3-.66,3.58-2.39,3.16-4.4,6.72-8.3,8.42-.56.25-1,.9-1.41,1.38-3.14,3.35-7.08,4.46-11.69,4.33v-2.8l8-1.67c1.67-1.47,4.14-3.53,6.48-5.72S1506,1088.6,1509.12,1085.5Z"/><path class="cls-3" d="M1424.31,955.14c3.89.72,2.76,5.68,5.93,7.3l7.63-1c.25,1.93-1.64,2.53-2.46,3.74h-6C1424,961.79,1423.65,961.05,1424.31,955.14Z"/><path class="cls-3" d="M1498.68,973.91c-4.63.09-4.63.09-10-5.51.39-.59.82-1.22,1.4-2.08C1493.77,967.64,1495.77,970.65,1498.68,973.91Z"/><path class="cls-3" d="M1433.92,977.17v-2.63c3-.77,6-1.56,9-2.29a13.1,13.1,0,0,1,2.43,0c-.63,1.14-.84,2.16-1.34,2.33C1440.79,975.64,1437.78,977.51,1433.92,977.17Z"/><path class="cls-3" d="M1443,983.23v-2.35c.77-.53,1.64-1.12,2.5-1.73,1.89-1.35,2-1.35,4.39.57l-3.46,3.51Z"/></g><g id="Layer_10" data-name="Layer 10"><rect class="cls-2" x="345.88" y="886" width="940.48" height="712.31"/></g><g id="Layer_11" data-name="Layer 11"><rect class="cls-2" x="1179.22" y="943.54" width="357.15" height="265.88"/></g><g id="Layer_7" data-name="Layer 7"><rect class="cls-2" x="60.16" y="1064.57" width="976.2" height="384.92"/><rect class="cls-4" x="60.16" y="1064.57" width="976.2" height="384.92"/></g><g id="Layer_8" data-name="Layer 8"><rect class="cls-2" x="673.26" y="772.9" width="1069.45" height="801.59"/></g><g id="Layer_6" data-name="Layer 6"><rect class="cls-2" x="456.99" y="1076.47" width="722.23" height="303.57"/></g><g id="Layer_4" data-name="Layer 4"><rect class="cls-2" x="1018.43" y="893.93" width="867.15" height="650.8"/></g><g id="Layer_5" data-name="Layer 5"><rect class="cls-2" x="189.13" y="893.93" width="765.88" height="648.82"/></g><g id="Layer_20" data-name="Layer 20"><ellipse class="cls-5" cx="1010.24" cy="1218.8" rx="1357.65" ry="763.68"/></g><g id="Layer_3" data-name="Layer 3"><path class="cls-3" d="M604.91,1239c1.85-.54,3.54.42,4.56-1.21.75,1.32,3.53.48,2.74,3,3.59.21,5.33-2,7.18-3.87,2.58,1.82,5.49.41,8.17,1,1.44,2.94,1.41,6.13,1.51,9.35.06,1.82.85,3.62,1.3,5.44.3,1.22.58,2.44,1,4.06h5.56v3.12c1.58,2,1.72,2.26,2.11,4.31,2.57,2.36,5.7,1.44,8.76,1.69.13-.66.23-1.11.37-1.82h3.41c4,4.61,7.94,9.13,12.18,14,4.88-.39,10.15-.34,15.18-1.42,2.59-.56,5.23-.15,7.58-.93,2.57-.85,5.07-.77,7.63-.88,1.9-.08,3.53-1.34,5.59-1.06a7.11,7.11,0,0,0,5.15-.83c.94-.6,2.64.1,3.92-.15,2.24-.44,4.72-.51,6.36-2.66-.43-1.69-.85-3.31-1.34-5.2h4.62l1.57-1.58c.1-2.76.17-5.5-1.85-8.51-.46,0-1.73,0-3,0-9.87-.15-19.68-1.91-29.47-.73l-1.46-2.81c1.34-2.64,3.25-1.3,5.43,0,.2-1.59.34-2.79.56-4.56.92-.25,2.9-1.14,3.15-.79,1.33,1.87,3.41.39,5,1.49,1.26.87,3.55.07,5.28.47a30.89,30.89,0,0,0,11.21.77v-4.23l5.29-2.76c-.54-2.19.33-4.15-.87-6.32a6.64,6.64,0,0,1,.28-5.66c.52-1.09.87-2.82.36-3.74-1.57-2.84-.46-5.79-1-8.73l3-2v-76l2.37-1.51c-.36-1.24-.63-2.11-.87-3-.47-1.81-1.32-3.63-1.29-5.43a21.47,21.47,0,0,0-1.13-6.57c-1.46-4.92-2.69-9.89-4.08-14.82-1-3.57-2-7.17-3.07-10.72-1.42-4.6-2.43-9.32-3.89-13.89-1.61-5-2.73-10.19-4.2-15.25-1.61-5.5-3.05-11.06-4.76-16.53-1.59-5-2.66-10.22-4.14-15.29-1.35-4.61-2.78-9.2-3.89-13.89a103.5,103.5,0,0,0-3.05-10.73c-1.52-4.24-2.37-8.65-3.71-12.93-1.3-4.12-2.54-8.33-3.49-12.59s-2.5-8.62-3.67-13-1.94-8.85-3.48-13.07c-.69-1.9-.13-3.42,0-5.23.49.57,1.24,1.07,1.43,1.73,1.42,4.92,2.47,10,4.15,14.79,1.64,4.65,3.24,9.36,4.64,14,1.18,4,2.33,8.08,3.37,12.15s2.6,8,3.67,11.93c1.79,6.59,4.16,13,5.76,19.62,1.36,5.6,3.3,11,4.56,16.65,1.14,5.1,3.29,10,4.86,15,.94,3,1,6.39,2.57,8.91,1.73,2.76,1.37,5.75,2.33,8.56,2.71,7.9,4.79,16,7.13,24,1.65,5.64,3.3,11.29,5,16.92a48.34,48.34,0,0,0,2,5.17c1.46,3.29.66,7.23,3,10.26.77,6.39,3.49,12.24,5,18.42.9,3.61,2.06,7.16,3.14,10.72.83,2.76,1.91,5.53,2.78,8.32,1.82,5.76,3.35,11.61,5.07,17.4.61,2.07,1.42,4.08,2.27,6.49,3.71-.57,7.65,1,11.67-1.59v-4.78l5.23,1.4,1.95-1.64c-.2-1.68-.38-3.58-.64-5.47-.77-5.45-1.31-10.93,1.17-16.09a26.9,26.9,0,0,1,3.08-4.4l11.78-3.46c1.21-1.89-.62-4.3,1.89-5.85h3.39l7.85-5.28h4.22v-3.49l-1.5-1.59-3,1.36-.44-1.56c3.77-2.21,7.8-1.58,11.76-1.63,1,1.44,1.85,2.76,2.7,4,4.77-1.38,9.36-2.79,14-4,4.93-1.32,9.94-2.33,14.67-4.42a7.5,7.5,0,0,1,3.41-.52c1.44.14,2.41-.72,3.6-1,7.65-2.07,15.21-4.48,23-6.09,3.16-.65,6.17-2,9.63-3.15l3.53,4.3,12.43-2.31c2.1-1,1-3,1.64-4.82l3.64.61,1.69-1.69.87,1.9c-2.13,3.41,1.73,7.08.46,10.74l4.68,1.37c.56,4.32,1,8,1.46,11.41l3.69,4,27.49-15,3.06.87c.29-.3.51-.41.51-.54,0-3.78,0-7.57,0-11.43,1.34.32,2.7,1.07,3.24.69,1.51-1.08,3.08-.92,4.66-.89,4,.08,7.82-1.06,11.73-1.78,5.55-1,11.34-.9,17-1.19.33,0,.71.64,1.33,1.23,1.9-2.7,4.95-.74,7.58-1.91,2.37-1.05,5.76.26,8.19-.73,2.8-1.15,5.79.53,8.06-1,2.54-1.69,5.32.32,8-1.48,2.06-1.39,5.23.4,8-1,2.28-1.15,5.28-.87,8.14-1.25v-6.55l5.41-2c-.69-1.36-1.33-2.59-2.12-4.12v-5.13h3.52a7.23,7.23,0,0,1,2.27,7.18c1.5,2.39,3.67,1.49,5.68,1.7.53,2.21,1.09,4.47,1.72,7.06,1.62-.48,3.44.69,5-.85a1.38,1.38,0,0,1,.9-.22c7.21,0,14.33-1.59,21.59-1.07,3.16.23,4.89,2.68,7.42,3.86.85.39,1.43,1.36,2.17,2.1h3.28l.78-2.16,2.53,1.52c.46,4.06.9,8.06,1.42,12.69L1092,1132v3.45l1.31.35c2,.57,3.69-.79,5.58-1s4,.93,5.63-.92c.22-.25,1,0,1.46,0a21.8,21.8,0,0,0,6.62-.86c2-.66,4.41,0,6.59-1,1-.52,2.65-.38,3.78,1.68,0,.84.46,2.5-.08,3.71-2.39,5.26-3.08,11-4.8,16.52a50.59,50.59,0,0,0-6.34.06,31.55,31.55,0,0,0-5.22,1.64c3.84,3.44,2.65,9.14,7.25,12.53l-3.32,1.37,4.41.57,1.57,2.92-4.33,3.81v1.71l5.85,2.81v2.43l-9,1.6c.68,6.12-1.34,12.3-1.14,18.63.06,2.09-2,4.18-3.06,6.32a30.26,30.26,0,0,1,11,8c.78,2.69.86,5.33,3.07,7,.73,2-.29,4,.91,6.21.93,1.69.64,4.37-.73,6.48a63.1,63.1,0,0,0-3,5.87c.3,1.79-.76,4.28.78,6.56l-2.66,1.66v4.49c.7.72,1.52,1.55,2.47,2.5a12.19,12.19,0,0,0,3.21-.54,8.51,8.51,0,0,1,6.08-.19,6.08,6.08,0,0,0,2.7.42c3.82-.92,3.79-.91,7.79,0a18.94,18.94,0,0,0,4.15,0l1.74,2.43,9.15-1.38,2.28,2.29,9.16-1.39c.07-1.21.13-2.34.19-3.44.31-.15.61-.42.87-.38a14.64,14.64,0,0,0,9.13-2.1c2.2-1.27,4.36-.69,6.43-1,2.16,2.71,1.27,5.75,1.56,8.8l2.77,1.74c.06,3.51,1.86,7.07,1.13,10.82-.66,3.38-1.61,6.71-2.45,10.14,4.2,2.19,7.19,5.92,12.27,5.48l5.88-10,3.28.85,4.85-1.07,4.29-5.65c0-3.16-3.51-4.14-5.11-6.77-.57-3.55,3.2-3.74,4.93-5.68.24-2.87-2.56-3.48-4.17-5.36,2.31-2.2,1.11-4.59,0-7,1.26-1.61,1.16-4.17,3.93-4.37,1.41-4.75-1.8-8.93-1.81-12.85l3.88-3.87,4.31,1,4.83-4.18c.47-4.63,6.59-5.46,9.15-9.91-.63-1.25-1.38-2.77-2.15-4.32,2.74-2.93,3.38-6.45,3-10.33,1.06-1.35,2.19-2.69,3.19-4.13.71-1,1.66-2.1,1.76-3.23.16-1.7,1.14-2.89,1.79-4.29,1.24-2.64,2-5.14.61-8.17-1-2.19-1-4.84-1.49-7.5h5.61c1.19.66,2.25,1.32,3.38,1.83a4.56,4.56,0,0,0,1.64,0c2.42-3.34,1.12-8,3.82-11.17l-1.54-1.64c-4.65,1.78-7.18.31-10.73-6.23,1.77-4.44,5.94-6.84,9-10.67-1.66-2.83-1.28-6.75-4.28-9.14,2.28-2.75,5.11-2.07,7.75-2.16l1.61-5.88,4.3,2.54c-1.37-4-2.4-7-3.53-10.37l2.33-.37c3.78,3.32,7.47,6.64,9,11.89h3.62l.46-1.77c.71,0,1.71-.31,2.24.05a47.43,47.43,0,0,1,5.27,4.21c5.2,4.78,10.19,9.82,15.56,14.41,4,3.39,8.41,6.2,12.62,9.3,3.45,2.55,7,5,10.26,7.77s6.15,5.53,10,7.26a4.18,4.18,0,0,1,2.14,1.92c.54,1.48,1.71,2,2.84,2.75s2.36,1.59,3.47,2.48c2,1.61,4,3.31,6,4.93,1.37,1.1,2.79,2.12,4.18,3.19s2,2.59,3.82,2.88c.53.09,1,.88,1.42,1.36a83.79,83.79,0,0,0,10.79,8.9c2.34,1.69,4.32,3.87,6.65,5.67,4.8,3.72,9.4,7.71,14.34,11.28,2.21,1.6,4,3.69,6.26,5.35,4.67,3.45,8.89,7.52,13.4,11.2s9.1,7,13.57,10.64c2.78,2.25,5.22,4.95,8.13,7,4.85,3.42,8.54,8.28,13.91,11a26.9,26.9,0,0,1,2.35,1.5c-1.55,3.58-2.77,6.41-4.14,9.59,5.8,6.7,13.83,11.36,20.69,17.67.21,3.62-1,7.15-2.36,10.34-3.28,7.64-6.53,15.31-10.31,22.75-1.87,3.68-4,7.32-5.47,11.21-.45,1.16-.76,2.37-1.16,3.63l4.34,2.2-1.46,1.39c-15.78,2.14-31.67.79-47.52,1.06-5.19.09-10.31-1.36-15.58-1-4.53.31-9,1.69-13.58,1.07-2.86-.39-5.72-.77-8.59-1-1-.07-2.1.42-3.76.78l-.91-.59a51.7,51.7,0,0,1-5.58.73c-3.83.11-7.67,0-11.59,0l-1.72-1.87h-4.37l-1.87,1.87h-22.79c-20.17,0-40.36-.67-60.48.23-13.72.61-27.4.46-41.1.77-5.27,1.76-10.73.55-16.07,1.07-2.4.24-4.33-1.16-6.59-1.09s-4.63.67-6.44-.14a13.71,13.71,0,0,0-8.13-.73c-10.18,1.75-20.41.62-30.6.84s-20.33,0-30.86,0l-2.36-3.37-7.58,1.36a10.29,10.29,0,0,1-1.43-1.45c-2.48-3.65-6.54-4.18-10.32-5.25-.28-.08-.68.43-1.06.49-1.9.31-3.84.71-5.35-.67-4.74,1.7-9.54.57-14.23.85a11,11,0,0,1-2.87-.7c-.08.08-.42.66-.81.7-4.69.39-9.38,1-14.08,1-4.24,0-8.29,1.49-12.59,1.15s-8.79-.74-13,.11-8.43.52-12.62.84c-2.21.17-4.25,1.24-6.6,1-2.19-.18-4.53-.59-6.61.89-.44.31-1.31.12-2,0-2.37-.3-5-1.42-7-.78a25.88,25.88,0,0,1-6.65.79c-7.19.35-14.43.28-21.56,1.18-3.38.42-7,0-10,1-3.49,1.19-6.91,0-10.12.91-2.27.68-4.73.36-6.84,1.57a3.31,3.31,0,0,1-1.37.31c-6.69.34-13.39.6-20.08,1-3.2.21-6.37.75-9.41,1.13l-10.2,4.6a1.87,1.87,0,0,1-.9.22c-4.61-.7-9,1.16-13.59,1-7.39-.27-14.75,2.23-22.06.92-9.21-1.65-18.42-.28-27.6-1-2.54-.19-4.66,1.16-7.09,1.09s-4.66,0-6.86.12-2.6,2.51-4,3.7c-7.17.39-14.44.2-21.49,1.35-5.75.93-11.48.08-17.09,1-3.89.62-7.9.1-11.56,1-4.77,1.22-9.44.41-14.13.84-2.7.25-5.38.78-8.09,1s-5.55-.62-7.94.19c-3.75,1.26-7.45.43-11.13.87a89.36,89.36,0,0,1-16.09,1c-3,1.82-6.39,1-9.59.94-6.39,0-12.66,1.78-19.08,1.06-7.11,2.15-14.4.46-21.58,1-7.45-2.07-15.06-.77-22.59-.92-5.18-.11-10.38.71-15.58.88s-10.28,0-14.43,0l-3.91,3-3.28-4-2.42.47c-1.52-.17-3.33-.94-4.5-.39-3,1.44-6.11.55-9.14.9a24.69,24.69,0,0,0-3,.76c-6-3-6.07-3.09-6.07-11.41l-2.23-1c.64-2.1,1-3.41,1.42-4.68l-3.05-1.84v-3.49l3.28-2.43c.55-.06,2.19.63,3.43-1.44.67-2.61-.33-5-2.18-7.49s-3.81-5.08-6.75-6.59c-2.21-1.13-4.6-2.06-6.49-3.59-3-2.41-6.35-3.94-9.7-5.61q-5.82-2.91-11.52-6a78.25,78.25,0,0,0-19.5-7.18c-3.33-.79-6.59-1.81-9.9-2.65a10.21,10.21,0,0,0-2.86-.31,12.62,12.62,0,0,1-5.12-1,15.52,15.52,0,0,0-6.56-1.12c-3.65.2-7.41-.43-11,.17-5.86,1-11.77.41-17.58,1.07-3,.34-6,.74-9.1.84a4.59,4.59,0,0,0-1.74.61c-3.31,1.65-7.13,1-10.55,2.29-.49.19-1.36-.6-2.15-1v-9.51c2.79-1,4.24-3.77,6.67-5.68v-4.21c-3.1-4.69-6.2-9.4-9.55-14.46l-1.76-.74c-3.15,1-6.9.83-9.94,2.71s-6.86,2.26-9.07,5.82c-3.71-3.65-6.5-6.73-6.64-11.64,1.43-.77,2.84-1.45,4.17-2.25s2.87-1.9,4.32-2.85c2.34-1.53,5-2.4,7.33-4.06.65-.47,1.92-.07,3.47-.07l-3-4.71,1.05-1c.19,0,.53,0,.64.18,2.61,3.58,5.6,7,7.7,10.81,3.47,6.4,8.59,11.63,12.14,18,1.3,2.33,3,4.45,4.52,6.7,7.45.42,14.77.24,21.82-2.93l1.88,1.09c.38-.18.81-.24.91-.45,1-2,2.77-3.3,3.26-5.68.41-2,3-3.25,2.87-5.78,2.83-3.75,2.94-9.17,8.39-12.43,4.1-.2,9.33-.11,14.43-.88,2-.3,4.08-1.08,6.09-.75,2.26.37,4-1.06,6.1-1.07h12.85a14.44,14.44,0,0,0,.18,2.79,17.51,17.51,0,0,0,1.2,2.78,24.85,24.85,0,0,0,12.55,4.9l.75-1.4h5.6l5.8,5.81c2.66-.18,2.66-.18,4.62-1.93,1.6.41,3.57-.78,5,1,.13.17.65.08,1,0,1.7-.32,3.38-.77,5.09-1s3.71.52,4.87-.26c2.27-1.53,4.54-.18,5.89-.63l6-3.06,3.25,1.78,3.12-3.13,3.38,1.26h4.37l1.87-1.9,3.61-.19c-.2-2.52.59-5.07-.75-7.71.8-2.6,4.94.24,5.86-3.38l-1.05-3a5.56,5.56,0,0,0,.81-5.75C604.37,1246.31,605.46,1242.76,604.91,1239Z"/></g></svg>