<svg xmlns="http://www.w3.org/2000/svg" viewBox="0 0 1998.43 2437.8"><defs><style>.cls-1,.cls-3,.cls-4,.cls-5{fill:none;stroke:#fff;stroke-miterlimit:10;}.cls-1{stroke-width:5px;}.cls-2{fill:#fff;}.cls-3{stroke-width:3px;}.cls-4{stroke-width:2px;}</style></defs><g id="Layer_1" data-name="Layer 1"><path class="cls-1" d="M1959,1758.8H39V678.8H1959Z"/></g><g id="Layer_18" data-name="Layer 18"><path class="cls-2" d="M1405,1301.7h3.69c.27-.53.74-1.43,1.23-2.36,9.13,2.29,17.93,3.65,24.09,11v16.84l2.47,3.86,12-3.75c2.51-.79,5-.6,7,1.48h5.75c1.27.74,2.38,1.32,3.42,2s2.64,1.29,3,2.27c.88,2.69,2.86,4.52,4.38,6.69,2.18,3.11,3.5,6.41,2.89,10.08,1.5,3.39,4.16,5.13,7,7.09,3.43,2.39,6.26,5.69,9.1,8.83,4.33,4.81,7,10.7,10.17,17.35-.26,1.76-.66,4.42-1.1,7.35l-5,3.77v3.38c-2,1.09-3.78,2.49-5.82,3.06a41.47,41.47,0,0,0-4.71,2c-2.7,1.11-5.54,2.21-8.6,2.18-4.5,0-9,.16-13.5-.07a38.38,38.38,0,0,1-9.75-1.76,10.08,10.08,0,0,0-2.92-.18c-3,0-6,.12-9,0-4.54-.23-9.22,0-13.54-1.17-3.29-.88-6.45-.41-9.52-.85-3.46,2.91-5.94,6.75-10.32,9a15,15,0,0,0-11.53,3.7c-3.11.38-5.76,2.4-9,2.33-6-.13-12,0-18,0-2.79,2.52-6.37,3.35-9.86,3.89a48.4,48.4,0,0,1-9.48.07c-1.54-.07-3.11-1.74-4.53-.88-2.19,1.32-4.42.77-6.64.89-1.83.11-3.67-.06-5.5.06a13.25,13.25,0,0,0-2.84.87c-3.57-1.38-7.36-3.18-11.32-1.14a31.76,31.76,0,0,0-5.76-.71,19.61,19.61,0,0,1-11.87-3.23c-4,1.9-7.94.8-12.08.36a28.34,28.34,0,0,1-10.95-3.29c-3.87,1.32-3.87,1.32-9.46.12a5,5,0,0,0-1.5,0c-3.6.4-6.83-1-10.22-1.84-2-.54-2.38-1.79-3.22-3.2-5.15.39-9.48,4.09-14.75,4s-10.32-.41-15.68-.63c-1.35,1.83-2.26,4.38-5,5.13-1.64.44-3.29,1.55-4.85,1.41-2.71-.26-5.11.65-7.59,1.17-8.49,1.8-17.06.69-25.59.91-7.5.19-15,.14-22.5,0a25.24,25.24,0,0,0-9.53,1.19,16.85,16.85,0,0,1-6.14.84c-5.5,0-11,.21-16.5,0a27,27,0,0,1-11.75-3c-9.34,1.86-19.74.88-30.09,1a10.61,10.61,0,0,1-5.17-.79c-2.27-1.07-5.19-.19-7.44.94a8.76,8.76,0,0,1-4.15.88c-8.83,0-17.68.31-26.49-.12-4.77-.23-9.8-.59-13.83-3.87-2.52,0-5.11.42-7.5-.09-5.35-1.13-10.73-.77-16.1-1-2-.08-3.9-1.18-6.09-1s-4.5.2-6.27,2.13a18.42,18.42,0,0,0-11.39,2.37c-2.16,1.17-4.54.8-6.69.36-4.58-.93-4.84-.71-9.81,0-2.83.39-5.63,1.24-8.52,1.24-5,0-10.09.6-15-.11-11.87-1.72-23.77-.06-35.59-1-5.19-.43-10.75-.51-15.37-3.83-1.52-1.09-3.16-2-4.67-3-2.45.66-4.88,1.2-7.24,2-4.63,1.51-9.38,1-14.09.9-2.18,0-4.26-1.16-6.59-1s-4.44.34-6.63-.85c-1-.56-2.63-.21-3.95-.08-5.89.59-10.66-2.17-15.44-5a76,76,0,0,0-10.25-5.43,14.44,14.44,0,0,0-3.25-.6c-1.86-.34-4,.88-5.61-1-.15-.17-.69-.13-1,0-3.92,1.77-8.06.64-12.09,1a4.27,4.27,0,0,0-1.57.66l-7.84-1c-.43-.54-1.32-1.7-2.22-2.86-.51.51-.74,1-1,1-3.3,0-6.6,0-10.33,0-2.92-1.36-6.26-2.94-9.62-4.49a4,4,0,0,0-1.38-.28c-7.7-.34-15.39-.7-23.09-1a6.83,6.83,0,0,0-3.73.65,5.42,5.42,0,0,1-5-.47,17,17,0,0,0-10.07-2.24,35.55,35.55,0,0,1-4,0c-1.83,0-3.68-.13-5.49,0a14,14,0,0,0-4.57,1c-3.14,1.48-6.41,1-9.6.87s-6.56,1.1-9.61-.89a1.55,1.55,0,0,0-1.45,0c-2,1.76-4.41.89-6.62.92-6.5.12-13,.07-19.5,0-3.4,0-6.74,2-10,.91-3.05-1-6.06-.76-8.7-.9l-6-3.08-3.21-3.91c-2.53,0-4.87-.08-7.2,0-4.1.17-7.66-.87-10.33-4.56v-7.41l4.85-2.51a2.79,2.79,0,0,0-1.79-3.53c-1.72-.68-3.4-1.69-5.18-1.93-3-.39-5.06-2.22-6.65-4.38-1.44-2-3.83-3.6-3.34-6.59-2.73-4.78-1.73-10.05-2.07-15.17-.19-2.92-.19-6.11-2.87-8.35v-5.49l7.53-6.18c.37-.31.75-.88,1.12-.87,4.67.07,7.15-3.39,9.91-6.24a27.45,27.45,0,0,0,4.32-5.7c1.69-3.06,4.17-4.21,7.69-4.11,3.69-3.81,5-9.64,10.26-13,2.47.19,5.58-.64,8.49,1l3.41,5.26a39.76,39.76,0,0,1,11.65-7.08l4.88.91c2.06-1.67,2.28-3.43,1.15-5s-.08-2.68.71-4.28l-2.17-2.33V1278c1.41-3.33,2.55-6,3.77-8.9l-1-1.05c-3.86,1.23-7.7.72-11.53.47-.12,0-.22-.31-.35-.32-2.52-.35-2.89-2.63-3.92-4.31.33-.86,1-1.76.94-2.58-.55-4.95,2.43-8.48,5.08-11.89s5.8-6.53,9.93-7.92c0-1,.28-1.86,0-2.25-3.3-3.94-1.89-8.14-.6-12.19a6.08,6.08,0,0,0-.17-4.85c-1.41-3.42-3.57-6.46-4.48-10.16-1.17-4.72-.71-6.56,3.45-8.95a54.61,54.61,0,0,0,4.63-3.33c1.41-1,2.71-2.5,4.28-2.87,1.79-.44,3.11-1.42,5-2.08-.44-3.64-.86-7.09-1.24-10.22a22.19,22.19,0,0,1,8.23-6.42c1.61-.66,3.54,0,4.94-1.39a10,10,0,0,1,2-1.3v-3.94c-1-1.48-2.47-2.81-2.81-4.38-.48-2.22-.12-4.63-.12-6.64l5-5.91c0-2.68-.55-5.2.16-7.3s1-4.23,1.63-6.29c.86-2.71.21-5.9.21-8.76,3.89-3.85,7.27-8.3,13.56-7.45l2.87,2.88h4c1.18-1.86,2.41-3.81,3.79-6-.39-.48-1.11-.94-1.12-1.43-.11-3-.06-6-.06-9.27l7.83-6.42v-4.38l.47.12c.56-1.44,1.08-2.89,1.68-4.3s1.3-2.8,1.7-3.64c-.36-2.35-.65-4.22-.91-5.94l4.85-4.8-5.43-9c.65-2,1.12-3.78,1.81-5.47a13.9,13.9,0,0,1,2.2-4.07c2.51-2.81,5.55-3.3,8.44-1.07,2.19,1.7,5.17,2.73,6,5.88.1.37.69.61,1.18,1,4.81-4.41,11-3.86,16.55-5.36,3.32,4.92,3.39,5,5.51,6.1l4.88-2.58L783,1056.4l-2.21-2.41c.61-1.83,1.3-3.88,2-5.93,15,4.4,29.78,8.42,44.91,12.16l3.93-13.53,1.63-1.62c17.75,4.54,35.32,9,53.14,12.1l1.66-4.44c5.82.14,11,2.38,15.44,2.94l3.95,2.89a13.91,13.91,0,0,0-1.37,2.74,14.26,14.26,0,0,0,0,3l2,2c.39,4.51-2,8.61-2.52,13.41l14.9,3.59,2.9-4.36h4.41l2.48,2.67c-.42,1.47-.84,3-1.29,4.56,4.53,2.53,9.43,4,13.93,6.18s9.74,3.13,13.81,6.41l.88-.88c3.36,1.07,7,1.82,10.27,3.42,1.63.81,3.79-.49,4.87,1.55,3.29.28,6.12,1.5,7.89,4,3.64.08,5.18-3,8.06-3.66,5.07,1.46,9.86,4.72,15.4,4.73l6.81,2.84,7.77-3c2.51,1.14,4.38,2.27,5.82,4.75,1.93,3.3,5.37,5.31,9.22,6.44,1.76.51,3.35,1.6,6,2.91l3.69-.78c3.91.25,4.32,4.47,6.6,7.32l2.85-2.64c.18,1,.34,2,.53,3h4.4l6.32-6.32a15.2,15.2,0,0,1,14,.42c2.38,1.2,3.2,3.34,4.24,5.58l-2.08,4.22c3.93,3.58,9.28,4,14.57,5.63a19.18,19.18,0,0,1,.49-4,20.53,20.53,0,0,1,2.2-3.57l5.13,1.16c2,3.29-2.52,6.69.82,10,1.08,0,2.37,0,3.66,0a15.84,15.84,0,0,1,5.12.88c1.73.53,3.52,2.12,5.76.27.79-.66,2.89-.16,4.56.64a71.19,71.19,0,0,0,19.41,6.25,30.92,30.92,0,0,1,4,1.28c1.2.36,2.43.62,4.21,1.07,1.83,1.27,2.23,4.85,6.72,5.53,4.51-.91,9.67,1.45,14.67,2.79l6.66-.93,2.78,2.4,5.42-4c9.24-.15,15.33-2.41,20.22-8.12h5.29l8.33,5.94,11.66,1.23,3.39-1.79,4.77.92,4.86,5.6c-1,4.66-3.3,7.28-8.44,7.08l-3.22,4.24a9,9,0,0,1,.82,2.14c.31,3.09,2.23,4.79,5,5.61,4.74,1.42,9.11,3.8,13.83,5.23,2.81.85,5.16,3.07,8.79,2.76l3.24-3.24,4.21,1.6v5.42c5.79,2.45,11.45,4.89,17.15,7.22a9,9,0,0,0,2.8,0c2.85-6.44,4.77-13.47,9.69-19.16l12.58,5.13c-.31,1.84-.56,3.3-.84,5,2.62,1.42,5.27,3.33,8.55,4.07,3.78.86,7.09,3,10.71,4.3,5,1.88,10,4.11,15,5.92a40.08,40.08,0,0,1,5.63,3.12c-1.21,3.31-2.38,6.47-3.65,9.93l3.81,2.75c4-.68,8.61-3.21,14.36-1.66a41.06,41.06,0,0,1,11.75,8.52,19.91,19.91,0,0,0,6.83,3.9,17,17,0,0,1,6.22,4.31c2.08,2.16,4.3,4.19,6.34,6.39,1.86,2,3.55,4.19,5.32,6.28a21.73,21.73,0,0,1,4.7,12.56c0,5.16.72,10.46-.16,15.47-1.33,7.57-.42,15.09-.82,22.61C1405,1300,1405,1300.81,1405,1301.7Z"/></g><g id="Layer_16" data-name="Layer 16"><rect class="cls-3" x="867.95" y="990.22" width="560.6" height="448.48"/></g><g id="Layer_15" data-name="Layer 15"><path class="cls-2" d="M424.52,1190.91c1.74-4.09,4.72-6.27,9.47-5.38l3.81,3.8,4.62-1.12c3,1.89,2.46,5,3.61,7.34s2.37,4.66,3.56,7c-.56,1.32-1,2.45-1.57,3.73l-8.75,3.27c.39,2.29-.72,4.59,1.06,6.6a36.2,36.2,0,0,1,2.59,3.33c.8,1.14.14,2.91,1.75,3.81.64.36.88,4.4.88,5.41,0,3.22-1.39,6.07-2.13,9.1a30.84,30.84,0,0,0-1.22,4.54,4.68,4.68,0,0,1-4.61,4.48l4.8,4.22-4.66.39c-1-1.43-1.85-2.75-2.77-4.12l-2.71,5h-2.68a5.22,5.22,0,0,1,.84-5,10.65,10.65,0,0,1-2.14-7.07c.1-1.32-.63-2.7-.92-4.07s.15-2.73-.75-4.21c-.73-1.21-.15-3.21-.15-5.21l1.91-1.5c-.8-1.65-1.37-3.1-2.16-4.41a36.83,36.83,0,0,0-2.52-3.29c-1.09,4.07-1.95,8.34-6.11,10.85-2.52-.6-4.32,3.29-7.46,1.48,1.38-3.26,4.9-3.15,6.92-4.79.32-2,.68-3.87.91-5.77s-.38-4.13.55-5.2c1.47-1.68-.19-4.1,1.85-5.29-.2-3.63,2.6-3.83,5.06-4.38a9.51,9.51,0,0,1,1.71,0v-3.76l-2.59-1.84Zm11.79,12.83,6.93-2.68v-2.4c-1.25-1.12-2.42-2.24-3.68-3.24-.2-.16-.82.21-1.23.33l1.36,1.79C438.06,1199.13,436.37,1200.62,436.31,1203.74Zm.28,33.64h.5v-4h-.5Zm-1,4h.5v-3h-.5Zm2.09-49H438v-1h-.33Z"/></g><g id="Layer_14" data-name="Layer 14"><rect class="cls-3" x="1431.78" y="1045" width="415.74" height="304.42" rx="8.5"/></g><g id="Layer_12" data-name="Layer 12"><rect class="cls-3" x="425.37" y="922.32" width="1251.77" height="681.54"/></g><g id="Layer_13" data-name="Layer 13"><path class="cls-2" d="M1145.2,889.75c3.49-1,6.6-2.2,9.83-2.64,5-.69,8.1,2.84,7.29,7.87a4.64,4.64,0,0,1-.23,1.48c-8.12,14.58-.65,28.11,3,41.82,1.45,5.43,3.94,10.58,6.05,15.83a13.64,13.64,0,0,0,2.12,2.68c1.21-2.11,2.1-3.79,3.1-5.4,7.13-11.36,14.33-22.67,21.41-34,2.53-4.07,4.46-8.54,7.26-12.4s6.18-3.85,8.81.32a47.65,47.65,0,0,1,5.43,11.72c3.15,10.7,6.42,21.25,12.78,30.65,2.07,3,3,6.87,4.91,11.42a37.88,37.88,0,0,0,3-4.79c7.31-18,14.66-36,18.21-55.32a65.68,65.68,0,0,1,2.61-9.64c1.92-5.54,6.11-7.22,11.47-4.83,7.88,3.51,8.34,4.5,3.72,11.86-2.37,3.76-5.57,7-8.31,10.55-3,3.89-6.88,7.47-8.71,11.88-6.06,14.57-11.34,29.47-17,44.21-3.39,8.85-6.54,17.82-10.5,26.42-3.46,7.49-3.42,15.16-3,23,.5,9.46.06,19.13,2,28.3,2.22,10.64,7.1,20.7,9.83,31.28a204.88,204.88,0,0,1,5.92,31.78c1,10.82-2.77,20-13.73,24.73-3.4,1.46-3.36,4-2.55,7.08,1.41,5.28,2.59,10.62,4,15.92s-.55,9-5,11.81c-3.5,2.24-6.71,4.94-10.28,7-1.14.67-3,.09-4.55.09.5-1.45.6-3.33,1.59-4.27a54.24,54.24,0,0,1,7.92-6c2.86-1.83,4.27-4,3.33-7.48-.82-3-1.84-6.14-2-9.25-.47-10.88-8.22-14.11-16.82-16.37-1.56-.41-3.55.24-5.18.82a121.86,121.86,0,0,0-12.78,5.09,10.22,10.22,0,0,0-4.44,4.48c-1,2.18-1,4.84-1.55,7.28-2.38,11.37-1.79,12.74,8.07,18.58a6.89,6.89,0,0,1,1.73,1c1.61,1.78,4.78,4.28,4.37,5.36-1.42,3.68-5.09,2-7.27.83a51.22,51.22,0,0,1-12.06-8.57c-1.7-1.74-2.11-5.5-1.86-8.24.56-6.11,2.16-12.13,2.75-18.24.21-2.12-.66-5.59-2.17-6.44-17.24-9.76-16-32.31-10.27-47,5-12.84,9.94-25.77,14-38.93,1.78-5.74,1.39-12.15,1.89-18.27.45-5.47.94-11,1.06-16.44a24.61,24.61,0,0,0-1-8.29q-14.79-43.93-29.9-87.76c-2.05-5.92-4.93-11.55-7.27-17.37C1145.51,893.38,1145.52,891.66,1145.2,889.75ZM1204,1056.4l-.67,0c0-.83,0-1.66,0-2.5-.27-11.28-.59-11.8-11.71-12.08-1.87,0-4.93,1.85-5.51,3.51-5.63,16.15-11.21,32.34-16.06,48.74-2.73,9.26-1,18.11,6,25.49a17.47,17.47,0,0,0,18.75,4.88c6.47-2,7.56-8.1,7.7-14.31C1203,1092.21,1203.52,1074.3,1204,1056.4Zm3.46,37.41c.27,3.55.6,9.52,1.19,15.46,1.12,11.09,6.28,15.35,17.41,13.62,8.91-1.38,15.78-6,16.06-14.31.15-4.43.08-9.13-1.19-13.31-5.2-17.13-10.85-34.12-16.53-51.1-.38-1.13-2.39-2.23-3.75-2.38-2.1-.23-4.28.52-6.43.59-3.74.13-5.14,1.88-5.23,5.64C1208.67,1062.48,1208.07,1076.94,1207.48,1093.81Zm-8.43-140.12-2.17-.15c-.22-1.13-1-2.56-.56-3.33,2.11-3.84-.71-6-3.09-7.15-1.72-.81-5.14-.17-6.63,1.15-2.78,2.46-5.59,5.55-6.83,8.95-6,16.37,5.09,35.23,22.26,37.76,5.51.81,11.56,1.6,16.79-2.76-.69-.47-1-.9-1.46-1a7.91,7.91,0,0,0-3-.1c-8.7,2.22-16.37-1-24-4.45-6.14-2.79-8.33-10.87-3.73-14.87l2.51,3c6.12,7.29,20.34,9.45,28.39,4.3,7.34-4.69,7.34-4.69,9.79,3.41.06.19.51.25.78.38,4.23-7.8,4-22.52-2.57-30.66-2.73-3.38-4.45-3.4-6.62.4-1,1.72-1.92,3.47-3.48,6.31-1.87-5.11-3.89-8.75-4.4-12.58-.45-3.29-1.72-4.35-4.59-4.5-3-.16-3.78,1.59-4.27,4.29C1201.47,946,1200.12,949.83,1199.05,953.69Zm12.5-22.09c2.64.36,5.43.42,4.36-3.57-1.42-5.28-2.77-10.61-4.6-15.76-1.68-4.71-4.72-5.07-7.26-.69a151.36,151.36,0,0,0-7.69,16.16c-1.18,2.77.4,3.94,3.23,3.89C1203.57,931.54,1207.56,931.6,1211.55,931.6Zm-6.81,104.5v.15c3-.28,6-.22,8.84-1,1.16-.31,2.82-2.63,2.58-3.66-1.85-8.19-9.66-11-16-5.71-2.44,2-3.79,5.36-5.64,8.1,3.07.73,6.15,1.46,9.23,2.17A3.7,3.7,0,0,0,1204.74,1036.1Zm-15-12.49,2.42,1.15c2.46-2.92,6.13-5.56,6.92-8.87.49-2.09-3.33-5.21-5.22-7.86l-2.42.63Q1190.6,1016.13,1189.74,1023.61Zm32.85-2.72c-.6-4.74-1.19-9.49-1.84-14.71C1211.44,1011.14,1211.86,1015.31,1222.59,1020.89Zm-12.27-18.42-1.16-1.5-6,.76-.66,1.32c1.49,1.17,2.9,3,4.5,3.23C1207.94,1006.39,1209.2,1003.83,1210.32,1002.47Z"/><path class="cls-2" d="M1210.54,966.8c-1.26.67-2.76,2.11-3.74,1.82-1.55-.47-2.75-2.09-4.09-3.22,1-1,2.14-3,2.92-2.82,1.79.32,3.39,1.67,5.07,2.6C1210.65,965.72,1210.6,966.26,1210.54,966.8Z"/></g><g id="Layer_10" data-name="Layer 10"><rect class="cls-3" x="621.67" y="995.51" width="203.99" height="147.93" rx="5.67"/></g><g id="Layer_11" data-name="Layer 11"><rect class="cls-3" x="36.89" y="838.27" width="1338.09" height="754.24"/></g><g id="Layer_9" data-name="Layer 9"><rect class="cls-4" x="503.62" y="678.9" width="1346.13" height="987.33"/></g><g id="Layer_8" data-name="Layer 8"><rect class="cls-3" x="645.21" y="909.76" width="832.12" height="630.39"/></g><g id="Layer_7" data-name="Layer 7"><path class="cls-2" d="M686.06,1289.23c3.28-1.86,1.84-5.57,3.5-8.86,1.1,2.56,1.94,4.51,3,7l12.31-12.68H711c30.49,0,61,0,91.48-.15,22-.11,43.95-.44,65.93-.67,1.66,0,3.32,0,4.24,0l14,12.06,2.23-2.13c.07,5.61,3,9.22,6.48,12.75,8.69,9,17.13,18.15,25.77,27.14,9.45,9.84,19,19.54,28.52,29.34q12.32,12.75,24.52,25.6a37.46,37.46,0,0,1,2.7,3.72,44.72,44.72,0,0,1-4.52.52c-6.63,0-13.25,0-19.87,0s-13.33-.06-20,0c-18,.19-35.94.51-53.92.6-7.64,0-15.28-.74-22.91-.56-60,1.42-119.94.06-179.89,1.09-22.47.38-44.93.22-67.4.67-1.61,0-3.23,0-5.41,0a23.17,23.17,0,0,1,1-3.19,7.11,7.11,0,0,1,1.34-1.47q8.91-9.43,17.84-18.85c7.81-8.19,15.68-16.33,23.48-24.54q17.68-18.64,35.29-37.35c.79-.84,1.33-2,2.17-2.72C686.22,1294.56,687.27,1292.31,686.06,1289.23Zm187.75-12.37c-1.29-.1-1.78-.16-2.28-.16q-65,.08-129.93.19c-4.15,0-8.29.54-12.43.52-5.65,0-11.29-.44-16.93-.5a59.62,59.62,0,0,0-6.88.7c-3.71,4.09-7.26,8-10.43,11.49v11.57L693,1303c-.94,2.11,2.18,4.57-.59,6.6-2.2-2.3-.72-5.31-2-8l-4.81-3.35c-5.79,6.15-11.47,12.2-17.17,18.23q-18.18,19.21-36.37,38.42-11.51,12.13-23,24.26a7.88,7.88,0,0,0-.95,1.55c.38.42.57.85.8.87,1.66.13,3.31.26,5,.25,50.45-.31,100.9-.76,151.35-.91q99.94-.3,199.89-.21a33.79,33.79,0,0,0,3.49,0,21.18,21.18,0,0,0,3.09-.84,33.45,33.45,0,0,0-2.29-3.11c-7-7.38-13.93-14.77-21-22.08q-19.41-20.12-38.91-40.17c-3.69-3.83-7.28-7.76-10.93-11.62-2.27-2.4-4.57-4.75-7.09-7.37-1.35,2.43-2.31,4.51-3.57,6.36-1.39,2,.19,5-2.87,7.65.51-7.57-1.91-14,.17-20.43Z"/><path class="cls-2" d="M769.93,1280c.55,2.47.89,4,1.36,6.14l2.53,3v10.19l-2.49,2.14c-1.21,2.45.86,5.64-1.81,8.22-1.18-3.68.46-7.94-3.23-9.78-.37-3.12-.69-5.75-1-8.38a4.12,4.12,0,0,1,0-2C766.64,1286.64,768.07,1283.81,769.93,1280Z"/><path class="cls-2" d="M726.28,1288.23l1.61-2c.93-1.67-.46-3.88,1.64-5.21,2.07,1.09,1,3.28,1.78,5.1l2.56,3.08v11.54l-1.7,1.94c-.13,2.32-.26,4.59-.46,7.95-2.53-3.28-1-6.33-2.25-9l-3.18-2.2Z"/><path class="cls-2" d="M848.19,1283.4c2.23,5.4,3.61,10,2.32,15l-3.26,10.95c-.32-.08-.59-.11-.59-.16-.33-5.35-2.38-10.59-1.56-16C845.58,1290.09,847,1287.12,848.19,1283.4Z"/><path class="cls-2" d="M811.26,1298.91l-3.1,10.56a26.74,26.74,0,0,1-.92-2.86c-.42-2.24-.78-4.49-1.15-6.74-.87-5.34.38-10.27,2.83-15C810.11,1289.44,813,1293.57,811.26,1298.91Z"/></g><g id="Layer_6" data-name="Layer 6"><path class="cls-2" d="M542.53,986.76c14.7-16,27.44-19.17,28.83-19.8,37.43-16.92,87,5.91,93.34,46.58,3.51,22.46-1.84,46.68-5.69,69.69-1.1,6.55-16.77,13.09-15.76,17.15,4.45,17.86,12.88,34.69,19.21,52.13,4.2,11.56,10.81,23.9,9.64,35.19-.78,7.5-13,19-20.77,19.61-21.73,1.61-43.83-1.23-65.74-2.88-19.81-1.49-31.76-21.65-27.67-45.82,1.71-10.15,2.28-20.72,5.58-30.34,8.68-25.29-8.22-38.54-22.71-53.88-20.62-21.83-19.88-68.33,1.74-87.63"/></g><g id="Layer_3" data-name="Layer 3"><rect class="cls-3" x="324.73" y="839.86" width="1347.18" height="759.84"/></g><g id="Layer_4" data-name="Layer 4"><rect class="cls-3" x="992.16" y="1003.65" width="487.56" height="387.89"/><rect class="cls-5" x="992.16" y="1003.65" width="487.56" height="387.89"/></g><g id="Layer_5" data-name="Layer 5"><rect class="cls-3" x="639.29" y="1267.63" width="227.62" height="169.7"/></g></svg>