<?xml version="1.0" encoding="utf-8"?>
<!-- Generator: Adobe Illustrator 25.0.0, SVG Export Plug-In . SVG Version: 6.00 Build 0)  -->
<svg version="1.1" id="Layer_10" xmlns="http://www.w3.org/2000/svg" xmlns:xlink="http://www.w3.org/1999/xlink" x="0px" y="0px"
	 viewBox="0 0 1998.4 2437.8" style="enable-background:new 0 0 1998.4 2437.8;" xml:space="preserve">
<style type="text/css">
	.st0{fill:none;stroke:#FFFFFF;stroke-width:3;stroke-miterlimit:10;}
	.st1{fill:#FFFFFF;}
</style>
<path class="st0" d="M1227.6,1361.6c-70.8-0.1-141.6-0.1-212.5-0.1c-4.2,0-4.2,0-4.2-4.1c0-161.3,0-322.6,0-483.9c0-0.7,0-1.3,0-2
	c-0.2-1.4,0.2-2.2,1.8-2c1.2,0.1,2.3,0.1,3.5,0h478.4c1.7,0,3.8-0.5,4.8,0.3s0.5,3.1,0.5,4.7c0,80.3,0,160.7,0,241
	c0,80.5,0,161,0,241.4c0,4.6,0,4.6-4.7,4.6C1412.4,1361.6,1310.4,1361.6,1227.6,1361.6"/>
<path class="st1" d="M1508,1042.7c0-1.2-0.1-2.3,0-3.5c0.1-2,0.7-2.2,3-2.1c1.1,0,2.3-0.6,3.4-0.4c1.9,0.4,3.7,1.8,5.7,0
	c0.3-0.2,1.4,0.5,2.1,0.7c1.6,0.4,3.4,2.4,4.8-0.3c1.6-0.2,3.1-0.2,4.7-0.1c2.9,0.6,3,0.7,5.2-1.7c0.4-0.4,1-0.6,1.6-0.5
	c0.6,0.2,1,0.9,1.4,1.4c1.2,1.3,2.2,2,4.2,0.9s4.1-1.1,5.8,0.9c0.5,0.3,1,0.5,1.6,0.5c1.2-2.6,3.2-0.6,4.9-0.9s3.3,0.1,5.2-0.8
	c2.6-1.3,4.3,0.2,4.4,3.2c0.2,1.2,0.5,2.5,1,3.6c0.6,2-0.6,3.7-2.8,4c-1.2,0.1-2.3,0.1-3.5,0c-2.1-0.1-3.2-1.6-2.6-3.6
	c0.2-0.6,0.9-1.4,0.8-1.6c-0.6-0.7-1.3-1.3-2.1-1.8c-0.3,0.5-0.6,0.9-0.8,1.4c-0.3,0.6-0.5,1.1-0.7,1.7c-0.1,0.4-3.9,2.7-4.2,2.9
	c-1.9,1.3-4,0.9-6.1,1c-1.6,0-3-1-4.7-0.1c-0.9,0.4-2,0.4-2.8-0.1c-0.5-0.4-0.3-1.8-0.5-2.7c-0.2-0.9-0.6-1.7-1-2.6
	c-0.3-0.1-0.6-0.1-0.9,0.1c-0.5,0.6-0.9,1.3-1,2.1c0.1,2.6-1.1,3.5-3.6,3.4c-0.5,0-0.8,0.9-1.8,0.2c-1.6-1.2-3.4-2-5.6-0.4
	c-1,0.8-2-0.1-2.1-1.6c0-1.7,0-3.3-0.2-4.9c-0.1-0.5-0.9-0.9-1.3-1.4c-0.2,0.4-0.3,0.9-0.5,1.3c-0.3,1.5-0.7,3.1-1,4.6
	c-0.2,0.8,0.5,2.1-1.2,2.1c-1.5,0-2.6-0.6-2.8-2.1s0-3.3,0-5c-0.1-0.3-0.2-0.6-0.4-0.8c-0.3,0.3-1,0.5-1,0.9
	c-0.3,1.4-0.5,2.8-0.5,4.3c0,1.2-0.6,2.3-1.7,2.8c-0.8,0.4-1.8,0.1-2.2-0.7c-0.1-0.2-0.2-0.4-0.2-0.6
	C1507.9,1045,1508,1043.8,1508,1042.7z M1540.7,1040.7c-0.1,0-0.3,0.1-0.4,0.1c0,1.2,0,2.4,0,3.6c0,0,0.3,0.1,0.3,0
	c0.5-0.6,1.2-1.2,1.3-1.8S1541.1,1041.3,1540.7,1040.7L1540.7,1040.7z M1548,1044.4c-0.2-0.4-0.4-0.8-0.5-0.8
	c-0.4,0.1-0.9,0.2-1.3,0.3c0.1,0.2,0.2,0.6,0.4,0.6C1547,1044.5,1547.5,1044.4,1548,1044.4L1548,1044.4z M1531,1043.8
	c-0.5-0.1-0.9-0.2-1.4-0.2c-0.1,0-0.2,0.4-0.4,0.6c0.4,0.1,0.9,0.2,1.3,0.3C1530.5,1044.5,1530.7,1044.1,1531,1043.8L1531,1043.8z
	 M1562.8,1043.9l-0.3-0.3c-0.1,0.2-0.2,0.4-0.3,0.7c0,0.1,0.2,0.2,0.3,0.3L1562.8,1043.9z"/>
<path class="st1" d="M994,1006.6c2.1,1,3.3,2.4,3,5c-0.1,2.1-1.8,3.8-3.9,4c-1.8,0.1-3.7-0.1-5.5,0.1c-0.9,0.2-1.7,0.7-2.4,1.3
	c-0.2,0.2,0.1,1.5,0.3,1.5c1.8,0.4,3.6,0.6,5.4,0.6c3.3-0.2,5.7,1.5,6,4.7c0.1,1.8,0.1,3.7,0,5.5c0,0.3,0,0.6-0.2,0.9
	c-1,2.2-7.2,4.8-9.6,4.1c-5.8-1.7-7.9-6.5-5.3-12.3c0.3-0.7,1-1.4,0.9-2c-0.3-0.9-0.7-1.7-1.3-2.4c-0.5-0.6-1.1-1.2-1.7-1.8
	c-2.3-2.3-2.2-2.3,0.2-4.8c0.6-0.7,1-1.5,1.4-2.4c0.5-0.9,1.6-1.3,2.6-1c0.7,1.4,1.5,2.6,2.5,3.8c0.4,0.3,2-0.9,2.8-0.7
	C992.9,1011.5,993,1008.6,994,1006.6z M993,1026.3c0.1-0.7,0-1.3,0-2c-0.2-0.4-0.5-0.7-0.9-0.8c-0.6,0-1.5,0-1.8,0.3
	c-0.9,1.1,0,4,1.3,4.6c0.3,0.1,1.1-0.3,1.4-0.8S993,1026.8,993,1026.3z M986,1026c-0.1-0.2-0.4-1.3-0.8-1.4
	c-1.6-0.3-1.1,1.1-1.2,1.9c-0.1,0.5-0.1,1,0,1.5c0.1,0.3,0.4,0.5,0.7,0.5c0.4-0.1,1-0.2,1.2-0.5S986,1027,986,1026L986,1026z"/>
<path class="st1" d="M988,990.6c-1.5,0-3,0.1-4.5,0c-1.8-0.1-3.3-1.8-2.4-3.3c1-1.7,1.5-3.2,0.2-4.9c-0.1-0.2-0.1-0.5,0-0.7
	c1.5-2,1-3.5-0.1-5.6c-0.9-1.7-0.6-4.3-0.1-6.3c0.2-1.2,1.8-2.1,2.7-3.2c0.8,0.6,1.5,1.4,2.1,2.2c0.6,1.2,0.9,0.5,1.2,0
	s0.5-1.1,0.8-1.7c1.5-2,4.3-2.3,6.2-0.9c0.1,0,0.1,0.1,0.1,0.1c2,1.8,3.7,7,2.5,9.4c-1,1.5-2.3,2.8-3.8,3.7c-1,0.7-2.1-0.2-2.1-1.6
	c-0.2-1.1,0.3-2.3,1.2-3c1.4-1.1,0.8-2.6,0.6-4c0-0.1-0.3-0.2-0.3-0.2c-0.8,1.2-2.7,1.6-2.4,3.5c0.4,2.9-1.9,4.6-3.7,5.2
	c-2.6,0.9-1.1,2.5-1.2,3.6c-0.1,0.8,1.2,1.8,2.6,1.6c2-0.2,4-0.2,6,0c2.2,0.2,3.2,1.1,3.2,2.6c0.2,1.6-0.9,3.1-2.5,3.3
	c-0.2,0-0.3,0-0.5,0C992,990.7,990,990.6,988,990.6z M986.2,972.7c-0.3-0.8-0.6-1.4-0.9-2c-0.9,0.8-1.8,1.5-1.3,2.8
	c0.2,0.4,0.8,0.7,1.2,1L986.2,972.7z"/>
<path class="st1" d="M988.3,1060.6h-3.5c-4.1,0-4.8-0.9-3.4-4.8c0.4-0.8,0.4-1.7,0-2.5c-0.4-1.5-0.4-3.1,0-4.6
	c0.6-1.8,0.5-3.7-0.2-5.5c-1.4-3.6,1.6-7.6,5.4-7.7c2.5,0,5,0,7.5,0c1.9,0,2.8,1,2.8,2.5s-1,2.4-2.9,2.4s-3.7,0-5.5,0
	c-3.1,0-3.8,0.8-3.6,3.7c0,1.2,0.6,1.3,1.5,1.3c2.2,0,4.3,0,6.5,0c2.9,0,3.9,0.6,4,2.4c0.1,1.9-1,2.6-4.2,2.6c-1.7,0-3.3,0-5,0
	s-3.4,1-3.5,2.2s2,2.8,3.7,2.8c2,0,4,0,6,0s2.9,0.9,3,2.3c0.1,1.7-0.9,2.6-3.2,2.7C991.9,1060.6,990.1,1060.6,988.3,1060.6z"/>
<path class="st1" d="M984.1,1095.6c2.7-0.1,5.3,0.6,7.6,2c2.8,1.6,4.5,4.6,4.2,7.8c-0.5,3.5-2.8,6.5-5.9,7.2c-2.3,0.5-4.7,0.7-7,1
	s-4.5-0.8-6.7-1.9c-2.1-0.9-3.4-2.9-3.3-5.1C972.5,1099.5,976.6,1095.5,984.1,1095.6z M983.6,1107.6h5c1.2,0.1,2.2-0.8,2.3-2
	c0,0,0,0,0,0c0.1-1.2,0.5-2.9-1-3.5c-2.1-0.6-4.2-1.1-6.3-1.5c-1.1,1.5-2.7,0.9-4.1,1c-1.7,0.2-2.5,1-2.5,2.8
	c-0.1,2.2,0.6,3,2.7,3.1C981,1107.6,982.3,1107.6,983.6,1107.6z"/>
<path class="st1" d="M982.6,1175.6c-2.1,0.4-4.1-0.8-6.3-1.9c-2.5-1.2-2.9-3-3.4-5.1c-0.1-0.5-0.1-1,0-1.5c0.2-1.6-0.6-3.2,0.7-4.7
	c2-2.3,4.8-4.7,7-4.7c3.8-0.1,7.7-0.7,11.2,1.8c1.5,1.1,2.7,1.9,3.2,3.8c0.6,2.1,1.4,3.9,0,6.2c-1.7,2.8-3.3,5.2-7,5.2
	c-0.9,0-1.7,0.7-2.6,0.9C984.5,1175.6,983.6,1175.6,982.6,1175.6z M983.5,1169.6c1.7,0,3.5,0.4,4.9-0.2c0.8-0.3,2.7-0.2,2.6-2.2
	c0-2.3-0.3-2.9-2.2-3.7c-3.1-1.3-6.5-1.3-9.6,0c-1.9,0.7-2.4,1.6-2.2,3.7c0.2,1.5,1.1,2.2,3,2.3
	C981.2,1169.6,982.3,1169.6,983.5,1169.6z"/>
<path class="st1" d="M973,1123.8c0-4.6,1-5.8,5.7-7.4c1.7-0.6,3.5-1.2,5.2-1.8c0.3-0.1,6.7,1.8,7.1,2c2.1,1.1,3.8,3,4.7,5.3
	c1.1,2.2,0.3,4.5-0.9,6.3c-1.1,1.5-2.4,2.8-3.8,3.9c-0.3,0.3-0.6,0.4-1,0.5c-1.5,0.3-3.3-0.7-4.6,1c-2.3-1.8-5.3-0.3-7.8-1.7
	C974,1129.8,972.9,1128.3,973,1123.8z M984.3,1120.5c-2.2-0.3-4.5,0.3-6.3,1.6c-1.7,1.4-1.1,3.6,0.8,4.8c2.2,1.3,4.5,0.5,6.7,0.6
	c1.4,0,2.8-0.4,4-1c1.6-0.7,1.5-2.3,1.5-3.8c0-1.8-1.7-1.3-2.5-1.8C987.5,1120.2,985.7,1120.6,984.3,1120.5L984.3,1120.5z"/>
<path class="st1" d="M1542.5,973.6c1.3-0.1,2.7-0.1,4,0c0.9,0.1,2.5-0.9,2.5,1.3c0,2.5-0.6,3.5-2.7,3.7c-0.8,0.1-1.7,0-2.5,0
	c-0.7-0.1-1.3-0.1-2,0c-0.7,0.4-1.3,0.9-1.9,1.5c0.8,0.5,2,1.6,2.3,1.4c1.3-0.9,2.3-1.2,3.9-0.3c1.6,0.7,2.9,1.9,3.8,3.3
	c1.7,2.8,1.2,6.4-1.1,8.7c-4.5,4.7-6.9,4.2-12.1,1.3c-1.4-0.7-2-2.4-1.3-3.9c0.3-0.7,0.8-1.7,0.5-2.2c-2-4.4,1-8.8,0.1-13.1
	c-0.2-1.2,0.2-1.8,1.6-1.7C1539.2,973.6,1540.8,973.6,1542.5,973.6z M1546,988.3c-0.1-1.1-2-2.8-3-2.8c-1.4,0-3.9,1.9-4,2.9
	s2.5,3.3,3.8,3.1S1546,989.3,1546,988.3L1546,988.3z"/>
<path class="st1" d="M985,1138.6c0.5,0,1,0,1.5,0c1.5,0.2,3.3-0.1,4.4,0.6c2.5,1.5,4.3,4,4.9,6.9c0.3,1.7,0,3.5-0.9,5
	c-1.7,2.3-3.7,4.5-7,4.6c-1.1,0-2.2-0.4-3.2,0.7c-0.5,0.5-5.1-0.7-6.7-1.2c-2-0.6-3.7-2.1-4.7-4c-0.7-2.2-0.8-4.6-0.1-6.8
	c0.3-1.7,1.5-3.2,3.1-3.9c1.9-0.8,3.5-2.1,5.8-1.8C983,1138.6,984,1138.6,985,1138.6z M983.7,1150.6c1.5,0,2.7,0,3.8,0
	c1.5-0.1,3.5-2,3.5-3.4c-0.3-1.8-1.6-3.2-3.3-3.6c-2.1-0.2-4.3-0.2-6.4,0c-1.2,0.2-2.3,0.8-3.3,1.6c-1.8,1.3-1.1,3.5,0.8,4.8
	C980.5,1151.1,982.3,1150.1,983.7,1150.6L983.7,1150.6z"/>
<path class="st1" d="M1536,1013.8c-0.2,1.8,0,3.6-0.9,5.5c-1.4,3.2-3.9,4.6-6.9,5.1c-3.5,0.6-5.7-1.8-7.8-4
	c-0.2-0.2-0.5-0.6-0.4-0.8c0.7-2.4-1.2-4.3-1-6.6c0.2-2.2,0.5-4.4,1-6.6c0.5-2.3,3.8-5.1,6-5c1.8,0.1,3.8-0.8,5.6,1
	c2.9,3,4.3,5.1,4.4,8.2C1536,1011.7,1536,1012.7,1536,1013.8z M1525,1012.9c0,1.3,0,2.6,0,4s2.1,3.9,2.6,3.5c1-0.8,2.5-0.9,2.9-2.6
	c0.5-2.1,0.8-6.4-0.2-8.3c-0.6-1.1-1.3-2.1-2.1-3.1c-0.2-0.2-0.9-0.5-1-0.4c-0.9,0.9-1.6,1.9-2.2,3
	C1524.8,1010.3,1524.8,1011.6,1525,1012.9z"/>
<path class="st1" d="M985.2,1076.6c3.2-0.6,6.6,0.6,8.5,3.3c1.5,1.9,2.8,4.2,2.1,6.5c-0.6,2-1.2,4.1-3.5,5.5
	c-4.1,2.4-6.7,2.6-11.9,1.9c-2.7-0.2-5.2-1.8-6.5-4.2c-3.5-6,1.7-12.5,7.2-13C982.3,1076.5,983.5,1076.6,985.2,1076.6z
	 M983.5,1088.6c1.3,0,2.7,0.1,4,0c2.2-0.2,3.9-2.1,3.7-4.3c0-0.4-0.1-0.7-0.2-1.1c-0.1-0.3-0.4-0.5-0.6-0.6c-3.9-1.4-8.2-1.4-12,0.2
	c-1.1,0.4-1.8,2.5-1.3,3.9c0.3,1.2,1.3,1.9,2.5,1.9C980.8,1088.5,982.1,1088.6,983.5,1088.6L983.5,1088.6z"/>
<path class="st1" d="M984,1007.6c-0.2-0.7-0.2-1.8-0.7-2.2c-3.5-2.4-1.9-6-2.3-9c1.4-1.3,2.8-2.6,4.2-3.8c1.1-0.9,2.3-1.8,3.8-0.5
	c0.7,0.4,1.5,0.6,2.3,0.5c1.5-0.2,3,0.4,3.8,1.7c0.8,1,2,1.6,1.9,3.2c-0.2,2.7,0.5,5.5-1.4,7.9c-0.5,0.5-1.1,0.9-1.7,1.2
	c-0.9,0.1-2.1-0.1-2.8,0.4c-1.4,1-3.1,1.1-3.9,0.2C985.7,1005.6,985,1007.6,984,1007.6z M993,1000.6c0.1-2.3-0.9-4.2-1.6-3.9
	c-1.3,0.7-1.4,1.9-1.4,3.3s0.7,1.7,1.8,1.5C992.2,1001.4,992.7,1000.8,993,1000.6L993,1000.6z M986,1000.2c0-0.4,0-0.9,0-1.3
	c-0.1-0.4-0.3-0.9-0.5-1.3c-0.3,0.3-0.9,0.6-1,1c-0.2,0.9-0.3,1.8-0.3,2.6c0,0.1,0.5,0.3,0.8,0.3s0.7-0.1,0.8-0.3
	C985.9,1000.9,986,1000.5,986,1000.2z"/>
<path class="st1" d="M1518,1013.1c0,2.5,0,5,0,7.5c0,0.8-0.2,1.5-0.7,2.2c-0.7,0.8-1.5,2.4-2.6,1.7s-2.6-1.5-2.6-3.3
	c0-3.5,0-7,0-10.5c0-2.1,0-2.1-2.3-1.3c-0.8,0.3-1.6,0.4-1.7-0.8c-0.1-1.5-0.1-3,1.4-3.9c1.2-0.8,2.3-1.7,3.5-2.4
	c2.3-1.5,4.8-0.4,5,2.4S1518,1010.2,1518,1013.1z"/>
<path class="st1" d="M987.3,1182.6c-2-0.1-4-0.1-6,0.1c-1.3,0.1-2.9,0.5-1.4,2.6c0.5,1.1,0.1,2.4-1,2.9c0,0-0.1,0-0.1,0
	c-0.5,0.2-1.4,0.3-1.6,0c-1.6-1.9-3-4-4.1-6.3c-1.1-2.6,0.4-4.3,3.4-4.3c5.2,0,10.3,0,15.5,0c2.2,0,2.9,0.8,3,2.9s0.1,2.1-2.2,2.1
	C991,1182.6,989.1,1182.6,987.3,1182.6z"/>
<path class="st1" d="M991,1132.6c1.9,1,3.7,2.4,5.8,2.9s1.4,2,1.1,2.6s-1.2,2.4-2.6,1.2s-2.9-0.3-4.2-0.7c0-0.5,0.2-1.2,0-1.4
	C989.2,1135.5,990,1134.1,991,1132.6z"/>
</svg>
