<svg id="Layer_13" data-name="Layer 13" xmlns="http://www.w3.org/2000/svg" viewBox="0 0 1998.43 2437.8"><defs><style>.cls-1{fill:#fff;}</style></defs><path class="cls-1" d="M1145.2,889.75c3.49-1,6.6-2.2,9.83-2.64,5-.69,8.1,2.84,7.29,7.87a4.64,4.64,0,0,1-.23,1.48c-8.12,14.58-.65,28.11,3,41.82,1.45,5.43,3.94,10.58,6.05,15.83a13.64,13.64,0,0,0,2.12,2.68c1.21-2.11,2.1-3.79,3.1-5.4,7.13-11.36,14.33-22.67,21.41-34,2.53-4.07,4.46-8.54,7.26-12.4s6.18-3.85,8.81.32a47.65,47.65,0,0,1,5.43,11.72c3.15,10.7,6.42,21.25,12.78,30.65,2.07,3,3,6.87,4.91,11.42a37.88,37.88,0,0,0,3-4.79c7.31-18,14.66-36,18.21-55.32a65.68,65.68,0,0,1,2.61-9.64c1.92-5.54,6.11-7.22,11.47-4.83,7.88,3.51,8.34,4.5,3.72,11.86-2.37,3.76-5.57,7-8.31,10.55-3,3.89-6.88,7.47-8.71,11.88-6.06,14.57-11.34,29.47-17,44.21-3.39,8.85-6.54,17.82-10.5,26.42-3.46,7.49-3.42,15.16-3,23,.5,9.46.06,19.13,2,28.3,2.22,10.64,7.1,20.7,9.83,31.28a204.88,204.88,0,0,1,5.92,31.78c1,10.82-2.77,20-13.73,24.73-3.4,1.46-3.36,4-2.55,7.08,1.41,5.28,2.59,10.62,4,15.92s-.55,9-5,11.81c-3.5,2.24-6.71,4.94-10.28,7-1.14.67-3,.09-4.55.09.5-1.45.6-3.33,1.59-4.27a54.24,54.24,0,0,1,7.92-6c2.86-1.83,4.27-4,3.33-7.48-.82-3-1.84-6.14-2-9.25-.47-10.88-8.22-14.11-16.82-16.37-1.56-.41-3.55.24-5.18.82a121.86,121.86,0,0,0-12.78,5.09,10.22,10.22,0,0,0-4.44,4.48c-1,2.18-1,4.84-1.55,7.28-2.38,11.37-1.79,12.74,8.07,18.58a6.89,6.89,0,0,1,1.73,1c1.61,1.78,4.78,4.28,4.37,5.36-1.42,3.68-5.09,2-7.27.83a51.22,51.22,0,0,1-12.06-8.57c-1.7-1.74-2.11-5.5-1.86-8.24.56-6.11,2.16-12.13,2.75-18.24.21-2.12-.66-5.59-2.17-6.44-17.24-9.76-16-32.31-10.27-47,5-12.84,9.94-25.77,14-38.93,1.78-5.74,1.39-12.15,1.89-18.27.45-5.47.94-11,1.06-16.44a24.61,24.61,0,0,0-1-8.29q-14.79-43.93-29.9-87.76c-2.05-5.92-4.93-11.55-7.27-17.37C1145.51,893.38,1145.52,891.66,1145.2,889.75ZM1204,1056.4l-.67,0c0-.83,0-1.66,0-2.5-.27-11.28-.59-11.8-11.71-12.08-1.87,0-4.93,1.85-5.51,3.51-5.63,16.15-11.21,32.34-16.06,48.74-2.73,9.26-1,18.11,6,25.49a17.47,17.47,0,0,0,18.75,4.88c6.47-2,7.56-8.1,7.7-14.31C1203,1092.21,1203.52,1074.3,1204,1056.4Zm3.46,37.41c.27,3.55.6,9.52,1.19,15.46,1.12,11.09,6.28,15.35,17.41,13.62,8.91-1.38,15.78-6,16.06-14.31.15-4.43.08-9.13-1.19-13.31-5.2-17.13-10.85-34.12-16.53-51.1-.38-1.13-2.39-2.23-3.75-2.38-2.1-.23-4.28.52-6.43.59-3.74.13-5.14,1.88-5.23,5.64C1208.67,1062.48,1208.07,1076.94,1207.48,1093.81Zm-8.43-140.12-2.17-.15c-.22-1.13-1-2.56-.56-3.33,2.11-3.84-.71-6-3.09-7.15-1.72-.81-5.14-.17-6.63,1.15-2.78,2.46-5.59,5.55-6.83,8.95-6,16.37,5.09,35.23,22.26,37.76,5.51.81,11.56,1.6,16.79-2.76-.69-.47-1-.9-1.46-1a7.91,7.91,0,0,0-3-.1c-8.7,2.22-16.37-1-24-4.45-6.14-2.79-8.33-10.87-3.73-14.87l2.51,3c6.12,7.29,20.34,9.45,28.39,4.3,7.34-4.69,7.34-4.69,9.79,3.41.06.19.51.25.78.38,4.23-7.8,4-22.52-2.57-30.66-2.73-3.38-4.45-3.4-6.62.4-1,1.72-1.92,3.47-3.48,6.31-1.87-5.11-3.89-8.75-4.4-12.58-.45-3.29-1.72-4.35-4.59-4.5-3-.16-3.78,1.59-4.27,4.29C1201.47,946,1200.12,949.83,1199.05,953.69Zm12.5-22.09c2.64.36,5.43.42,4.36-3.57-1.42-5.28-2.77-10.61-4.6-15.76-1.68-4.71-4.72-5.07-7.26-.69a151.36,151.36,0,0,0-7.69,16.16c-1.18,2.77.4,3.94,3.23,3.89C1203.57,931.54,1207.56,931.6,1211.55,931.6Zm-6.81,104.5v.15c3-.28,6-.22,8.84-1,1.16-.31,2.82-2.63,2.58-3.66-1.85-8.19-9.66-11-16-5.71-2.44,2-3.79,5.36-5.64,8.1,3.07.73,6.15,1.46,9.23,2.17A3.7,3.7,0,0,0,1204.74,1036.1Zm-15-12.49,2.42,1.15c2.46-2.92,6.13-5.56,6.92-8.87.49-2.09-3.33-5.21-5.22-7.86l-2.42.63Q1190.6,1016.13,1189.74,1023.61Zm32.85-2.72c-.6-4.74-1.19-9.49-1.84-14.71C1211.44,1011.14,1211.86,1015.31,1222.59,1020.89Zm-12.27-18.42-1.16-1.5-6,.76-.66,1.32c1.49,1.17,2.9,3,4.5,3.23C1207.94,1006.39,1209.2,1003.83,1210.32,1002.47Z"/><path class="cls-1" d="M1210.54,966.8c-1.26.67-2.76,2.11-3.74,1.82-1.55-.47-2.75-2.09-4.09-3.22,1-1,2.14-3,2.92-2.82,1.79.32,3.39,1.67,5.07,2.6C1210.65,965.72,1210.6,966.26,1210.54,966.8Z"/></svg>