<?xml version="1.0" encoding="utf-8"?>
<!-- Generator: Adobe Illustrator 25.0.0, SVG Export Plug-In . SVG Version: 6.00 Build 0)  -->
<svg version="1.1" id="Layer_20" xmlns="http://www.w3.org/2000/svg" xmlns:xlink="http://www.w3.org/1999/xlink" x="0px" y="0px"
	 viewBox="0 0 1998.4 2437.8" style="enable-background:new 0 0 1998.4 2437.8;" xml:space="preserve">
<style type="text/css">
	.st0{fill:none;stroke:#FFFFFF;stroke-miterlimit:10;}
	.st1{fill:#FFFFFF;}
</style>
<path class="st0" d="M615.7,1170.8c-3.2,0-6-0.2-8.8,0c-2.4,0.2-4.8-0.2-7-1.2c-3.3-1.7-7-2.3-10.7-1.8c-4,0.4-7.8-0.7-11.5-1.3
	c-2.3-0.4-4.5-1-6.7-1.8c-2.2-0.6-4.4-1.4-6.5-2.3c-1.7-0.9-2.8-0.5-4.5-0.1c-3.2,0.7-5.8,2.5-8.2,4.4c-3.7,2.9-12.1,4.3-15.4,4
	c-0.3,0-0.6-0.1-0.9-0.2c-3.3-1.3-6.8-2.3-9.9-3.9c-6.5-3.6-12.9-7.4-19.3-11.3c-2.4-1.4-4.7-3.1-7.1-4.6c-4-2.5-7.8-5.2-12-7.3
	c-5-2.5-9.2-6.4-14.4-8.8c-2.7-1.2-5-3.2-7.3-4.8h-2.5c-2.9,1.1-1.2,3.5-2.4,5.1l-3-1.4c-1.5,2.3-2.7,4.6-2.4,7.2
	c0.2,1.8,1.5,3.3,3.3,3.6c-0.5,1.6-1,3.1-1.4,4.3c-2.5,0.2-4.4,0.1-6.1-0.9c-0.4-0.2-1.2,0.1-1.7,0.1v3.8l9.8,5.2v4.3
	c-1.9,2-3.6,4.1-6.5,4.6l-16.8-6.7l-3.6,3.2v3.2l4.1,2.7v5.2c3.9,2,8.6,1.5,11.7,4.6v2.7l-4.1,3.6l1.1,4.8c-1.3,1.2-2.7,2.5-3.9,3.6
	v6.6c1.7,0.9,3.8,1,5.4,1.7c1.9,0.8,4,0.7,5.8,1.7s4.7,0.3,6.3,1.5c2,1.4,4.5-0.6,5.9,1.6c2.3-0.3,4.4,0.7,6.6,1
	c3.6,0.6,6.9,2.3,10.6,2.1c1.7,2,4.2,0.2,6.3,1.7c1.6,1.2,4.3,0.7,6.5,1.2c3.4,0.8,6.9,1.2,10.1,2.2c4.9,1.5,9.9,2.6,14.9,3.8
	c2.5,0.7,5,1.5,7.5,2.2v2.3l-2.2,2.3c0.5,1.8,0.9,3.7,1.2,5.6c0.1,1.7,0.1,3.5,0,5.2l5.1,2.1c-0.5,0.9-0.9,1.9-1.1,2.9
	c-0.2,3.2-0.2,6.3,0,9.5c0.4,3.3-1.1,6.3-1.1,9.6c0,11.8,0.2,23.7,0,35.5s1.1,23.4-1,35.1v45.5c0,15.2,0.1,30.3,0,45.5
	s0.5,30-0.8,45.1c-0.8,8.9-0.3,18-0.1,27s-0.1,17.7,0.7,26.6c1.2,12.2-0.7,24.7,1.5,37.3c4.1-0.6,8.3,0.9,12.2-1.2l1.8,4
	c2.7,0.5,4.7-0.6,6.5-2.3s3.7-3.8,6-4.8c2.6-1.2,4-3.6,6.4-4.9c2.9-1.6,5.2-4.3,7.6-6.3v-4.5l-4.3-2.8l-4.2,0.9
	c-0.5-3.5-0.9-6.6-1.2-9.2l-4.1-3.2c-0.3-4.3,1-8,1.9-11.9c0.5-2.5,0.3-5,1-7.6s0.3-5.3,1-8.1s0-5.7,1-8.6s-0.4-5.9,0.9-9.1
	c1.1-2.6,0.3-6,1.1-9c0.9-3.7,0.8-7.7,1.1-11.6c0-0.5-0.1-1.2,0.2-1.4c1.5-1.2,0.6-2.8,0.8-4.2c0.4-1.3,0.7-2.7,1-4.1
	c0.4-4.3,0.7-8.7,1-13.1c0-0.5-0.2-1.1,0-1.5c2.1-3.4,0.3-7,0.8-9.4c-1.9-4.1-6-1.9-7.7-4.5c-0.1-2.8,0.5-6-0.6-8.3
	c-1.2-2.7,1-5.7-1.7-8l11.1-7.4v-4l-2.5-3.1l-6.2,0.6c-0.6-1.8-1-3.7-1.2-5.6c-0.2-6-0.2-12,0-18s-0.6-11.7,0.8-17.6
	c1-4.2,0.8-8.7,1.1-13.1c0-0.3-0.1-0.7,0-1c2.2-3.7,0.6-7.8,1.8-11.8s0.9-8.7,1.2-13c0-0.5-0.2-1.2,0-1.5c1.2-1.4,0.8-3,1-4.6
	c0.2-1.7,0.8-3.4,0.9-5.1c0.2-2.9-0.5-5.9,1-8.6c-0.6-5.1,1.7-10,0.9-15.3l-2.5-2.3c-2.2-0.7-5.2,1.2-7.3-1.5V1237l4.6-5.4
	c2.4,0.4,5.3,0.2,7.6,1.4c3.6,1.9,7.5,2.8,11.1,4.7c6.2,3.2,13,4.7,19.2,8c2.9,1.5,6.3,2.4,9.4,3.7c3.3,1.3,6.6,2.6,9.9,3.9
	c4.3,1.8,8.5,3.7,12.8,5.4c6.4,2.6,12.8,5.3,19.3,7.7c3.7,1.4,7.4,3,11.2,4.5c7,2.7,14.3,4.8,21.3,7.8c2.5,1.1,5,2.6,7.7,3.2
	c5.3,1.2,9.9,4.5,15.4,5.1c2.7,2.4,6.3,2.5,9.4,3.9s6.8,2.1,10,3.6s6.7,1.7,9.3,4.2c0.2,0.2,0.6,0.3,0.9,0.3c2.9,0,5.4,1.4,8,2.5
	c0.9,0.3,1.9,0.3,2.8,0.5c0.8,0.3,1.6,0.6,2.3,1l3.4-2l1.5,1.5c-0.5,1.9,0.9,4.2-0.9,5.9c1.5,2.4,2.1,5.2,1.8,8.1l1.7,1.6
	c1.6-0.5,3.3-0.8,5-1.1c5.2-0.4,10.4-0.7,15.6-1c0.5,0,1.1,0.1,1.4-0.2c1.6-1.6,3.5-0.4,5.2-0.8s3.4-0.8,5.1-1
	c3.7-0.4,7.5-0.2,11-1.2c2-0.5,4.1-0.7,6.1-0.9c2-0.2,4-0.8,6.1-0.9c2.7-0.2,5.4,0,8.1-0.9c2.3-0.7,5-0.3,7.6-1c2.4-0.7,5-0.2,7.6-1
	s5.3-0.3,8.1-1c2.5-0.7,5.3-0.5,8.1-1c4.1-0.8,8.4-0.8,12.6-1.1c0.3,0,0.8,0.1,1,0c1.3-1.4,3-0.8,4.6-1s3.4-0.8,5.1-1
	c3.8-0.4,7.7-0.7,11.6-1c0.3,0,0.8,0.1,1,0c2-2,4.4-0.6,6.6-1c2.2-0.5,4.4-0.9,6.6-1c3.6,0,7-1.8,10.6-1.1c1.3-1.4,3-0.8,4.6-1
	s3.4-0.8,5.1-0.9c2.9,0,5.8-0.3,8.6-0.9c2.9-0.7,6-0.2,9.1-1c2.1-0.5,4.3-0.9,6.5-1.1c2.4-0.2,4.7-0.5,7.1-0.9
	c5.5-1,11.1-1,16.7-2.1c2.5-0.5,5-0.1,7.6-0.9c2.4-0.8,5-0.1,7.6-0.9c2.3-0.7,5-0.6,7.5-1.1s5.4-0.5,8.1-1c4.1-0.7,8.4-0.2,12.6-1
	s8.7-0.8,13.1-1.1c0.5,0,1.1,0,1.3-0.3c1.3-1.4,2.8-0.4,4.2-0.7c1.5-0.4,3-0.8,4.6-1c5.9-0.4,11.7-0.7,17.6-1c0.3,0,0.8,0.1,1,0
	c1.9-1.5,4-0.8,6.1-1s4-0.8,6.1-1c3-0.2,6,0,9.1-0.9c2.9-0.8,6-0.2,9.1-1c2.9-0.8,6.1-0.7,9.1-0.9c5.2-0.4,10.3-1.9,15.6-1.2
	c0.7,0.1,1.6,0.3,2,0c1.9-1.5,4.1-0.7,6.1-1c2.2-0.3,4.4-0.7,6.6-1c2.9-0.4,6.2,0.1,8.5-1.2c2-1.2,4.4,0.4,5.9-1.5
	c5.5-0.5,10.5-3.2,16.1-3.4c1.8-0.1,3.7-0.8,5.6-1s3.5-1.1,5.3-1.6c0.4-0.2,0.9-0.2,1.4-0.2c3.5,0,6.8-1.4,10.2-1.8
	s6.8-1.5,10.1-2.2c3.4-0.8,6.8-1.3,10.2-1.7c5.9-0.6,11.1-4.2,17.2-3.2c0.1,0,0.2-0.2,0.4-0.3c3.8-1.4,7.9-1.9,11.9-2.7
	c2.5-0.5,5.1-0.7,7.5-1.2c4.3-0.8,8.8-1.3,12.7-3c2.5-1.1,5-0.5,7.4-1.3c2.9-1,6-1.7,9-2.3c5.4-1.2,10.9-1.3,16.2-3.1
	c4.5-1.4,9.3-1.5,13.8-3c1.5-0.6,3-0.9,4.6-1c4.4,0.2,8.2-2.5,12.6-2.2c1.9-2,4.5-0.5,6.8-1.7c2.1-1.1,5-0.8,7.5-1.2
	c0.8-0.1,1.5-0.4,2.2-0.6c4-0.8,8-1.6,12-2.4c2.5-0.5,5.2-0.4,7.5-1.2c3.9-1.4,8-1.6,11.9-2.7c4.7-1.2,9.6-1.6,14.2-3.1
	c1.6-0.5,3.3-0.3,5.3-0.5l1.1,1.1v8.7h4.8c-0.7,1.2-1.2,2.3-1.9,3.7c0,11.6-0.3,23.6,0.1,35.6s-1.4,24-1.1,36.1
	c0.3,13.7,0.1,27.3,0.1,41s0.2,27.3-0.1,41s0.7,27.1-0.8,40.6c-0.9,8.1-0.2,16.3-0.2,24.4l1.5,1.5h9l2.7,2.7v4.3
	c2.2-0.1,4.4-0.1,6.6,0c2.7,0.4,5.5-0.4,7.6-2.2c2.3-2.2,5.5-3.2,8.7-2.9l4-3.5v-5.4c-1.3-1.1-2.8-2.1-4.3-2.9
	c-3.7-1.5-4.7-4.3-4.6-8.3l2.9-1l3.7-3.2l1.3-5.2c-0.2-0.4-0.9-1-0.8-1.4c0.8-4.5-2.7-8.2-2.1-12.7c-1.8-1.4-0.1-3.7-1.2-5
	c-1.2-1.6-0.1-3.4-0.9-4.6c-1.2-1.7-0.7-3.4-0.9-5.2c-0.2-0.6-0.3-1.2-0.6-1.8c-1.3-4.4-2.7-8.8-2.4-13.5c0.2-3.5-0.1-7,0.1-10.5
	c0-3.2-0.7-6.3-2.1-9.2l2.6-4l4,1.3c2.8-0.6,4.5-2,5.3-5.2v-3.7l-4.2-3.4l3.4-2.7c-0.4-4.2,0.1-7.9-0.9-11.7c-1-3.5,0.2-7.3-1-11.1
	c-0.9-2.7,0-5.7-0.9-8.6c-0.8-2.6-0.4-5.7-1-8.6c-0.7-3.6-0.1-7.4-1-11.1c-0.7-2.7,0-5.7-1-8.6c-0.6-1.8,0-4-0.2-5.9
	s-0.8-4.1-0.9-6.1c-0.4-4.7-0.7-9.4-1-14.1c0-0.2,0.1-0.4,0-0.5c-2.3-2.4-0.4-5.5-1.6-8.3c-1.1-2.5-0.3-5.9-0.4-8.8
	c0-2.8,0-5.7,0-8.5c0-0.3,0.1-0.7,0.2-1l2.6-2.5c0.5-2.1,0.9-4.2,1.2-6.4c0.2-2.3,0-4.6,0-7c0.7-0.5,1.3-1,2-1.3
	c2.5-1.5,5.5-1.3,8.2-1.9s5.2-1.8,8.1-1.1c5.8-2.8,12.2-1.6,18.3-2.8c2.4-0.5,5-0.9,7.4-1.6c0.6-0.2,1.2-0.6,1.8-0.6
	c3,0.3,5.7-0.5,8.4-1.5c-0.5-4.1-0.9-8.1-1.5-12.9l-4-4.8h-3.4c-0.8-1.3-1.6-2.7-2.1-3.7c0.6-1.7,1-3,1.4-4.2
	c3.3-2.5,6.5-4.9,11.3-5.5l-2.2-2.5c-1.3,1.6-2.8,0.9-4.3,0.9l-1.6-2.8h-5.6l-2-2.7c-3.2-0.9-5.7-1.8-8.3-2.3
	c-4.7-0.8-8.8,1.3-12.5,3.6c-3.3,2.1-7.2,3.3-11.1,3.4c-3.9,0.1-7.8,1.5-10.8,3.9c-4.5,0-4.5,0-8.3,1.6c-4.7,2-9.7,2.5-14.6,3.3
	c-0.9,0.2-2.3,0.3-2.8-0.2c-1.2-1.2-2.5-0.5-3.7-0.7c-4.8-0.8-9,2.2-13.7,2c-0.5,0-1,0.8-1.6,0.9c-5.8,1.7-11.8,2.3-17.8,3
	c-2.5,0.3-5.4,0.9-7.4-0.2c-2.3-1.2-4.8,0.1-6.9-1.7c-0.8-0.7-2.8,0-4.2,0.3c-2.5,0.4-4.9,1.5-7.3,1.5c-4.4,0-8.7-0.6-13.1-0.9
	c-0.2,0-0.3-0.1-0.4-0.2c-1.2-1.5-2.8-0.5-4.2-0.8s-3-0.7-4.6-1s-2.7,0-4.2-0.8c-1-0.6-2.9,0.6-4.5,0.8c-1,0-1.9-0.1-2.8-0.4
	c-3.1-1-6.1-2.2-9.2-3.1c-0.9-0.2-1.8-0.2-2.7,0c-4.6,1.1-9.1,2.7-13.9,2.6c-0.3,0-0.6,0.1-0.9,0.2l-1.7,1.7h-2.2
	c-1.2-2.3-2.2-4.3-3.3-6.5c-3.7-0.3-4.9-5.1-9-4.4c-0.5-1.1-1.1-2.1-1.8-3c-1-0.8-2.1-1.5-3.2-2.1c-0.1-1.3-0.2-2.5-0.2-3.5
	c-2.6-1.1-5.5-1.6-8.4-1.3l-3.9,3.9h-5.2l-2.6-3h-6.3l-1.5-1.5v-9.3l-2.9-1.5c-0.1,2.1-0.2,3.7-0.2,5.2h-1.7c-0.4-2.7,0-6-1.4-8.2
	c-1.6-2.8,0.6-6-1.4-7.9c0.2-1.5,0.4-2.6,0.5-3.8h-3.6c0.6,4.2,1.6,8.1,1.7,12.2s1.8,8.2,0.1,11.9l-2.3,2.3
	c-7.8-2.9-14.8-8.2-22.9-11.6c0.7-4.8-0.9-8.9-2.5-13l-3.2,1.3c-0.4-3.7-4.3-6.7-0.7-10.2h8.1c1.8-2.6,5.7-0.9,7.5-3.7
	c-0.3-1.3-1.3-3.2-0.8-3.8c1.3-1.7-0.7-2.4-0.5-3.9c0.7-5.6-0.1-11.3-2.3-16.5l-5.8-5.8l-2.7-6.2h-4.8l-0.6,2c-1-0.9-2-1.9-2.9-2.9
	c-1.8-2.2-2.6-4.6-0.8-7.3c1.4-2.2,2.7-4.5,4.2-7c-1.4-2.2-3.1-4.3-4.1-6.8c-1.1-2.8-2.7-5-5.3-5.9c-11.6-1.7-22.5,1-33.9,4.2
	l-3.8,3.8c-0.8,4-1.6,8-2.3,11.4c0.6,1.2,1.3,2.3,2,3.4c4.7,5.4,9.5,10.7,14.1,16.2c2.1,2.5,4.1,5.2,4.1,8.8v10.6
	c-6.5,2.2-13.2,1.8-19.1,3.3c-1.5-1.9-3-3.3-3.8-5s-2.5-3.4-2.1-5.6c-2.1-1.4-0.2-3.8-1.6-5.7l-4.3-2.2c0-1.7-0.1-3.3-2.3-3.6
	c-2.4,0.8-1.6,2.9-2,5.4l-2.8,2.5c-0.4,4.7,1.1,9.7-2,14.2c-0.4,0.7-0.1,1.9-0.1,2.2c-3.4,2.9-7.2,1.3-10.6,2.5s-7,0.8-10.5,1.2
	c-0.5,0-1.2-0.2-1.4,0.1c-1.8,2-4.3,0.4-6.5,1.3s-4.4,0.6-6.5,0.8c-3-3.8-2.4-7.9-2.5-12.3c-1.5-1.5-2.9-3.8-4.9-4.7
	c-2.8-1.3-5.5-2.9-8.6-4.5c-1,1.5-1.7,3.6-3,4.2c-1.9,0.9-3.1,2.4-4.4,3.7c-2.1,2.1-2.4,4.5-1.6,7.4s2.2,5.7,1.4,8.9
	c-0.6,0.5-1.3,0.8-2.1,1.1c-2,0.5-4,0.8-6.1,1c-2.1,0.1-4.1,0.4-6.1,0.9c-2.6,0.7-5.3,0.2-8.1,1c-2.5,0.7-5.4,0.7-8.1,0.9
	c-4.7,0.5-9.3,1.9-14.1,1.2c-0.8-0.1-1.8,0.6-2.7,0.7c-1.4,0.2-2.9,0.2-3.6,0.2l-3-2.3c-0.1-3.3-0.9-6.1-1.2-9
	c-0.9-6.8-1.5-7.2,0.3-11.7c0.6-1.8,0.9-3.8,0.8-5.7l-7.8-2.6c-0.5-2.6-2-4.8-4.3-6.1c-1.8-1.1-3.2-1.9-2.9-3.9l-3.2-2
	c0.3-1.1,0.6-2.2,1-3.3l-1.5-1.5c-0.2-0.9-0.3-1.8-0.4-2.5h-3.2c0.2,1.5,0.2,2.9,0.5,4.2s0.8,2.7,1.1,3.8l-3.4,2.6l1.5,2.5
	c-2.1,2.2-4,4.1-4.5,7.3c-0.3,2.3-2.1,4.1-4.3,4.6c-0.9,0.3-1.7,0.8-2.4,1.4c0.1,0.7,0.1,1.3,0,2c-0.2,0.6-0.9,1-1.4,1.4
	c-1.6-0.8-6.7-1.8-8-0.8c-2.3,1.7-5,0-7.1,1.1c-2.6,1.4-5.1,0.5-7.7,0.8c-0.2,0-0.5-0.3-0.3-0.2c-0.6-1.6-1.1-2.7-1.6-3.9
	c-0.8,0.5-1.3,1-1.9,1c-4.4,0.4-8.7,0.7-13.1,1c-0.5,0-1.2-0.2-1.5,0.1c-1.8,1.9-4.1,0.6-6.1,0.9c-2,0.5-4,0.8-6.1,1
	c-2.8,0.2-5.6,0.8-8.2,2l-1.2,0.5v3.1c-1,0.5-2.1,1.4-3,1.3c-4-0.6-7.7,1.3-11.6,1.1c-3.2-0.1-6.4,0.7-9.5,1.2
	c-3.5,0.5-7.1,1-10.2,2.4l-2.6,1.7v19.4l3.5,2.3c-3.5,0-6.3,0.6-8.7-0.2c-1.6-0.6-3.4-0.9-5.1-0.7c-2.1,0.3-3.7-1.1-5.6-1.1
	c-2.6,0.1-5.1-0.2-7.6-0.9c-2.4-0.7-5-0.2-7.6-1s-5.7-0.3-8.6-1s-6,0-9.1-1c-1.8-0.6-4.2,0.3-5.8-0.5c-1.9-1-3.5-0.4-5.3-0.6
	c-1.9-0.2-3.8-0.5-5.6-0.9c-2.8-0.7-5.7,0-8.6-0.9c-2.6-0.8-5.7-0.4-8.5-1c-4.1-0.9-8.4-0.8-12.6-1.1c-0.3,0-0.8,0.1-1,0
	c-1.7-1.6-3.7-0.7-5.6-1s-3.8-1-5.6-0.9c-4.4,0.2-8.6-1.8-13.1-1.1c-0.3,0-0.8,0.1-1,0c-1.5-1.8-3.4-0.7-5.1-1
	c-1.9-0.3-3.7-0.8-5.6-1c-4.4-0.4-8.8-0.3-13-1.2c-3.2-0.6-6.4-0.9-9.6-0.9c-0.7-0.1-1.4-0.4-1.9-0.8l-4.1,1.3
	c-2.5,2.5-5.3,5.2-8.1,8.2c-0.5,0.8-0.8,1.6-1,2.6c1.1,3.4,2,6.3,3,9.2c1.4,3.8,1.4,7.9,0,11.7c-1.2,2.9-6.9,5.2-9.5,3.9
	c-0.1-0.1-0.2-0.2-0.1-0.1l-2.1-4.4c-3.8,1.8-7.5,4-10.9,6.5h-4.1l-4.2-4.8c-1.7,0-4.1-0.7-5.6,0.2c-3.2,1.8-5.4,0.3-8.5-1.2
	c-2.4,0.3-5.4,0.9-8.4,1c-5,0.2-10,0-15.1,0L615.7,1170.8z M1224.8,1529.8c0.1-0.9,0.1-1.8,0.2-2.4l-2.6-1.9l3.6-2.9v-7.4l-0.8,0.7
	c-0.2-0.8-0.5-1.7-0.7-2.5l-3,1.8l-1.7-1.8c1.6-3.7,3-6.9,2-10.6c-4.5,0.8-3.2-3.5-4.8-5l1.9-3.2l6,1l4.7-3.4
	c-1.3-2-2.3-3.7-3.6-5.6c1.8-3.2,1-6.8,1.1-8.8l-2.6-4.4c-3,1.5-6.3,1.4-8.1,3.7v4.6l1.7,0.4v4.4c-0.5,0.5-0.9,0.9-1.5,1.6h-4.4
	c0.6,3.6-2,5.3-4,7.4v4c-2.8,2.6-4.9,5.8-6.3,9.4c1.3,1.5,3,2.6,3.2,4c0.4,3.2,2.6,5,4.8,7.3h3.7l-3.9,3.9l3.8,6L1224.8,1529.8z
	 M794.2,1517.9c-0.8,1.3-1.5,2.6-2.3,3.9c0.7,1.4,1.9,2.5,0.6,4.1c-0.4,0.6-0.8,1.8-0.5,2.2c2.6,3.5,0.1,6.7-1.3,9.1
	c-1.7,2.9-2.8,5.6-2.8,8.8c0,0.2-0.3,0.5-0.5,0.8h-3.3c-0.5,1-1,2.1-1.5,3.2l0.6,0.4l-3.3,2.7c0.1,1.1,0.1,1.9,0.2,3.2
	c3.4-0.9,6.4-2,9.4-2.4c3.3-0.4,6.6-0.1,10.2-0.1l1.6-5.8l3.9-1.8c-0.4-0.8-0.8-1.4-1.3-2.3l4.9-2.3c-0.5-2.5-2.8-2.9-4-4.6
	c0.2-3.2,3.9-5.3,2.9-9.2l-6.4-1.8l-1.7,0.9l-1.6-3.1l1.1-3.3C797.8,1519.2,797,1517.5,794.2,1517.9L794.2,1517.9z M1128.6,1443
	l0.9-0.8c0.7-2.5,1.1-5.2,2.3-7.5c1.2-2.5,3.3-4.5,3.3-7.7h-8.7l-6.8,8.4c4.4,0.7,7.6,2.2,7.6,7c-3.7,0.5-3.8,4.9-6.6,6.2
	c-2-2.2-3.5,0.2-5.2,0.4c-0.1,0.5-0.2,1-0.4,1.4c-0.3,0.6-0.7,1.1-1.1,1.7l1.9,1.9l11.3-1.4l5.8-5.8L1128.6,1443z M1119.8,1498.9
	c-2.8-0.4-5.3-0.9-7.8-1.1s-5.2,0-7.8,0l-2.1,3.6c0.8,3,1.5,5.7,2.2,8.6l8.6-1.5l1.7-1.7h3.2
	C1118.3,1504.1,1120.8,1502.1,1119.8,1498.9L1119.8,1498.9z M1111,1358.8c-5.1,2.8-5,8-7,12c0.8,3.7,1.5,7.3,2.5,11
	c0.3,1.2,1.4,2.2,2.5,3.9l1.9-3.6c-0.4-3.5,0.4-6.9,2.4-9.8l-3.2-5C1111.1,1364.5,1110.9,1361.8,1111,1358.8z M974.2,1542.8
	c-3.2,0.8-2.7,4.9-5.9,5.2c-0.5,2.8-4,3.6-4.4,6.5c3,1.3,5-0.8,7-1.6l4.7,1.7l5.2-1l0.4-2.1l2-1.6c-1.4-2.1-2.9-3.5-4.8-3.3
	C977.3,1544.5,976.5,1542.7,974.2,1542.8L974.2,1542.8z M1219,1548.8c-3-1-4.8-3.8-7.9-2.8v6.7c4.6,3,9.7,1.9,14.3,2.1
	c2.5-1.8,1.3-4,1.5-5.4C1224.1,1547.3,1221.5,1547.3,1219,1548.8L1219,1548.8z M795.8,1510.8l4.7-3.9c0.9-2.8,1.5-4.9,2.3-7.3
	l-6.1-2.1c-1,1-1.8,2.1-2.7,3.3c-0.7,1.2-1.3,2.5-1.9,3.8c0.5,2,0.9,3.6,1.2,5L795.8,1510.8z M1116.3,1534.9
	c-3.2,3.2-5,6.9-4.2,11.7c3.1,0.5,6.3-0.3,8.9-2.2c-0.3-3.2,0.7-6.6-1.4-9.6H1116.3z M1110.9,1296.5c1.5,0.8,3,1.6,4.6,2.2
	c2.3,0.7,4.2-0.9,6.3-1.3l2.1-2.1v-3.1l-3.1-2.6l-4.7,4.4l-2.6-1.4L1110.9,1296.5z M784.5,1487.8c2.4-2.4,5.2-4.6,4.4-8.6l-1.2-1.2
	h-3.8c-1.2,2.8-2.5,5.6-3.7,8.4l1.4,1.4L784.5,1487.8z M794.1,1494l-4.4-2.4c-3.4,4.6-3.8,5.8-0.5,9.2
	C792,1499.5,792.3,1496.4,794.1,1494L794.1,1494z M1122.5,1478.6c1.4,0,2.7,2.6,4.8,0.4c-0.8-2.3-1.7-4.8-2.7-7.6l-5.2,2.1
	L1122.5,1478.6z M798.1,1515.9l4.1,1.1l1.8-1.8l-3.5-4.5l-2.5,0.2V1515.9z"/>
<path class="st1" d="M615.7,1170.8l2.8,3c5.1,0,10.1,0.1,15.1,0c3-0.1,6-0.7,8.4-1c3.1,1.6,5.3,3.1,8.5,1.2c1.5-0.9,3.9-0.2,5.6-0.2
	l4.2,4.8h4.1c3.4-2.5,7.1-4.6,10.9-6.5l2.1,4.4c-0.1-0.1,0,0.1,0.1,0.1c2.6,1.3,8.4-1,9.5-3.9c1.4-3.8,1.4-7.9,0-11.7
	c-1-2.9-1.9-5.9-3-9.2c0.2-0.9,0.5-1.8,1-2.6c2.7-2.9,5.6-5.7,8.1-8.2l4.1-1.3c0.6,0.4,1.2,0.7,1.9,0.8c3.2,0,6.4,0.4,9.6,0.9
	c4.2,0.9,8.7,0.8,13,1.2c1.9,0.2,3.7,0.7,5.6,1c1.7,0.3,3.7-0.8,5.1,1c0.1,0.2,0.7,0.1,1,0c4.5-0.8,8.7,1.3,13.1,1.1
	c1.8-0.1,3.7,0.7,5.6,0.9s3.9-0.6,5.6,1c0.2,0.2,0.7,0,1,0c4.2,0.3,8.5,0.3,12.6,1.1c2.9,0.6,5.9,0.2,8.5,1c3,1,5.8,0.3,8.6,0.9
	c1.8,0.5,3.7,0.8,5.6,0.9c1.7,0.2,3.4-0.4,5.3,0.6c1.6,0.8,4-0.1,5.8,0.5c3,1,6.2,0.3,9.1,1s5.9,0.2,8.6,1s5.2,0.2,7.6,1
	c2.5,0.7,5.1,1,7.6,0.9c1.9,0,3.5,1.4,5.6,1.1c1.7-0.2,3.5,0.1,5.1,0.7c2.4,0.8,5.2,0.2,8.7,0.2l-3.5-2.3v-19.4l2.6-1.7
	c3.1-1.4,6.7-1.8,10.2-2.4c3.1-0.5,6.3-1.3,9.5-1.2c3.9,0.2,7.6-1.7,11.6-1.1c0.9,0.1,1.9-0.8,3-1.3v-3.1l1.2-0.5
	c2.6-1.2,5.3-1.8,8.2-2c2.1-0.2,4.1-0.5,6.1-1c2-0.4,4.3,1,6.1-0.9c0.2-0.3,1,0,1.5-0.1c4.4-0.3,8.7-0.6,13.1-1c0.5,0,1-0.6,1.9-1
	c0.5,1.2,1,2.3,1.6,3.9c-0.2-0.1,0,0.2,0.3,0.2c2.5-0.3,5.1,0.6,7.7-0.8c2-1.1,4.7,0.6,7.1-1.1c1.3-0.9,6.4,0.1,8,0.8
	c0.5-0.5,1.1-0.9,1.4-1.4c0.1-0.7,0.2-1.3,0-2c0.7-0.6,1.5-1.1,2.4-1.4c2.3-0.5,4-2.3,4.3-4.6c0.5-3.2,2.4-5.1,4.5-7.3l-1.5-2.5
	l3.4-2.6c-0.3-1.1-0.8-2.4-1.1-3.8s-0.4-2.7-0.5-4.2h3.2c0.1,0.7,0.3,1.6,0.4,2.5l1.5,1.5c-0.3,1.2-0.6,2.2-1,3.3l3.2,2
	c-0.3,2,1.2,2.8,2.9,3.9c2.3,1.3,3.8,3.5,4.3,6.1l7.9,2.7c0.1,2-0.2,4-0.8,5.8c-1.7,4.4-1.1,4.9-0.3,11.7c0.3,2.8,1.2,5.7,1.2,9
	l3,2.3c0.7,0,2.2,0,3.6-0.2c0.9-0.1,1.8-0.8,2.7-0.7c4.8,0.6,9.4-0.8,14.1-1.2c2.7-0.3,5.5-0.2,8.1-0.9c2.7-0.8,5.5-0.3,8.1-1
	c2-0.5,4.1-0.8,6.1-0.9c2-0.2,4.1-0.5,6.1-1c0.7-0.3,1.4-0.6,2.1-1.1c0.8-3.2-0.6-6-1.4-8.9s-0.4-5.4,1.6-7.4
	c1.3-1.3,2.5-2.9,4.4-3.7c1.3-0.6,2-2.7,3-4.2c3.1,1.6,5.8,3.2,8.6,4.5c2,0.9,3.4,3.2,4.9,4.7c0.1,4.4-0.5,8.6,2.5,12.3
	c2.1-0.2,4.5,0,6.5-0.8s4.7,0.8,6.5-1.3c0.2-0.2,1-0.1,1.4-0.1c3.5-0.3,7.3,0,10.5-1.2s7.1,0.3,10.6-2.5c0-0.3-0.4-1.6,0.1-2.2
	c3-4.4,1.6-9.4,2-14.2l2.8-2.5c0.4-2.5-0.4-4.6,2-5.4c2.2,0.3,2.3,1.9,2.3,3.6l4.3,2.2c1.4,1.9-0.5,4.4,1.6,5.7
	c-0.4,2.3,1.2,3.9,2.1,5.6s2.3,3,3.8,5c5.9-1.4,12.7-1.1,19.1-3.3V1112c0-3.6-2-6.3-4.1-8.8c-4.6-5.5-9.4-10.8-14.1-16.2
	c-0.7-1.1-1.4-2.2-2-3.4c0.7-3.4,1.5-7.5,2.3-11.4l3.8-3.8c11.4-3.2,22.3-5.9,33.9-4.2c2.6,0.9,4.2,3,5.3,5.9c1,2.4,2.7,4.5,4.1,6.8
	c-1.4,2.4-2.7,4.7-4.2,7c-1.8,2.7-1,5.1,0.8,7.3c0.9,1,1.9,2,2.9,2.9l0.6-2h4.8l2.7,6.2l5.8,5.8c2.2,5.2,3,10.9,2.3,16.5
	c-0.2,1.5,1.8,2.2,0.5,3.9c-0.5,0.7,0.5,2.6,0.8,3.8c-1.8,2.8-5.7,1.1-7.5,3.7h-8.1c-3.6,3.6,0.4,6.6,0.7,10.2l3.2-1.3
	c1.6,4.1,3.2,8.2,2.5,13c8.1,3.4,15.1,8.7,22.9,11.6l2.3-2.3c1.8-3.7,0-7.7-0.1-11.9s-1.1-8.1-1.7-12.2h3.5
	c-0.2,1.1-0.3,2.3-0.5,3.8c2,1.9-0.3,5.1,1.4,7.9c1.3,2.2,1,5.5,1.4,8.2h1.7c0.1-1.6,0.2-3.1,0.2-5.2l2.9,1.5v9.3l1.5,1.5h6.3l2.6,3
	h5.2l3.9-3.9c2.9-0.3,5.8,0.1,8.4,1.3c0.1,0.9,0.2,2.2,0.2,3.5c1.1,0.6,2.2,1.3,3.2,2.1c0.7,0.9,1.3,1.9,1.8,3
	c4.1-0.7,5.3,4.2,9,4.4c1.1,2.2,2.2,4.2,3.3,6.5h2.2l1.7-1.7c0.3-0.1,0.6-0.1,0.9-0.2c4.8,0.1,9.3-1.6,13.9-2.6
	c0.9-0.2,1.8-0.2,2.7,0c3.1,1,6.1,2.1,9.2,3.1c0.9,0.3,1.8,0.5,2.8,0.4c1.5-0.2,3.5-1.4,4.5-0.8c1.5,0.9,2.8,0.6,4.2,0.8
	s3.1,0.7,4.6,1s3-0.7,4.2,0.8c0.1,0.1,0.3,0.2,0.4,0.2c4.4,0.3,8.7,0.9,13.1,0.9c2.4,0,4.9-1,7.3-1.5c1.4-0.3,3.5-0.9,4.2-0.3
	c2.1,1.8,4.6,0.4,6.9,1.7c1.9,1,4.9,0.5,7.4,0.2c6-0.7,12-1.2,17.8-3c0.6-0.2,1.1-1,1.6-0.9c4.7,0.2,8.9-2.8,13.7-2
	c1.2,0.2,2.5-0.4,3.7,0.7c0.5,0.5,1.9,0.4,2.8,0.2c4.9-0.8,9.9-1.4,14.6-3.3c3.8-1.6,3.8-1.6,8.3-1.6c3.1-2.4,6.9-3.8,10.8-3.9
	c4-0.1,7.8-1.3,11.1-3.4c3.7-2.2,7.8-4.4,12.5-3.6c2.6,0.5,5.1,1.4,8.3,2.3l2,2.7h5.6l1.6,2.8c1.6,0,3,0.7,4.3-0.9l2.2,2.5
	c-4.7,0.6-8,3-11.3,5.5c-0.4,1.2-0.8,2.5-1.4,4.2c0.6,1,1.3,2.3,2.1,3.7h3.4l4,4.8c0.5,4.8,1,8.8,1.5,12.9c-2.8,0.9-5.4,1.8-8.4,1.5
	c-0.6-0.1-1.2,0.4-1.8,0.6c-2.4,0.7-4.9,1.1-7.4,1.6c-6.1,1.3-12.5,0.1-18.3,2.8c-2.8-0.7-5.4,0.5-8.1,1.1s-5.7,0.4-8.2,1.9
	c-0.7,0.4-1.3,0.9-2,1.3c0,2.4,0.2,4.7,0,7c-0.3,2.1-0.7,4.3-1.2,6.4l-2.6,2.5c-0.1,0.3-0.2,0.7-0.2,1c0,2.8,0,5.7,0,8.5
	c0,3-0.7,6.3,0.4,8.8c1.2,2.8-0.7,6,1.6,8.3c0.1,0.1,0,0.3,0,0.5c0.3,4.7,0.6,9.4,1,14.1c0.2,2,0.8,4,0.9,6.1s-0.5,4.2,0.2,5.9
	c1,2.9,0.3,5.9,1,8.6c1,3.7,0.3,7.5,1,11.1c0.6,2.9,0.2,5.9,1,8.6c1,2.9,0.1,5.9,0.9,8.6c1.2,3.7,0.1,7.6,1,11.1
	c1,3.8,0.6,7.4,0.9,11.7l-3.4,2.7l4.2,3.4v3.7c-0.8,3.1-2.5,4.6-5.3,5.2l-4-1.3l-2.6,4c1.4,2.9,2.1,6,2.1,9.2
	c-0.2,3.5,0.1,7-0.1,10.5c-0.3,4.7,1.2,9.1,2.4,13.5c0.2,0.6,0.4,1.2,0.6,1.8c0.2,1.7-0.2,3.4,0.9,5.2c0.8,1.2-0.3,3.1,0.9,4.6
	c1,1.3-0.7,3.6,1.2,5c-0.5,4.4,2.9,8.2,2.1,12.7c-0.1,0.5,0.6,1.1,0.8,1.4l-1.3,5.2l-3.7,3.2l-2.9,1c-0.1,4,0.9,6.7,4.6,8.3
	c1.5,0.8,3,1.8,4.3,2.9v5.4l-4,3.5c-3.2-0.3-6.3,0.7-8.7,2.9c-2.1,1.7-4.9,2.5-7.6,2.2c-2.2-0.1-4.4-0.1-6.6,0v-4.3l-2.7-2.7h-9
	l-1.5-1.5c0-8.1-0.7-16.3,0.2-24.4c1.5-13.6,0.5-27.1,0.8-40.6s0.1-27.3,0.1-41s0.2-27.3-0.1-41c-0.2-12,1.5-24,1.1-36.1
	s-0.1-24-0.1-35.6c0.7-1.4,1.3-2.4,1.9-3.7h-4.8v-8.5l-1.1-1.1c-2,0.2-3.7,0-5.3,0.5c-4.7,1.5-9.6,1.8-14.2,3.1
	c-3.9,1-8,1.3-11.9,2.7c-2.3,0.8-5,0.8-7.5,1.2c-4,0.7-8,1.6-12,2.4c-0.8,0.2-1.5,0.5-2.2,0.6c-2.5,0.4-5.4,0-7.5,1.2
	c-2.3,1.2-4.9-0.2-6.8,1.7c-4.4-0.4-8.2,2.3-12.6,2.2c-1.6,0.1-3.1,0.4-4.6,1c-4.5,1.5-9.3,1.6-13.8,3c-5.3,1.7-10.9,1.9-16.2,3.1
	c-3,0.6-6.1,1.4-9,2.3c-2.5,0.9-4.9,0.3-7.4,1.3c-4,1.7-8.4,2.2-12.7,3c-2.4,0.5-5,0.7-7.5,1.2c-4,0.8-8.1,1.2-11.9,2.7
	c-0.2,0-0.3,0.3-0.4,0.3c-6.1-1-11.4,2.7-17.2,3.2c-3.4,0.4-6.8,1-10.2,1.7c-3.4,0.7-6.7,1.8-10.1,2.2s-6.7,1.9-10.2,1.8
	c-0.5,0-0.9,0.1-1.4,0.2c-1.8,0.6-3.5,1.5-5.3,1.6s-3.8,0.9-5.6,1c-5.6,0.2-10.7,2.8-16.1,3.4c-1.5,1.9-3.9,0.3-5.9,1.5
	c-2.3,1.3-5.6,0.9-8.5,1.2c-2.2,0.3-4.4,0.7-6.6,1c-2,0.2-4.2-0.5-6.1,1c-0.4,0.3-1.3,0.1-2,0c-5.3-0.7-10.4,0.8-15.6,1.2
	c-3,0.2-6.2,0.2-9.1,0.9c-3.1,0.8-6.2,0.2-9.1,1c-3.1,0.8-6.1,0.7-9.1,0.9c-2,0.2-4,0.7-6.1,1s-4.2-0.5-6.1,1c-0.2,0.2-0.7,0-1,0
	c-5.9,0.3-11.7,0.6-17.6,1c-1.5,0.2-3.1,0.6-4.6,1c-1.4,0.3-3-0.7-4.2,0.7c-0.3,0.3-0.9,0.3-1.3,0.3c-4.4,0.3-8.8,0.3-13.1,1.1
	s-8.5,0.4-12.6,1c-2.7,0.4-5.5,0.4-8.1,1s-5.2,0.3-7.5,1.1c-2.6,0.8-5.2,0.2-7.6,0.9c-2.6,0.8-5.1,0.5-7.6,0.9
	c-5.5,1-11.2,1.1-16.7,2.1c-2.4,0.4-4.7,0.7-7.1,0.9c-2.2,0.2-4.4,0.6-6.5,1.1c-3.1,0.7-6.2,0.2-9.1,1c-2.8,0.6-5.7,0.9-8.6,0.9
	c-1.7,0.1-3.4,0.7-5.1,0.9s-3.3-0.4-4.6,1c-3.6-0.7-7,1.1-10.6,1.1c-2.2,0.1-4.4,0.5-6.6,1c-2.2,0.4-4.6-1-6.6,1c-0.2,0.2-0.6,0-1,0
	c-3.9,0.3-7.7,0.6-11.6,1c-1.7,0.2-3.4,0.7-5.1,1s-3.3-0.4-4.6,1c-0.2,0.2-0.6,0-1,0c-4.2,0.3-8.5,0.3-12.6,1.1
	c-2.7,0.6-5.5,0.3-8.1,1c-2.7,0.7-5.5,0.3-8.1,1s-5.2,0.3-7.6,1c-2.6,0.7-5.2,0.3-7.6,1c-2.8,0.9-5.4,0.7-8.1,0.9
	c-2,0.2-4,0.7-6.1,0.9c-2.1,0.1-4.1,0.4-6.1,0.9c-3.5,0.9-7.3,0.8-11,1.2c-1.7,0.2-3.4,0.6-5.1,1s-3.6-0.8-5.2,0.8
	c-0.3,0.3-0.9,0.2-1.4,0.2c-5.2,0.3-10.4,0.6-15.6,1c-1.7,0.2-3.4,0.6-5,1.1l-1.7-1.6c0.3-2.8-0.4-5.7-1.8-8.1
	c1.9-1.7,0.4-4,0.9-5.9l-1.5-1.5l-3.4,2c-0.8-0.4-1.5-0.7-2.3-1c-0.9-0.3-1.9-0.2-2.8-0.5c-2.6-1.1-5-2.5-8-2.5
	c-0.3,0-0.6-0.1-0.9-0.3c-2.6-2.5-6.2-2.8-9.3-4.2s-6.8-2.1-10-3.6s-6.7-1.5-9.4-3.9c-5.5-0.6-10.1-3.9-15.4-5.1
	c-2.7-0.6-5.1-2.1-7.7-3.2c-7-3-14.2-5-21.3-7.8c-3.7-1.4-7.4-3-11.2-4.5c-6.5-2.4-12.9-5.2-19.3-7.7c-4.3-1.7-8.5-3.6-12.8-5.4
	c-3.3-1.4-6.6-2.6-9.9-3.9c-3.1-1.3-6.5-2.2-9.4-3.7c-6.2-3.3-13-4.8-19.2-8c-3.6-1.8-7.5-2.8-11.1-4.7c-2.2-1.2-5.2-1-7.6-1.4
	l-4.4,5.2v32.4c2.1,2.7,5,0.8,7.3,1.5l2.5,2.3c0.8,5.3-1.5,10.2-0.9,15.3c-1.5,2.7-0.8,5.7-1,8.6c-0.2,1.7-0.7,3.4-0.9,5.1
	c-0.2,1.6,0.2,3.2-1,4.6c-0.2,0.3,0,1,0,1.5c-0.3,4.4,0,8.9-1.2,13s0.4,8.1-1.8,11.8c-0.2,0.2,0,0.7,0,1c-0.3,4.4-0.1,8.9-1.1,13.1
	c-1.5,5.9-0.6,11.8-0.8,17.6s-0.2,12,0,18c0.2,1.9,0.6,3.8,1.2,5.6l6.2-0.6l2.5,3.1v4l-11.1,7.4c2.7,2.3,0.4,5.4,1.7,8
	c1.1,2.3,0.5,5.5,0.6,8.3c1.8,2.6,5.9,0.4,7.7,4.5c-0.5,2.4,1.3,6-0.8,9.4c-0.2,0.4,0,1,0,1.5c-0.3,4.4-0.6,8.7-1,13.1
	c-0.3,1.4-0.6,2.7-1,4.1c-0.3,1.4,0.6,3-0.8,4.2c-0.3,0.2-0.1,0.9-0.2,1.4c-0.3,3.9-0.2,7.8-1.1,11.6c-0.7,3.1,0,6.4-1.1,9
	c-1.3,3.2,0.1,6.3-0.9,9.1s-0.3,5.8-1,8.6s-0.3,5.5-1,8.1s-0.4,5.1-1,7.6c-0.8,3.9-2.1,7.7-1.9,11.9l4.1,3.2
	c0.3,2.5,0.8,5.7,1.2,9.2l4.2-0.9l4.3,2.8v4.5c-2.4,2-4.7,4.7-7.6,6.3c-2.5,1.3-3.8,3.8-6.4,4.9c-2.3,1-4.1,3.1-6,4.8
	s-3.9,2.8-6.5,2.3l-1.8-4c-3.9,2.1-8.2,0.6-12.2,1.2c-2.2-12.6-0.3-25.1-1.5-37.3c-0.9-8.9-0.5-17.8-0.7-26.6s-0.7-18.1,0.1-27
	c1.3-15,0.6-30.1,0.8-45.1s0-30.3,0-45.5v-45.5c2-11.7,0.7-23.4,1-35.1s0.1-23.7,0-35.5c0-3.2,1.5-6.2,1.1-9.6
	c-0.2-3.2-0.2-6.3,0-9.5c0.2-1,0.6-2,1.1-2.9l-5.2-2.1c0.1-1.7,0.1-3.5,0-5.2c-0.3-1.8-0.7-3.6-1.2-5.4l2.2-2.3v-2.3
	c-2.5-0.7-5-1.5-7.5-2.2c-5-1.3-10-2.4-14.9-3.8c-3.3-1-6.8-1.3-10.1-2.2c-2.1-0.5-4.8,0-6.5-1.2c-2.1-1.5-4.7,0.3-6.3-1.7
	c-3.7,0.2-7-1.6-10.6-2.1c-2.2-0.4-4.3-1.4-6.6-1c-1.4-2.2-3.9-0.2-5.9-1.6c-1.6-1.2-4.5-0.5-6.3-1.5s-3.9-0.8-5.8-1.7
	c-1.6-0.7-3.6-0.8-5.4-1.7v-6.6c1.1-1,2.6-2.3,3.9-3.6l-1.1-4.8l4.1-3.6v-2.7c-3.1-3.1-7.7-2.7-11.7-4.6v-5.2l-4.1-2.7v-3.2l3.6-3.2
	l16.8,6.7c2.9-0.5,4.7-2.7,6.5-4.6v-4.3l-9.8-5.2v-3.8c0.5,0,1.2-0.4,1.7-0.1c1.8,1,3.7,1.1,6.1,0.9c0.4-1.2,0.9-2.7,1.4-4.3
	c-1.8-0.4-3.1-1.8-3.3-3.6c-0.4-2.6,0.9-4.9,2.4-7.2l3,1.4c1.1-1.6-0.5-4,2.4-5.1h2.5c2.3,1.6,4.6,3.6,7.3,4.8
	c5.2,2.3,9.3,6.2,14.4,8.8c4.2,2.1,8,4.8,12,7.3c2.4,1.5,4.7,3.2,7.1,4.6c6.4,3.8,12.8,7.7,19.3,11.3c3.1,1.7,6.6,2.7,9.9,3.9
	c0.3,0.1,0.6,0.2,0.9,0.2c3.3,0.3,11.7-1.1,15.4-4c2.4-1.9,4.9-3.7,8.2-4.4c1.7-0.3,2.8-0.8,4.5,0.1c2.1,0.9,4.3,1.7,6.5,2.3
	c2.2,0.8,4.4,1.4,6.7,1.8c3.8,0.6,7.6,1.7,11.5,1.3c3.7-0.5,7.4,0.2,10.7,1.8c2.2,1,4.6,1.4,7,1.2
	C609.6,1170.6,612.5,1170.8,615.7,1170.8z"/>
<path class="st1" d="M1224.8,1529.8h-11.6l-3.8-6l3.9-3.9h-3.7c-2.2-2.2-4.3-4-4.8-7.3c-0.2-1.3-1.9-2.5-3.2-4
	c1.4-3.6,3.5-6.8,6.3-9.4v-4c1.9-2.1,4.6-3.8,4-7.4h4.4c0.6-0.6,1.1-1.1,1.5-1.6v-4.3l-1.7-0.4v-4.6c1.8-2.3,5.1-2.2,8.1-3.7
	l2.6,4.4c-0.1,2,0.8,5.6-1.1,8.8c1.2,1.9,2.3,3.6,3.6,5.6l-4.7,3.4l-6-1l-1.9,3.2c1.7,1.5,0.3,5.8,4.8,5c1,3.7-0.3,6.9-2,10.6
	l1.7,1.8l3-1.8c0.2,0.8,0.5,1.7,0.7,2.5l0.8-0.7v7.4l-3.6,2.9l2.6,1.9C1225,1528,1224.9,1528.9,1224.8,1529.8z"/>
<path class="st1" d="M794.2,1517.9c2.8-0.4,3.7,1.3,5,2.8l-1.1,3.3l1.6,3.1l1.7-0.9l6.4,1.8c1,3.8-2.7,6-2.9,9.2
	c1.2,1.7,3.5,2.2,4,4.6l-4.9,2.3c0.5,0.9,0.9,1.5,1.3,2.3l-3.9,1.8l-1.6,5.8c-3.6,0-6.9-0.3-10.2,0.1c-3,0.4-6,1.5-9.4,2.4
	c-0.1-1.3-0.1-2-0.2-3.2l3.3-2.7l-0.6-0.4c0.5-1.1,1-2.2,1.5-3.2h3.3c0.2-0.3,0.5-0.5,0.5-0.8c0-3.3,1.1-6,2.8-8.8
	c1.4-2.5,3.9-5.7,1.3-9.1c-0.3-0.4,0-1.7,0.5-2.2c1.3-1.6,0.1-2.7-0.6-4.1C792.6,1520.5,793.4,1519.2,794.2,1517.9z"/>
<path class="st1" d="M1128.6,1443l4,3.8l-5.8,5.8l-11.3,1.4l-1.9-1.9c0.4-0.5,0.8-1.1,1.1-1.7c0.2-0.5,0.3-0.9,0.4-1.4
	c1.7-0.1,3.2-2.6,5.2-0.4c2.9-1.4,2.9-5.7,6.6-6.2c0.1-4.8-3.1-6.4-7.6-7l6.8-8.4h8.7c0,3.2-2,5.3-3.3,7.7c-1.2,2.3-1.6,5-2.3,7.5
	L1128.6,1443z"/>
<path class="st1" d="M1119.8,1498.9c1,3.2-1.4,5.2-2.1,7.9h-3.2l-1.7,1.7l-8.6,1.5c-0.7-2.8-1.4-5.5-2.2-8.6l2.1-3.6
	c2.5,0,5.1-0.1,7.8,0S1117,1498.5,1119.8,1498.9z"/>
<path class="st1" d="M1111,1358.8c-0.1,3,0.1,5.7-1,8.4l3.2,5c-1.9,2.9-2.8,6.4-2.4,9.8l-1.9,3.6c-1.1-1.7-2.2-2.7-2.5-3.9
	c-1-3.6-1.7-7.3-2.5-11C1106,1366.7,1106,1361.6,1111,1358.8z"/>
<path class="st1" d="M974.2,1542.8c2.3,0,3.1,1.7,4.2,3.8c1.9-0.3,3.4,1.1,4.8,3.3l-2,1.6l-0.4,2.1l-5.2,1l-4.7-1.7
	c-2,0.7-4,2.8-7,1.6c0.4-2.9,3.9-3.7,4.4-6.5C971.5,1547.7,971,1543.6,974.2,1542.8z"/>
<path class="st1" d="M1219.1,1548.8c2.5-1.5,5-1.4,7.8,0.6c-0.1,1.4,1,3.6-1.5,5.4c-4.6-0.2-9.6,0.9-14.3-2.1v-6.7
	C1214.2,1545,1216.1,1547.8,1219.1,1548.8z"/>
<path class="st1" d="M795.8,1510.8l-2.4-1.3c-0.3-1.4-0.8-3-1.2-5c0.6-1.3,1.2-2.5,1.9-3.8c0.8-1.1,1.7-2.2,2.7-3.3l6.1,2.1
	c-0.8,2.4-1.4,4.5-2.3,7.3L795.8,1510.8z"/>
<path class="st1" d="M1116.4,1534.9h3.2c2.1,3,1.1,6.3,1.4,9.6c-2.5,1.9-5.7,2.7-8.9,2.2C1111.3,1541.8,1113.1,1538.1,1116.4,1534.9
	z"/>
<path class="st1" d="M1110.9,1296.6l2.7-4l2.6,1.4l4.7-4.4l3.1,2.6v3.1l-2.1,2.1c-2.1,0.4-4.1,2-6.3,1.3
	C1113.9,1298.2,1112.4,1297.4,1110.9,1296.6z"/>
<path class="st1" d="M784.5,1487.8h-3l-1.4-1.4c1.2-2.8,2.5-5.6,3.7-8.4h3.8l1.2,1.2C789.7,1483.2,786.9,1485.4,784.5,1487.8z"/>
<path class="st1" d="M794.1,1494c-1.8,2.4-2.1,5.5-4.9,6.8c-3.3-3.4-2.8-4.7,0.5-9.2L794.1,1494z"/>
<path class="st1" d="M1122.5,1478.6l-3.1-5.1l5.2-2.1c1,2.8,1.9,5.3,2.7,7.6C1125.1,1481.2,1123.9,1478.6,1122.5,1478.6z"/>
<path class="st1" d="M798.1,1515.9v-5l2.5-0.2l3.5,4.5l-1.8,1.8L798.1,1515.9z"/>
</svg>
