<svg id="Layer_1" data-name="Layer 1" xmlns="http://www.w3.org/2000/svg" xmlns:xlink="http://www.w3.org/1999/xlink" viewBox="0 0 3256.36 2150.39"><defs><style>.cls-1,.cls-2{fill:none;}.cls-2{stroke:#fff;}.cls-3{clip-path:url(#clip-path);}</style><clipPath id="clip-path" transform="translate(-64.17 -61.82)"><rect class="cls-1" x="64.17" y="54.82" width="3256.36" height="2157.39"/></clipPath></defs><rect class="cls-2" x="1417.51" y="0.5" width="420.77" height="408.61"/><line class="cls-2" x1="1417.27" y1="265.54" x2="1838.49" y2="265.54"/><line class="cls-2" x1="1417.54" y1="136.56" x2="1838.49" y2="136.56"/><rect class="cls-2" x="113.34" y="589.71" width="420.51" height="801.63"/><rect class="cls-2" x="1237.14" y="589.72" width="420.77" height="788.44"/><rect class="cls-2" x="2325.29" y="589.27" width="420.77" height="770.75"/><line class="cls-2" x1="112.84" y1="623.7" x2="534.06" y2="623.7"/><line class="cls-2" x1="112.84" y1="651.34" x2="534.06" y2="651.34"/><line class="cls-2" x1="112.84" y1="680.39" x2="533.32" y2="680.39"/><line class="cls-2" x1="112.84" y1="710.16" x2="533.65" y2="710.16"/><line class="cls-2" x1="112.84" y1="737.8" x2="533.65" y2="737.8"/><line class="cls-2" x1="112.84" y1="768.27" x2="533.65" y2="768.27"/><line class="cls-2" x1="112.84" y1="1271.42" x2="533.65" y2="1271.42"/><line class="cls-2" x1="112.84" y1="1242.36" x2="533.65" y2="1242.36"/><line class="cls-2" x1="113.52" y1="1214.02" x2="534.32" y2="1214.02"/><line class="cls-2" x1="113.52" y1="1171.44" x2="533.65" y2="1171.44"/><line class="cls-2" x1="113.52" y1="1128.29" x2="533.65" y2="1128.29"/><line class="cls-2" x1="113.52" y1="1099.53" x2="533.65" y2="1099.53"/><line class="cls-2" x1="113.55" y1="1054.92" x2="533.65" y2="1054.92"/><line class="cls-2" x1="112.84" y1="1026.93" x2="533.65" y2="1026.93"/><line class="cls-2" x1="112.84" y1="997.17" x2="533.65" y2="997.17"/><line class="cls-2" x1="112.84" y1="955.64" x2="533.65" y2="955.64"/><line class="cls-2" x1="112.84" y1="925.59" x2="533.65" y2="925.59"/><line class="cls-2" x1="112.84" y1="882.36" x2="533.65" y2="882.36"/><line class="cls-2" x1="112.84" y1="854.73" x2="534.36" y2="854.73"/><line class="cls-2" x1="112.84" y1="824.96" x2="533.65" y2="824.96"/><line class="cls-2" x1="112.84" y1="796.61" x2="533.65" y2="796.61"/><line class="cls-2" x1="112.84" y1="1356.59" x2="533.65" y2="1356.59"/><line class="cls-2" x1="112.84" y1="1329.81" x2="533.65" y2="1329.81"/><line class="cls-2" x1="112.84" y1="1300.9" x2="533.65" y2="1300.9"/><line class="cls-2" x1="1237.64" y1="623.86" x2="1657.92" y2="623.86"/><line class="cls-2" x1="1237.12" y1="1256.42" x2="1657.92" y2="1256.42"/><line class="cls-2" x1="1237.12" y1="1228.07" x2="1657.92" y2="1228.07"/><line class="cls-2" x1="1237.12" y1="1199.72" x2="1657.92" y2="1199.72"/><line class="cls-2" x1="1237.64" y1="1155.15" x2="1657.92" y2="1155.15"/><line class="cls-2" x1="1237.12" y1="1127.86" x2="1657.92" y2="1127.86"/><line class="cls-2" x1="1237.12" y1="1098.93" x2="1657.92" y2="1098.93"/><line class="cls-2" x1="1237.12" y1="1070.01" x2="1657.92" y2="1070.01"/><line class="cls-2" x1="1237.12" y1="1012.16" x2="1657.92" y2="1012.16"/><line class="cls-2" x1="1237.64" y1="984.86" x2="1657.92" y2="984.86"/><line class="cls-2" x1="1237.12" y1="954.31" x2="1657.92" y2="954.31"/><line class="cls-2" x1="1237.12" y1="925.39" x2="1657.92" y2="925.39"/><line class="cls-2" x1="1237.64" y1="896.46" x2="1657.92" y2="896.46"/><line class="cls-2" x1="1237.64" y1="867.54" x2="1657.92" y2="867.54"/><line class="cls-2" x1="1237.64" y1="838.61" x2="1657.92" y2="838.61"/><line class="cls-2" x1="1237.12" y1="809.69" x2="1657.92" y2="809.69"/><line class="cls-2" x1="1237.64" y1="780.77" x2="1657.92" y2="780.77"/><line class="cls-2" x1="1237.12" y1="737.25" x2="1657.4" y2="737.25"/><line class="cls-2" x1="1237.12" y1="708.9" x2="1657.4" y2="708.9"/><line class="cls-2" x1="1236.6" y1="680.55" x2="1657.4" y2="680.55"/><line class="cls-2" x1="1237.12" y1="652.21" x2="1657.92" y2="652.21"/><line class="cls-2" x1="1237.64" y1="1342.87" x2="1657.92" y2="1342.87"/><line class="cls-2" x1="1237.64" y1="1313.11" x2="1657.92" y2="1313.11"/><line class="cls-2" x1="1237.12" y1="1284.76" x2="1657.92" y2="1284.76"/><line class="cls-2" x1="2325.75" y1="1329.33" x2="2745.88" y2="1329.33"/><line class="cls-2" x1="2325.79" y1="1284.81" x2="2745.88" y2="1284.81"/><line class="cls-2" x1="2325.75" y1="1256.47" x2="2746.26" y2="1256.47"/><line class="cls-2" x1="2325.08" y1="1228.62" x2="2745.88" y2="1228.62"/><line class="cls-2" x1="2325.75" y1="1200.27" x2="2745.88" y2="1200.27"/><line class="cls-2" x1="2324.75" y1="1155.7" x2="2745.55" y2="1155.7"/><line class="cls-2" x1="2324.75" y1="1127.91" x2="2745.55" y2="1127.91"/><line class="cls-2" x1="2324.75" y1="1097.48" x2="2745.55" y2="1097.48"/><line class="cls-2" x1="2325.36" y1="1070.56" x2="2745.55" y2="1070.56"/><line class="cls-2" x1="2325.75" y1="1041.01" x2="2745.55" y2="1041.01"/><line class="cls-2" x1="2325.75" y1="1012.71" x2="2745.55" y2="1012.71"/><line class="cls-2" x1="2325.79" y1="984.41" x2="2746.26" y2="984.41"/><line class="cls-2" x1="2325.75" y1="954.86" x2="2746.26" y2="954.86"/><line class="cls-2" x1="2325.08" y1="924.94" x2="2745.88" y2="924.94"/><line class="cls-2" x1="2325.46" y1="895.51" x2="2746.26" y2="895.51"/><line class="cls-2" x1="2325.79" y1="867.09" x2="2746.03" y2="867.09"/><line class="cls-2" x1="2325.75" y1="839.16" x2="2746.03" y2="839.16"/><line class="cls-2" x1="2325.27" y1="809.66" x2="2745.55" y2="809.66"/><line class="cls-2" x1="2325.75" y1="766.14" x2="2746.26" y2="766.14"/><line class="cls-2" x1="2325.75" y1="737.8" x2="2746.26" y2="737.8"/><line class="cls-2" x1="2324.75" y1="709.45" x2="2745.55" y2="709.45"/><line class="cls-2" x1="2325.79" y1="681.1" x2="2746.59" y2="681.1"/><line class="cls-2" x1="2325.79" y1="652.26" x2="2746.26" y2="652.26"/><line class="cls-2" x1="2325.46" y1="623.41" x2="2745.55" y2="623.41"/><rect class="cls-2" x="2941.41" y="440.11" width="156.81" height="88.21"/><g class="cls-3"><rect class="cls-2" x="3099.01" y="440.11" width="156.81" height="88.21"/></g><rect class="cls-2" x="2976.48" y="548.68" width="121.53" height="88.21"/><rect class="cls-2" x="3099.01" y="548.68" width="121.53" height="88.21"/><rect class="cls-2" x="2991.87" y="656.31" width="106.14" height="88.21"/><rect class="cls-2" x="3099.01" y="656.31" width="105.85" height="88.21"/><rect class="cls-2" x="2980.4" y="764.88" width="117.61" height="88.21"/><rect class="cls-2" x="3099.01" y="764.88" width="117.61" height="88.21"/><rect class="cls-2" x="2941.2" y="885.23" width="156.81" height="61.42"/><g class="cls-3"><rect class="cls-2" x="3099.05" y="885.23" width="156.81" height="61.42"/></g><rect class="cls-2" x="2983.9" y="980.8" width="114.11" height="88.21"/><rect class="cls-2" x="3099.01" y="980.8" width="115.12" height="88.21"/><rect class="cls-2" x="2980.65" y="1088.03" width="117.36" height="88.21"/><rect class="cls-2" x="3099.01" y="1088.03" width="117.36" height="88.21"/><rect class="cls-2" x="2980.4" y="1196.6" width="117.61" height="88.21"/><rect class="cls-2" x="3099.01" y="1196.6" width="117.61" height="88.21"/><rect class="cls-2" x="2980.4" y="1305.18" width="117.61" height="88.21"/><rect class="cls-2" x="3099.01" y="1305.18" width="117.61" height="88.21"/><rect class="cls-2" x="2941.2" y="1413.76" width="156.81" height="88.21"/><g class="cls-3"><rect class="cls-2" x="3099.01" y="1413.76" width="156.81" height="88.21"/></g><rect class="cls-2" x="2941.2" y="1521.38" width="156.81" height="88.21"/><g class="cls-3"><rect class="cls-2" x="3099.01" y="1521.38" width="156.81" height="88.21"/></g><rect class="cls-2" x="2951.66" y="1629.96" width="146.36" height="88.21"/><rect class="cls-2" x="3099.01" y="1629.96" width="146.36" height="88.21"/><rect class="cls-2" x="2941.2" y="1748.34" width="156.81" height="65.34"/><g class="cls-3"><rect class="cls-2" x="3099.04" y="1748.34" width="156.81" height="65.34"/></g><rect class="cls-2" x="2980.4" y="1845.48" width="117.61" height="88.21"/><rect class="cls-2" x="3099.01" y="1845.48" width="117.61" height="88.21"/><rect class="cls-2" x="2980.4" y="1953.1" width="117.61" height="88.21"/><rect class="cls-2" x="3099.01" y="1953.1" width="117.61" height="88.21"/><g class="cls-3"><rect class="cls-2" x="2980.4" y="2061.68" width="117.61" height="88.21"/><rect class="cls-2" x="3099.01" y="2061.68" width="117.61" height="88.21"/></g><rect class="cls-2" x="1818.44" y="440.11" width="156.81" height="88.21"/><rect class="cls-2" x="1976.25" y="440.11" width="156.81" height="88.21"/><rect class="cls-2" x="1854.36" y="548.68" width="120.89" height="88.21"/><rect class="cls-2" x="1976.25" y="548.68" width="120.89" height="88.21"/><rect class="cls-2" x="1818.44" y="656.31" width="156.81" height="88.21"/><rect class="cls-2" x="1976.25" y="656.31" width="156.81" height="88.21"/><rect class="cls-2" x="1818.44" y="764.88" width="156.81" height="88.21"/><rect class="cls-2" x="1976.25" y="764.88" width="156.81" height="88.21"/><rect class="cls-2" x="1857.64" y="871.83" width="117.61" height="88.21"/><rect class="cls-2" x="1976.25" y="871.83" width="117.61" height="88.21"/><rect class="cls-2" x="1818.44" y="980.8" width="156.81" height="88.21"/><rect class="cls-2" x="1976.25" y="980.8" width="156.81" height="88.21"/><rect class="cls-2" x="1857.64" y="1087.53" width="117.61" height="88.21"/><rect class="cls-2" x="1976.25" y="1087.53" width="117.61" height="88.21"/><rect class="cls-2" x="1869.4" y="1196.1" width="105.85" height="88.21"/><rect class="cls-2" x="1976.25" y="1196.1" width="105.85" height="88.21"/><rect class="cls-2" x="1860.26" y="1305.18" width="114.99" height="88.21"/><rect class="cls-2" x="1976.25" y="1305.18" width="114.99" height="88.21"/><rect class="cls-2" x="1864.83" y="1413.76" width="110.42" height="88.21"/><rect class="cls-2" x="1976.25" y="1413.76" width="110.42" height="88.21"/><rect class="cls-2" x="1860.58" y="1520.93" width="114.67" height="88.21"/><rect class="cls-2" x="1976.25" y="1520.93" width="114.67" height="88.21"/><rect class="cls-2" x="1863.08" y="1629.96" width="112.17" height="88.21"/><rect class="cls-2" x="1976.25" y="1629.96" width="114.12" height="88.21"/><rect class="cls-2" x="1857.64" y="1736.9" width="117.61" height="88.21"/><rect class="cls-2" x="1976.25" y="1736.9" width="117.61" height="88.21"/><rect class="cls-2" x="1854.36" y="1845.48" width="120.89" height="88.21"/><rect class="cls-2" x="1976.25" y="1845.48" width="120.89" height="88.21"/><rect class="cls-2" x="1818.44" y="1953.1" width="156.81" height="88.21"/><rect class="cls-2" x="1976.25" y="1953.1" width="156.81" height="88.21"/><g class="cls-3"><rect class="cls-2" x="1818.44" y="2061.68" width="156.81" height="88.21"/><rect class="cls-2" x="1976.25" y="2061.68" width="156.81" height="88.21"/></g><rect class="cls-2" x="693.42" y="439.99" width="156.81" height="88.21"/><rect class="cls-2" x="851.23" y="439.99" width="156.81" height="88.21"/><rect class="cls-2" x="729.34" y="548.04" width="120.89" height="88.21"/><rect class="cls-2" x="851.23" y="548.04" width="120.89" height="88.21"/><rect class="cls-2" x="730.33" y="655.67" width="119.94" height="88.21"/><rect class="cls-2" x="851.23" y="655.67" width="120.18" height="88.21"/><rect class="cls-2" x="703.87" y="764.24" width="146.4" height="88.21"/><rect class="cls-2" x="851.2" y="764.24" width="146.4" height="88.21"/><rect class="cls-2" x="730.02" y="871.19" width="120.18" height="88.21"/><rect class="cls-2" x="732.59" y="979.77" width="117.64" height="88.21"/><rect class="cls-2" x="851.23" y="979.77" width="116.04" height="88.21"/><rect class="cls-2" x="742.32" y="1087.39" width="107.91" height="88.21"/><rect class="cls-2" x="851.23" y="1087.39" width="109.14" height="88.21"/><rect class="cls-2" x="693.42" y="1195.96" width="156.81" height="88.21"/><rect class="cls-2" x="851.23" y="1195.96" width="156.81" height="88.21"/><rect class="cls-2" x="733.09" y="1304.54" width="117.14" height="88.21"/><rect class="cls-2" x="851.23" y="1304.54" width="116.04" height="88.21"/><rect class="cls-2" x="733.09" y="1413.12" width="117.14" height="88.21"/><rect class="cls-2" x="851.23" y="1413.12" width="116.04" height="88.21"/><rect class="cls-2" x="733.09" y="1520.74" width="117.14" height="88.21"/><rect class="cls-2" x="851.23" y="1520.74" width="117.64" height="88.21"/><rect class="cls-2" x="745.05" y="1629.32" width="105.18" height="88.21"/><rect class="cls-2" x="851.23" y="1629.32" width="107.91" height="88.21"/><rect class="cls-2" x="693.45" y="1736.26" width="156.81" height="88.21"/><rect class="cls-2" x="851.23" y="1736.26" width="156.81" height="88.21"/><rect class="cls-2" x="643.97" y="1844.84" width="206.28" height="88.21"/><rect class="cls-2" x="733.28" y="1952.46" width="117.14" height="88.21"/><rect class="cls-2" x="851.23" y="1952.46" width="116.04" height="88.21"/><g class="cls-3"><rect class="cls-2" x="733.09" y="2061.04" width="117.14" height="88.21"/><rect class="cls-2" x="851.23" y="2061.04" width="117.14" height="88.21"/></g><rect class="cls-2" x="225.51" y="1565.98" width="196.89" height="30.63"/><rect class="cls-2" x="225.51" y="1619.57" width="196.89" height="30.63"/><rect class="cls-2" x="225.51" y="1673.16" width="196.89" height="30.63"/><rect class="cls-2" x="225.51" y="1728.15" width="196.89" height="30.63"/><rect class="cls-2" x="225.51" y="1781.73" width="196.89" height="30.63"/><rect class="cls-2" x="225.51" y="1835.32" width="196.89" height="30.63"/><rect class="cls-2" x="225.51" y="1888.91" width="196.89" height="30.63"/><rect class="cls-2" x="225.51" y="1942.49" width="196.89" height="30.63"/><rect class="cls-2" x="225.51" y="1996.08" width="196.89" height="30.63"/><rect class="cls-2" x="1349.59" y="1565.98" width="196.89" height="30.63"/><rect class="cls-2" x="1349.59" y="1619.57" width="196.89" height="30.63"/><rect class="cls-2" x="1349.59" y="1673.16" width="196.89" height="30.63"/><rect class="cls-2" x="1349.59" y="1728.15" width="196.89" height="30.63"/><rect class="cls-2" x="1349.59" y="1781.73" width="196.89" height="30.63"/><rect class="cls-2" x="1349.59" y="1835.32" width="196.89" height="30.63"/><rect class="cls-2" x="1349.59" y="1888.91" width="196.89" height="30.63"/><rect class="cls-2" x="1349.59" y="1942.49" width="196.89" height="30.63"/><rect class="cls-2" x="1349.59" y="1996.08" width="196.89" height="30.63"/><rect class="cls-2" x="2442.03" y="1565.53" width="196.89" height="30.63"/><rect class="cls-2" x="2442.03" y="1619.12" width="196.89" height="30.63"/><rect class="cls-2" x="2442.03" y="1672.71" width="196.89" height="30.63"/><rect class="cls-2" x="2442.03" y="1727.7" width="196.89" height="30.63"/><rect class="cls-2" x="2442.03" y="1781.28" width="196.89" height="30.63"/><rect class="cls-2" x="2442.03" y="1834.87" width="196.89" height="30.63"/><rect class="cls-2" x="2442.03" y="1888.46" width="196.89" height="30.63"/><rect class="cls-2" x="2442.03" y="1942.05" width="196.89" height="30.63"/><rect class="cls-2" x="2442.03" y="1995.63" width="196.89" height="30.63"/><line class="cls-2" x1="322.04" y1="589.21" x2="322.04" y2="477.83"/><line class="cls-2" x1="534.06" y1="629.3" x2="729.2" y2="629.3"/><line class="cls-2" x1="213.12" y1="583.92" x2="213.12" y2="60.24"/><line class="cls-2" x1="321.54" y1="478.21" x2="693.28" y2="478.21"/><g class="cls-3"><line class="cls-2" x1="112.55" y1="667.3" x2="0.71" y2="667.3"/></g><line class="cls-2" x1="534.36" y1="691.59" x2="730.2" y2="691.59"/><line class="cls-2" x1="113.21" y1="722.57" x2="11.67" y2="722.57"/><line class="cls-2" x1="533.65" y1="750.34" x2="688.13" y2="750.34"/><line class="cls-2" x1="687.63" y1="750.84" x2="687.63" y2="813.36"/><line class="cls-2" x1="688.13" y1="812.86" x2="703.73" y2="812.86"/><line class="cls-2" x1="533.6" y1="779.77" x2="675.15" y2="779.77"/><line class="cls-2" x1="533.36" y1="809.19" x2="662.82" y2="809.19"/><line class="cls-2" x1="533.16" y1="864.35" x2="650.2" y2="864.35"/><line class="cls-2" x1="533.36" y1="938.3" x2="639.02" y2="938.3"/><line class="cls-2" x1="638.52" y1="937.8" x2="638.52" y2="1240.71"/><line class="cls-2" x1="675.37" y1="779.27" x2="675.37" y2="915.93"/><line class="cls-2" x1="662.62" y1="808.69" x2="662.62" y2="1024.51"/><line class="cls-2" x1="650.69" y1="863.85" x2="650.69" y2="1127.86"/><line class="cls-2" x1="589.25" y1="1113.11" x2="589.25" y2="1674.06"/><line class="cls-2" x1="613.97" y1="1010.66" x2="613.97" y2="1457.86"/><line class="cls-2" x1="601" y1="1076.79" x2="601" y2="1565.48"/><line class="cls-2" x1="626.43" y1="972.16" x2="626.43" y2="1349.28"/><line class="cls-2" x1="577.28" y1="1147.59" x2="577.28" y2="1779.37"/><line class="cls-2" x1="565.61" y1="1224.82" x2="565.61" y2="1889.58"/><line class="cls-2" x1="552.31" y1="1311.61" x2="552.31" y2="1997.21"/><line class="cls-2" x1="534.36" y1="972.66" x2="626.43" y2="972.66"/><line class="cls-2" x1="534.32" y1="1011.16" x2="613.47" y2="1011.16"/><line class="cls-2" x1="533.65" y1="1076.79" x2="601.5" y2="1076.79"/><line class="cls-2" x1="534.32" y1="1113.61" x2="589.75" y2="1113.61"/><line class="cls-2" x1="534.32" y1="1148.09" x2="577.78" y2="1148.09"/><line class="cls-2" x1="533.65" y1="1225.32" x2="566.11" y2="1225.32"/><line class="cls-2" x1="533.65" y1="1312.11" x2="552.81" y2="1312.11"/><line class="cls-2" x1="73.41" y1="1254.92" x2="73.41" y2="1688.47"/><line class="cls-2" x1="97.51" y1="1342.62" x2="97.51" y2="1581.3"/><line class="cls-2" x1="85.58" y1="1283.26" x2="85.58" y2="1634.88"/><line class="cls-2" x1="24.14" y1="838.61" x2="24.14" y2="1904.22"/><line class="cls-2" x1="48.86" y1="1040.01" x2="48.86" y2="1797.05"/><line class="cls-2" x1="35.89" y1="896.96" x2="35.89" y2="1850.63"/><line class="cls-2" x1="61.32" y1="1190.63" x2="61.32" y2="1743.46"/><line class="cls-2" x1="12.17" y1="722.57" x2="12.17" y2="1957.81"/><g class="cls-3"><line class="cls-2" x1="0.5" y1="666.8" x2="0.5" y2="2011.39"/></g><line class="cls-2" x1="674.87" y1="915.93" x2="729.88" y2="915.93"/><line class="cls-2" x1="662.12" y1="1024.51" x2="732.45" y2="1024.51"/><line class="cls-2" x1="650.19" y1="1127.86" x2="742.19" y2="1127.86"/><line class="cls-2" x1="638.02" y1="1240.71" x2="693.28" y2="1240.71"/><line class="cls-2" x1="625.93" y1="1349.28" x2="732.96" y2="1349.28"/><line class="cls-2" x1="613.47" y1="1457.86" x2="732.96" y2="1457.86"/><line class="cls-2" x1="588.75" y1="1674.06" x2="744.92" y2="1674.06"/><line class="cls-2" x1="576.78" y1="1779.87" x2="693.27" y2="1779.87"/><line class="cls-2" x1="565.4" y1="1889.12" x2="643.47" y2="1889.12"/><line class="cls-2" x1="551.81" y1="1997.21" x2="732.78" y2="1997.21"/><line class="cls-2" x1="600.5" y1="1565.48" x2="732.96" y2="1565.48"/><line class="cls-2" x1="24.14" y1="839.11" x2="113.52" y2="839.11"/><line class="cls-2" x1="35.39" y1="897.46" x2="113.52" y2="897.46"/><line class="cls-2" x1="48.86" y1="1040.51" x2="113.55" y2="1040.51"/><line class="cls-2" x1="61.32" y1="1191.13" x2="113.52" y2="1191.13"/><line class="cls-2" x1="73.91" y1="1255.42" x2="113.55" y2="1255.42"/><line class="cls-2" x1="85.58" y1="1283.76" x2="113.55" y2="1283.76"/><line class="cls-2" x1="97.01" y1="1343.12" x2="113.55" y2="1343.12"/><line class="cls-2" x1="97.01" y1="1581.3" x2="225.01" y2="1581.3"/><line class="cls-2" x1="85.08" y1="1634.88" x2="225.01" y2="1634.88"/><line class="cls-2" x1="72.91" y1="1688.47" x2="225.01" y2="1688.47"/><line class="cls-2" x1="60.82" y1="1743.46" x2="225.01" y2="1743.46"/><line class="cls-2" x1="48.36" y1="1797.05" x2="225.01" y2="1797.05"/><line class="cls-2" x1="35.39" y1="1850.63" x2="225.01" y2="1850.63"/><line class="cls-2" x1="23.64" y1="1904.22" x2="225.01" y2="1904.22"/><line class="cls-2" x1="11.67" y1="1957.81" x2="225.01" y2="1957.81"/><g class="cls-3"><line class="cls-2" y1="2011.39" x2="225.01" y2="2011.39"/></g><line class="cls-2" x1="212.62" y1="60.74" x2="1417.01" y2="60.74"/><rect class="cls-2" x="851.2" y="871.19" width="120.18" height="88.21"/><line class="cls-2" x1="1811.37" y1="694.95" x2="1811.37" y2="809.66"/><line class="cls-2" x1="1762.26" y1="999.95" x2="1762.26" y2="1241.21"/><line class="cls-2" x1="1799.11" y1="723.07" x2="1799.11" y2="924.94"/><line class="cls-2" x1="1786.35" y1="853.59" x2="1786.35" y2="1025.01"/><line class="cls-2" x1="1774.43" y1="885.15" x2="1774.43" y2="1132.63"/><line class="cls-2" x1="1712.99" y1="1216.17" x2="1712.99" y2="1674.56"/><line class="cls-2" x1="1737.71" y1="1087.53" x2="1737.71" y2="1458.36"/><line class="cls-2" x1="1724.74" y1="1176.24" x2="1724.74" y2="1565.98"/><line class="cls-2" x1="1750.17" y1="1041.01" x2="1750.17" y2="1349.78"/><line class="cls-2" x1="1701.02" y1="1240.71" x2="1701.02" y2="1785.11"/><line class="cls-2" x1="1689.35" y1="1272.94" x2="1689.35" y2="1889.58"/><line class="cls-2" x1="1676.05" y1="1299.93" x2="1676.05" y2="1997.71"/><line class="cls-2" x1="1554.82" y1="589.73" x2="1554.82" y2="478.71"/><line class="cls-2" x1="1325.01" y1="584.39" x2="1325.01" y2="204.3"/><line class="cls-2" x1="1658.41" y1="632.43" x2="1853.86" y2="632.43"/><line class="cls-2" x1="1657.92" y1="668.3" x2="1817.94" y2="668.3"/><line class="cls-2" x1="1658.44" y1="695.45" x2="1810.87" y2="695.45"/><line class="cls-2" x1="1555.32" y1="479.21" x2="1817.94" y2="479.21"/><line class="cls-2" x1="1799.11" y1="723.57" x2="1657.92" y2="723.57"/><line class="cls-2" x1="1786.85" y1="853.59" x2="1658.44" y2="853.59"/><line class="cls-2" x1="1194.93" y1="1114.11" x2="1194.93" y2="1689.84"/><line class="cls-2" x1="1219.02" y1="1328.61" x2="1219.02" y2="1581.8"/><line class="cls-2" x1="1207.1" y1="1141.68" x2="1207.1" y2="1635.54"/><line class="cls-2" x1="1145.65" y1="827.04" x2="1145.65" y2="1905.09"/><line class="cls-2" x1="1170.38" y1="938.8" x2="1170.38" y2="1798.41"/><line class="cls-2" x1="1157.41" y1="912.78" x2="1157.41" y2="1851.13"/><line class="cls-2" x1="1182.84" y1="969.74" x2="1182.84" y2="1744.83"/><line class="cls-2" x1="1133.69" y1="794.94" x2="1133.69" y2="1958.67"/><line class="cls-2" x1="1122.02" y1="763.88" x2="1122.02" y2="2012.26"/><line class="cls-2" x1="1774.93" y1="885.15" x2="1658.44" y2="885.15"/><line class="cls-2" x1="1762.76" y1="999.95" x2="1657.92" y2="999.95"/><line class="cls-2" x1="1750.17" y1="1041.51" x2="1658.41" y2="1041.51"/><line class="cls-2" x1="1738.21" y1="1087.53" x2="1658.4" y2="1087.53"/><line class="cls-2" x1="1121.52" y1="764.17" x2="1237.12" y2="764.17"/><line class="cls-2" x1="1133.19" y1="794.94" x2="1237.12" y2="794.94"/><line class="cls-2" x1="1145.15" y1="827.04" x2="1237.12" y2="827.04"/><line class="cls-2" x1="1157.91" y1="913.28" x2="1237.12" y2="913.28"/><line class="cls-2" x1="1170.88" y1="939.3" x2="1237.12" y2="939.3"/><line class="cls-2" x1="1182.84" y1="970.24" x2="1237.12" y2="970.24"/><line class="cls-2" x1="1195.43" y1="1114.61" x2="1237.12" y2="1114.61"/><line class="cls-2" x1="1206.6" y1="1141.68" x2="1237.12" y2="1141.68"/><line class="cls-2" x1="1219.02" y1="1329.11" x2="1237.42" y2="1329.11"/><line class="cls-2" x1="1219.52" y1="1581.3" x2="1349.1" y2="1581.3"/><line class="cls-2" x1="1207.6" y1="1635.04" x2="1349.1" y2="1635.04"/><line class="cls-2" x1="1195.43" y1="1689.34" x2="1349.1" y2="1689.34"/><line class="cls-2" x1="1676.05" y1="1300.43" x2="1658.41" y2="1300.43"/><line class="cls-2" x1="1689.85" y1="1272.94" x2="1657.41" y2="1272.94"/><line class="cls-2" x1="1701.02" y1="1241.21" x2="1658.4" y2="1241.21"/><line class="cls-2" x1="1713.49" y1="1216.16" x2="1657.92" y2="1216.16"/><line class="cls-2" x1="1724.74" y1="1176.74" x2="1658.4" y2="1176.74"/><line class="cls-2" x1="1182.84" y1="1744.33" x2="1349.09" y2="1744.33"/><line class="cls-2" x1="1170.88" y1="1797.91" x2="1349.1" y2="1797.91"/><line class="cls-2" x1="1157.91" y1="1850.63" x2="1349.1" y2="1850.63"/><line class="cls-2" x1="1145.15" y1="1905.09" x2="1349.09" y2="1905.09"/><line class="cls-2" x1="1133.19" y1="1958.67" x2="1349.1" y2="1958.67"/><line class="cls-2" x1="1121.52" y1="2012.26" x2="1349.1" y2="2012.26"/><line class="cls-2" x1="1571.83" y1="1378.66" x2="1571.83" y2="2105.28"/><line class="cls-2" x1="1571.33" y1="2105.28" x2="1817.94" y2="2105.28"/><line class="cls-2" x1="1750.17" y1="1349.28" x2="1857.14" y2="1349.28"/><line class="cls-2" x1="1761.76" y1="1241.71" x2="1868.9" y2="1241.71"/><line class="cls-2" x1="1737.21" y1="1457.86" x2="1864.33" y2="1457.86"/><line class="cls-2" x1="1724.24" y1="1565.98" x2="1860.08" y2="1565.98"/><line class="cls-2" x1="1712.49" y1="1674.56" x2="1862.58" y2="1674.56"/><line class="cls-2" x1="1700.52" y1="1785.12" x2="1857.14" y2="1785.12"/><line class="cls-2" x1="1688.85" y1="1889.58" x2="1853.86" y2="1889.58"/><line class="cls-2" x1="1675.55" y1="1997.71" x2="1817.94" y2="1997.71"/><line class="cls-2" x1="1773.93" y1="1132.63" x2="1857.14" y2="1132.63"/><line class="cls-2" x1="1799.61" y1="924.44" x2="1857.14" y2="924.44"/><line class="cls-2" x1="1810.87" y1="810.19" x2="1817.94" y2="810.19"/><line class="cls-2" x1="1785.85" y1="1024.51" x2="1817.94" y2="1024.51"/><line class="cls-2" x1="1325.51" y1="204.8" x2="1417.01" y2="204.8"/><line class="cls-2" x1="1838.78" y1="336.64" x2="2540.48" y2="336.64"/><line class="cls-2" x1="2539.98" y1="583.82" x2="2539.98" y2="336.14"/><line class="cls-2" x1="2648.08" y1="589.73" x2="2648.08" y2="479.71"/><line class="cls-2" x1="2900.6" y1="752.3" x2="2900.6" y2="815.12"/><line class="cls-2" x1="2851.5" y1="999.95" x2="2851.5" y2="1246.67"/><line class="cls-2" x1="2888.35" y1="883.81" x2="2888.35" y2="930.4"/><line class="cls-2" x1="2875.59" y1="939.3" x2="2875.59" y2="1028.97"/><line class="cls-2" x1="2863.67" y1="969.11" x2="2863.67" y2="1138.09"/><line class="cls-2" x1="2802.22" y1="1141.68" x2="2802.22" y2="1680.02"/><line class="cls-2" x1="2826.94" y1="1083.73" x2="2826.94" y2="1463.82"/><line class="cls-2" x1="2813.98" y1="1113.49" x2="2813.98" y2="1571.44"/><line class="cls-2" x1="2839.41" y1="1059.48" x2="2839.41" y2="1355.24"/><line class="cls-2" x1="2790.26" y1="1177.24" x2="2790.26" y2="1790.58"/><line class="cls-2" x1="2778.59" y1="1272.44" x2="2778.59" y2="1895.04"/><line class="cls-2" x1="2765.29" y1="1304.68" x2="2765.29" y2="2003.17"/><line class="cls-2" x1="2839.41" y1="1354.74" x2="2980.6" y2="1354.74"/><line class="cls-2" x1="2851" y1="1247.17" x2="2979.9" y2="1247.17"/><line class="cls-2" x1="2826.44" y1="1463.32" x2="2940.7" y2="1463.32"/><line class="cls-2" x1="2813.48" y1="1571.44" x2="2940.7" y2="1571.44"/><line class="cls-2" x1="2801.72" y1="1680.02" x2="2951.82" y2="1680.02"/><line class="cls-2" x1="2789.76" y1="1790.58" x2="2941.05" y2="1790.58"/><line class="cls-2" x1="2778.09" y1="1895.04" x2="2980.45" y2="1895.04"/><line class="cls-2" x1="2764.79" y1="2003.17" x2="2980.28" y2="2003.17"/><line class="cls-2" x1="2863.17" y1="1138.09" x2="2980.15" y2="1138.09"/><line class="cls-2" x1="2888.85" y1="929.9" x2="2940.91" y2="929.9"/><line class="cls-2" x1="2900.1" y1="815.65" x2="2980.15" y2="815.65"/><line class="cls-2" x1="2875.09" y1="1028.97" x2="2984" y2="1028.97"/><line class="cls-2" x1="2283.76" y1="1026.95" x2="2283.76" y2="1689.21"/><line class="cls-2" x1="2307.85" y1="1242.21" x2="2307.85" y2="1581.17"/><line class="cls-2" x1="2295.92" y1="1215.66" x2="2295.92" y2="1634.92"/><line class="cls-2" x1="2234.48" y1="783.71" x2="2234.48" y2="1904.46"/><line class="cls-2" x1="2259.2" y1="853.09" x2="2259.2" y2="1797.79"/><line class="cls-2" x1="2246.24" y1="826.54" x2="2246.24" y2="1850.51"/><line class="cls-2" x1="2271.67" y1="912.18" x2="2271.67" y2="1744.2"/><line class="cls-2" x1="2222.52" y1="724.07" x2="2222.52" y2="1958.05"/><line class="cls-2" x1="2210.84" y1="668.8" x2="2210.84" y2="2011.64"/><line class="cls-2" x1="2308.35" y1="1580.67" x2="2441.53" y2="1580.67"/><line class="cls-2" x1="2296.42" y1="1634.42" x2="2441.53" y2="1634.42"/><line class="cls-2" x1="2284.26" y1="1688.71" x2="2441.53" y2="1688.71"/><line class="cls-2" x1="2271.67" y1="1743.7" x2="2441.53" y2="1743.7"/><line class="cls-2" x1="2259.7" y1="1797.29" x2="2441.53" y2="1797.29"/><line class="cls-2" x1="2246.74" y1="1850.01" x2="2441.53" y2="1850.01"/><line class="cls-2" x1="2233.98" y1="1904.46" x2="2441.53" y2="1904.46"/><line class="cls-2" x1="2222.02" y1="1958.05" x2="2441.53" y2="1958.05"/><line class="cls-2" x1="2210.34" y1="2011.64" x2="2441.53" y2="2011.64"/><line class="cls-2" x1="2746.26" y1="631.01" x2="2976.34" y2="631.01"/><line class="cls-2" x1="2746.26" y1="695.95" x2="2991.79" y2="695.95"/><line class="cls-2" x1="2670.96" y1="1360.52" x2="2670.96" y2="2105.28"/><line class="cls-2" x1="2670.96" y1="2104.78" x2="2979.9" y2="2104.78"/><line class="cls-2" x1="2210.34" y1="668.8" x2="2325.46" y2="668.8"/><line class="cls-2" x1="2222.02" y1="724.07" x2="2325.79" y2="724.07"/><line class="cls-2" x1="2233.98" y1="783.71" x2="2325.79" y2="783.71"/><line class="cls-2" x1="2245.74" y1="826.54" x2="2325.79" y2="826.54"/><line class="cls-2" x1="2258.7" y1="853.38" x2="2325.46" y2="853.38"/><line class="cls-2" x1="2271.17" y1="911.68" x2="2325.46" y2="911.68"/><line class="cls-2" x1="2901.1" y1="752.3" x2="2746.59" y2="752.3"/><line class="cls-2" x1="2888.85" y1="883.81" x2="2745.55" y2="883.81"/><line class="cls-2" x1="2876.09" y1="939.3" x2="2746.59" y2="939.3"/><line class="cls-2" x1="2864.17" y1="969.11" x2="2746.59" y2="969.11"/><line class="cls-2" x1="2852" y1="999.95" x2="2746.26" y2="999.95"/><line class="cls-2" x1="2839.91" y1="1059.48" x2="2746.26" y2="1059.48"/><line class="cls-2" x1="2827.44" y1="1083.73" x2="2745.55" y2="1083.73"/><line class="cls-2" x1="2814.48" y1="1113.49" x2="2745.55" y2="1113.49"/><line class="cls-2" x1="2802.72" y1="1141.68" x2="2745.88" y2="1141.68"/><line class="cls-2" x1="2790.76" y1="1177.24" x2="2745.88" y2="1177.24"/><line class="cls-2" x1="2779.09" y1="1272.36" x2="2746.26" y2="1272.36"/><line class="cls-2" x1="2765.79" y1="1304.68" x2="2745.88" y2="1304.68"/><line class="cls-2" x1="2325.75" y1="1027.45" x2="2283.76" y2="1027.45"/><line class="cls-2" x1="2295.42" y1="1215.66" x2="2325.08" y2="1215.66"/><line class="cls-2" x1="2307.35" y1="1242.21" x2="2325.75" y2="1242.21"/><line class="cls-2" x1="446.11" y1="1391.84" x2="446.11" y2="2105.78"/><line class="cls-2" x1="446.11" y1="2105.28" x2="733.46" y2="2105.28"/><line class="cls-2" x1="2648.58" y1="480.21" x2="2940.91" y2="480.21"/><rect class="cls-2" x="2319.32" y="584.32" width="432.43" height="780.51"/><rect class="cls-2" x="1230.98" y="584.32" width="432.43" height="798.94"/><rect class="cls-2" x="107.75" y="584.42" width="431.74" height="812.73"/><rect class="cls-2" x="851.26" y="1844.84" width="206.28" height="88.21"/></svg>