<svg xmlns="http://www.w3.org/2000/svg" data-name="Layer 1" viewBox="0 0 3256.36 2150.39"><defs><clipPath id="a" transform="translate(-64.17 -61.82)"><path d="M64.17 54.82h3256.36v2157.39H64.17z" fill="none"/></clipPath></defs><path d="M1417.51.5h420.77v408.61h-420.77zm-.24 265.04h421.22m-420.95-128.98h420.95M113.34 589.71h420.51v801.63H113.34zm1123.8.01h420.77v788.44h-420.77zm1088.15-.45h420.77v770.75h-420.77zM112.84 623.7h421.22m-421.22 27.64h421.22m-421.22 29.05h420.48m-420.48 29.77h420.81M112.84 737.8h420.81m-420.81 30.47h420.81m-420.81 503.15h420.81m-420.81-29.06h420.81m-420.13-28.34h420.8m-420.8-42.58h420.13m-420.13-43.15h420.13m-420.13-28.76h420.13m-420.1-44.61h420.1m-420.81-27.99h420.81m-420.81-29.76h420.81m-420.81-41.53h420.81m-420.81-30.05h420.81m-420.81-43.23h420.81m-420.81-27.63h421.52m-421.52-29.77h420.81m-420.81-28.35h420.81m-420.81 559.98h420.81m-420.81-26.78h420.81m-420.81-28.91h420.81m703.99-677.04h420.28m-420.8 632.56h420.8m-420.8-28.35h420.8m-420.8-28.35h420.8m-420.28-44.57h420.28m-420.8-27.29h420.8m-420.8-28.93h420.8m-420.8-28.92h420.8m-420.8-57.85h420.8m-420.28-27.3h420.28m-420.8-30.55h420.8m-420.8-28.92h420.8m-420.28-28.93h420.28m-420.28-28.92h420.28m-420.28-28.93h420.28m-420.8-28.92h420.8m-420.28-28.92h420.28m-420.8-43.52h420.28m-420.28-28.35h420.28m-420.8-28.35h420.8m-420.28-28.34h420.8m-420.28 690.66h420.28m-420.28-29.76h420.28m-420.8-28.35h420.8m667.83 44.57h420.13m-420.09-44.52h420.09m-420.13-28.34h420.51m-421.18-27.85h420.8m-420.13-28.35h420.13m-421.13-44.57h420.8m-420.8-27.79h420.8m-420.8-30.43h420.8m-420.19-26.92h420.19m-419.8-29.55h419.8m-419.8-28.3h419.8m-419.76-28.3h420.47m-420.51-29.55h420.51m-421.18-29.92h420.8m-420.42-29.43h420.8m-420.47-28.42h420.24m-420.28-27.93h420.28m-420.76-29.5h420.28m-419.8-43.52h420.51m-420.51-28.34h420.51m-421.51-28.35h420.8m-419.76-28.35h420.8m-420.8-28.84h420.47m-420.8-28.85h420.09m195.86-183.3h156.81v88.21h-156.81z" fill="none" stroke="#fff"/><g clip-path="url(#a)"><path d="M3099.01 440.11h156.81v88.21h-156.81z" fill="none" stroke="#fff"/></g><path d="M2976.48 548.68h121.53v88.21h-121.53zm122.53 0h121.53v88.21h-121.53zm-107.14 107.63h106.14v88.21h-106.14zm107.14 0h105.85v88.21h-105.85zM2980.4 764.88h117.61v88.21H2980.4zm118.61 0h117.61v88.21h-117.61zM2941.2 885.23h156.81v61.42H2941.2z" fill="none" stroke="#fff"/><g clip-path="url(#a)"><path d="M3099.05 885.23h156.81v61.42h-156.81z" fill="none" stroke="#fff"/></g><path d="M2983.9 980.8h114.11v88.21H2983.9zm115.11 0h115.12v88.21h-115.12zm-118.36 107.23h117.36v88.21h-117.36zm118.36 0h117.36v88.21h-117.36zM2980.4 1196.6h117.61v88.21H2980.4zm118.61 0h117.61v88.21h-117.61zm-118.61 108.58h117.61v88.21H2980.4zm118.61 0h117.61v88.21h-117.61zm-157.81 108.58h156.81v88.21H2941.2z" fill="none" stroke="#fff"/><g clip-path="url(#a)"><path d="M3099.01 1413.76h156.81v88.21h-156.81z" fill="none" stroke="#fff"/></g><path d="M2941.2 1521.38h156.81v88.21H2941.2z" fill="none" stroke="#fff"/><g clip-path="url(#a)"><path d="M3099.01 1521.38h156.81v88.21h-156.81z" fill="none" stroke="#fff"/></g><path d="M2951.66 1629.96h146.36v88.21h-146.36zm147.35 0h146.36v88.21h-146.36zm-157.81 118.38h156.81v65.34H2941.2z" fill="none" stroke="#fff"/><g clip-path="url(#a)"><path d="M3099.04 1748.34h156.81v65.34h-156.81z" fill="none" stroke="#fff"/></g><path d="M2980.4 1845.48h117.61v88.21H2980.4zm118.61 0h117.61v88.21h-117.61zM2980.4 1953.1h117.61v88.21H2980.4zm118.61 0h117.61v88.21h-117.61z" fill="none" stroke="#fff"/><g fill="none" stroke="#fff" clip-path="url(#a)"><path d="M2980.4 2061.68h117.61v88.21H2980.4zm118.61 0h117.61v88.21h-117.61z"/></g><path d="M1818.44 440.11h156.81v88.21h-156.81zm157.81 0h156.81v88.21h-156.81zm-121.89 108.57h120.89v88.21h-120.89zm121.89 0h120.89v88.21h-120.89zm-157.81 107.63h156.81v88.21h-156.81zm157.81 0h156.81v88.21h-156.81zm-157.81 108.57h156.81v88.21h-156.81zm157.81 0h156.81v88.21h-156.81zm-118.61 106.95h117.61v88.21h-117.61zm118.61 0h117.61v88.21h-117.61zM1818.44 980.8h156.81v88.21h-156.81zm157.81 0h156.81v88.21h-156.81zm-118.61 106.73h117.61v88.21h-117.61zm118.61 0h117.61v88.21h-117.61zM1869.4 1196.1h105.85v88.21H1869.4zm106.85 0h105.85v88.21h-105.85zm-115.99 109.08h114.99v88.21h-114.99zm115.99 0h114.99v88.21h-114.99zm-111.42 108.58h110.42v88.21h-110.42zm111.42 0h110.42v88.21h-110.42zm-115.67 107.17h114.67v88.21h-114.67zm115.67 0h114.67v88.21h-114.67zm-113.17 109.03h112.17v88.21h-112.17zm113.17 0h114.12v88.21h-114.12zm-118.61 106.94h117.61v88.21h-117.61zm118.61 0h117.61v88.21h-117.61zm-121.89 108.58h120.89v88.21h-120.89zm121.89 0h120.89v88.21h-120.89zm-157.81 107.62h156.81v88.21h-156.81zm157.81 0h156.81v88.21h-156.81z" fill="none" stroke="#fff"/><g fill="none" stroke="#fff" clip-path="url(#a)"><path d="M1818.44 2061.68h156.81v88.21h-156.81zm157.81 0h156.81v88.21h-156.81z"/></g><path d="M693.42 439.99h156.81v88.21H693.42zm157.81 0h156.81v88.21H851.23zM729.34 548.04h120.89v88.21H729.34zm121.89 0h120.89v88.21H851.23zm-120.9 107.63h119.94v88.21H730.33zm120.9 0h120.18v88.21H851.23zM703.87 764.24h146.4v88.21h-146.4zm147.33 0h146.4v88.21H851.2zM730.02 871.19H850.2v88.21H730.02zm2.57 108.58h117.64v88.21H732.59zm118.64 0h116.04v88.21H851.23zm-108.91 107.62h107.91v88.21H742.32zm108.91 0h109.14v88.21H851.23zm-157.81 108.57h156.81v88.21H693.42zm157.81 0h156.81v88.21H851.23zm-118.14 108.58h117.14v88.21H733.09zm118.14 0h116.04v88.21H851.23zm-118.14 108.58h117.14v88.21H733.09zm118.14 0h116.04v88.21H851.23zm-118.14 107.62h117.14v88.21H733.09zm118.14 0h117.64v88.21H851.23zm-106.18 108.58h105.18v88.21H745.05zm106.18 0h107.91v88.21H851.23zm-157.78 106.94h156.81v88.21H693.45zm157.78 0h156.81v88.21H851.23zm-207.26 108.58h206.28v88.21H643.97zm89.31 107.62h117.14v88.21H733.28zm117.95 0h116.04v88.21H851.23z" fill="none" stroke="#fff"/><g fill="none" stroke="#fff" clip-path="url(#a)"><path d="M733.09 2061.04h117.14v88.21H733.09zm118.14 0h117.14v88.21H851.23z"/></g><path d="M225.51 1565.98H422.4v30.63H225.51zm0 53.59H422.4v30.63H225.51zm0 53.59H422.4v30.63H225.51zm0 54.99H422.4v30.63H225.51zm0 53.58H422.4v30.63H225.51zm0 53.59H422.4v30.63H225.51zm0 53.59H422.4v30.63H225.51zm0 53.58H422.4v30.63H225.51zm0 53.59H422.4v30.63H225.51zm1124.08-430.1h196.89v30.63h-196.89zm0 53.59h196.89v30.63h-196.89zm0 53.59h196.89v30.63h-196.89zm0 54.99h196.89v30.63h-196.89zm0 53.58h196.89v30.63h-196.89zm0 53.59h196.89v30.63h-196.89zm0 53.59h196.89v30.63h-196.89zm0 53.58h196.89v30.63h-196.89zm0 53.59h196.89v30.63h-196.89zm1092.44-430.55h196.89v30.63h-196.89zm0 53.59h196.89v30.63h-196.89zm0 53.59h196.89v30.63h-196.89zm0 54.99h196.89v30.63h-196.89zm0 53.58h196.89v30.63h-196.89zm0 53.59h196.89v30.63h-196.89zm0 53.59h196.89v30.63h-196.89zm0 53.59h196.89v30.63h-196.89zm0 53.58h196.89v30.63h-196.89zM322.04 589.21V477.83M534.06 629.3H729.2m-516.08-45.38V60.24m108.42 417.97h371.74" fill="none" stroke="#fff"/><g clip-path="url(#a)"><path d="M112.55 667.3H.71" fill="none" stroke="#fff"/></g><path d="M534.36 691.59H730.2m-616.99 30.98H11.67m521.98 27.77h154.48m-.5.5v62.52m.5-.5h15.6M533.6 779.77h141.55m-141.79 29.42h129.46m-129.66 55.16H650.2M533.36 938.3h105.66m-.5-.5v302.91m36.85-461.44v136.66m-12.75-107.24v215.82m-11.93-160.66v264.01m-61.44-14.75v560.95m24.72-663.4v447.2M601 1076.79v488.69m25.43-593.32v377.12m-49.15-201.69v631.78m-11.67-554.55v664.76m-13.3-577.97v685.6M534.36 972.66h92.07m-92.11 38.5h79.15m-79.82 65.63h67.85m-67.18 36.82h55.43m-55.43 34.48h43.46m-44.13 77.23h32.46m-32.46 86.79h19.16m-479.4-57.19v433.55m24.1-345.85v238.68m-11.93-298.04v351.62M24.14 838.61v1065.61m24.72-864.21v757.04M35.89 896.96v953.67m25.43-660v552.83M12.17 722.57v1235.24" fill="none" stroke="#fff"/><g clip-path="url(#a)"><path d="M.5 666.8v1344.59" fill="none" stroke="#fff"/></g><path d="M674.87 915.93h55.01m-67.76 108.58h70.33m-82.26 103.35h92m-104.17 112.85h55.26m-67.35 108.57h107.03m-119.49 108.58h119.49m-144.21 216.2h156.17m-168.14 105.81h116.49M565.4 1889.12h78.07m-91.66 108.09h180.97M600.5 1565.48h132.46M24.14 839.11h89.38m-78.13 58.35h78.13m-64.66 143.05h64.69m-52.23 150.62h52.2m-39.61 64.29h39.64m-27.97 28.34h27.97m-16.54 59.36h16.54M97.01 1581.3h128m-139.93 53.58h139.93m-152.1 53.59h152.1m-164.19 54.99h164.19m-176.65 53.59h176.65m-189.62 53.58h189.62m-201.37 53.59h201.37m-213.34 53.59h213.34" fill="none" stroke="#fff"/><g clip-path="url(#a)"><path d="M0 2011.39h225.01" fill="none" stroke="#fff"/></g><path d="M212.62 60.74h1204.39M851.2 871.19h120.18v88.21H851.2zm960.17-176.24v114.71m-49.11 190.29v241.26m36.85-518.14v201.87m-12.76-71.35v171.42m-11.92-139.86v247.48m-61.44 83.54v458.39m24.72-587.03v370.83m-12.97-282.12v389.74m25.43-524.97v308.77m-49.15-109.07v544.4m-11.67-512.17v616.64m-13.3-589.65v697.78M1554.82 589.73V478.71m-229.81 105.68V204.3m333.4 428.13h195.45m-195.94 35.87h160.02m-159.5 27.15h152.43m-255.55-216.24h262.62m-18.83 244.36h-141.19m128.93 130.02h-128.41m-463.51 260.52v575.73m24.09-361.23v253.19m-11.92-440.12v493.86m-61.45-808.5v1078.05m24.73-966.29v859.61m-12.97-885.63v938.35m25.43-881.39v775.09m-49.15-949.89v1163.73m-11.67-1194.79v1248.38m652.91-1127.11h-116.49m104.32 114.8h-104.84m92.25 41.56h-91.76m79.8 46.02h-79.81m-536.88-323.36h115.6m-103.93 30.77h103.93m-91.97 32.1h91.97m-79.21 86.24h79.21m-66.24 26.02h66.24m-54.28 30.94h54.28m-41.69 144.37h41.69m-30.52 27.07h30.52m-18.1 187.43h18.4m-17.9 252.19h129.58m-141.5 53.74h141.5m-153.67 54.3h153.67m326.95-388.91h-17.64m31.44-27.49h-32.44m43.61-31.73h-42.62m55.09-25.05h-55.57m66.82-39.42h-66.34m-475.56 567.59h166.25m-178.21 53.58h178.22m-191.19 52.72h191.19m-203.95 54.46h203.94m-215.9 53.58h215.91m-227.58 53.59h227.58m222.73-633.6v726.62m-.5 0h246.61m-67.77-756h106.97m-95.38-107.57h107.14m-131.69 216.15h127.12m-140.09 108.12h135.84m-147.59 108.58h150.09m-162.06 110.56h156.62m-168.29 104.46h165.01m-178.31 108.13h142.39m-44.01-865.08h83.21m-57.53-208.19h57.53m-46.27-114.25h7.07m-32.09 214.32h32.09M1325.51 204.8h91.5m421.77 131.84h701.7m-.5 247.18V336.14m108.1 253.59V479.71M2900.6 752.3v62.82m-49.1 184.83v246.72m36.85-362.86v46.59m-12.76 8.9v89.67m-11.92-59.86v168.98m-61.45 3.59v538.34m24.72-596.29v380.09m-12.96-350.33v457.95m25.43-511.96v295.76m-49.15-178v613.34m-11.67-518.14v622.6m-13.3-590.36v698.49m74.12-648.43h141.19M2851 1247.17h128.9m-153.46 216.15h114.26m-127.22 108.12h127.22m-138.98 108.58h150.1m-162.06 110.56h151.29m-162.96 104.46h202.36m-215.66 108.13h215.49m-117.11-865.08h116.98m-91.3-208.19h52.06m-40.81-114.25h80.05m-105.06 213.32H2984m-700.24-2.02v662.26m24.09-447v338.96m-11.93-365.51v419.26m-61.44-851.21v1120.75m24.72-1051.37v944.7m-12.96-971.25v1023.97m25.43-938.33v832.02m-49.15-1020.13v1233.98M2210.84 668.8v1342.84m97.51-430.97h133.18m-145.11 53.75h145.11m-157.27 54.29h157.27m-169.86 54.99h169.86m-181.83 53.59h181.83m-194.79 52.72h194.79m-207.55 54.45h207.55m-219.51 53.59h219.51m-231.19 53.59h231.19m304.73-1380.63h230.08m-230.08 64.94h245.53m-320.83 664.57v744.76m0-.5h308.94M2210.34 668.8h115.12m-103.44 55.27h103.77m-91.81 59.64h91.81m-80.05 42.83h80.05m-67.09 26.84h66.76m-54.29 58.3h54.29M2901.1 752.3h-154.51m142.26 131.51h-143.3m130.54 55.49h-129.5m117.58 29.81h-117.58M2852 999.95h-105.74m93.65 59.53h-93.65m81.18 24.25h-81.89m68.93 29.76h-68.93m57.17 28.19h-56.84m44.88 35.56h-44.88m33.21 95.12h-32.83m19.53 32.32h-19.91m-420.13-277.23h-41.99m11.66 188.21h29.66m-17.73 26.55h18.4M446.11 1391.84v713.94m0-.5h287.35M2648.58 480.21h292.33m-621.59 104.11h432.43v780.51h-432.43zm-1088.34 0h432.43v798.94h-432.43zm-1123.23.1h431.74v812.73H107.75zm743.51 1260.42h206.28v88.21H851.26z" fill="none" stroke="#fff"/></svg>