<svg id="Layer_18" data-name="Layer 18" xmlns="http://www.w3.org/2000/svg" viewBox="0 0 1998.43 2437.8"><defs><style>.cls-1{fill:#fff;}</style></defs><path class="cls-1" d="M1405,1301.7h3.69c.27-.53.74-1.43,1.23-2.36,9.13,2.29,17.93,3.65,24.09,11v16.84l2.47,3.86,12-3.75c2.51-.79,5-.6,7,1.48h5.75c1.27.74,2.38,1.32,3.42,2s2.64,1.29,3,2.27c.88,2.69,2.86,4.52,4.38,6.69,2.18,3.11,3.5,6.41,2.89,10.08,1.5,3.39,4.16,5.13,7,7.09,3.43,2.39,6.26,5.69,9.1,8.83,4.33,4.81,7,10.7,10.17,17.35-.26,1.76-.66,4.42-1.1,7.35l-5,3.77v3.38c-2,1.09-3.78,2.49-5.82,3.06a41.47,41.47,0,0,0-4.71,2c-2.7,1.11-5.54,2.21-8.6,2.18-4.5,0-9,.16-13.5-.07a38.38,38.38,0,0,1-9.75-1.76,10.08,10.08,0,0,0-2.92-.18c-3,0-6,.12-9,0-4.54-.23-9.22,0-13.54-1.17-3.29-.88-6.45-.41-9.52-.85-3.46,2.91-5.94,6.75-10.32,9a15,15,0,0,0-11.53,3.7c-3.11.38-5.76,2.4-9,2.33-6-.13-12,0-18,0-2.79,2.52-6.37,3.35-9.86,3.89a48.4,48.4,0,0,1-9.48.07c-1.54-.07-3.11-1.74-4.53-.88-2.19,1.32-4.42.77-6.64.89-1.83.11-3.67-.06-5.5.06a13.25,13.25,0,0,0-2.84.87c-3.57-1.38-7.36-3.18-11.32-1.14a31.76,31.76,0,0,0-5.76-.71,19.61,19.61,0,0,1-11.87-3.23c-4,1.9-7.94.8-12.08.36a28.34,28.34,0,0,1-10.95-3.29c-3.87,1.32-3.87,1.32-9.46.12a5,5,0,0,0-1.5,0c-3.6.4-6.83-1-10.22-1.84-2-.54-2.38-1.79-3.22-3.2-5.15.39-9.48,4.09-14.75,4s-10.32-.41-15.68-.63c-1.35,1.83-2.26,4.38-5,5.13-1.64.44-3.29,1.55-4.85,1.41-2.71-.26-5.11.65-7.59,1.17-8.49,1.8-17.06.69-25.59.91-7.5.19-15,.14-22.5,0a25.24,25.24,0,0,0-9.53,1.19,16.85,16.85,0,0,1-6.14.84c-5.5,0-11,.21-16.5,0a27,27,0,0,1-11.75-3c-9.34,1.86-19.74.88-30.09,1a10.61,10.61,0,0,1-5.17-.79c-2.27-1.07-5.19-.19-7.44.94a8.76,8.76,0,0,1-4.15.88c-8.83,0-17.68.31-26.49-.12-4.77-.23-9.8-.59-13.83-3.87-2.52,0-5.11.42-7.5-.09-5.35-1.13-10.73-.77-16.1-1-2-.08-3.9-1.18-6.09-1s-4.5.2-6.27,2.13a18.42,18.42,0,0,0-11.39,2.37c-2.16,1.17-4.54.8-6.69.36-4.58-.93-4.84-.71-9.81,0-2.83.39-5.63,1.24-8.52,1.24-5,0-10.09.6-15-.11-11.87-1.72-23.77-.06-35.59-1-5.19-.43-10.75-.51-15.37-3.83-1.52-1.09-3.16-2-4.67-3-2.45.66-4.88,1.2-7.24,2-4.63,1.51-9.38,1-14.09.9-2.18,0-4.26-1.16-6.59-1s-4.44.34-6.63-.85c-1-.56-2.63-.21-3.95-.08-5.89.59-10.66-2.17-15.44-5a76,76,0,0,0-10.25-5.43,14.44,14.44,0,0,0-3.25-.6c-1.86-.34-4,.88-5.61-1-.15-.17-.69-.13-1,0-3.92,1.77-8.06.64-12.09,1a4.27,4.27,0,0,0-1.57.66l-7.84-1c-.43-.54-1.32-1.7-2.22-2.86-.51.51-.74,1-1,1-3.3,0-6.6,0-10.33,0-2.92-1.36-6.26-2.94-9.62-4.49a4,4,0,0,0-1.38-.28c-7.7-.34-15.39-.7-23.09-1a6.83,6.83,0,0,0-3.73.65,5.42,5.42,0,0,1-5-.47,17,17,0,0,0-10.07-2.24,35.55,35.55,0,0,1-4,0c-1.83,0-3.68-.13-5.49,0a14,14,0,0,0-4.57,1c-3.14,1.48-6.41,1-9.6.87s-6.56,1.1-9.61-.89a1.55,1.55,0,0,0-1.45,0c-2,1.76-4.41.89-6.62.92-6.5.12-13,.07-19.5,0-3.4,0-6.74,2-10,.91-3.05-1-6.06-.76-8.7-.9l-6-3.08-3.21-3.91c-2.53,0-4.87-.08-7.2,0-4.1.17-7.66-.87-10.33-4.56v-7.41l4.85-2.51a2.79,2.79,0,0,0-1.79-3.53c-1.72-.68-3.4-1.69-5.18-1.93-3-.39-5.06-2.22-6.65-4.38-1.44-2-3.83-3.6-3.34-6.59-2.73-4.78-1.73-10.05-2.07-15.17-.19-2.92-.19-6.11-2.87-8.35v-5.49l7.53-6.18c.37-.31.75-.88,1.12-.87,4.67.07,7.15-3.39,9.91-6.24a27.45,27.45,0,0,0,4.32-5.7c1.69-3.06,4.17-4.21,7.69-4.11,3.69-3.81,5-9.64,10.26-13,2.47.19,5.58-.64,8.49,1l3.41,5.26a39.76,39.76,0,0,1,11.65-7.08l4.88.91c2.06-1.67,2.28-3.43,1.15-5s-.08-2.68.71-4.28l-2.17-2.33V1278c1.41-3.33,2.55-6,3.77-8.9l-1-1.05c-3.86,1.23-7.7.72-11.53.47-.12,0-.22-.31-.35-.32-2.52-.35-2.89-2.63-3.92-4.31.33-.86,1-1.76.94-2.58-.55-4.95,2.43-8.48,5.08-11.89s5.8-6.53,9.93-7.92c0-1,.28-1.86,0-2.25-3.3-3.94-1.89-8.14-.6-12.19a6.08,6.08,0,0,0-.17-4.85c-1.41-3.42-3.57-6.46-4.48-10.16-1.17-4.72-.71-6.56,3.45-8.95a54.61,54.61,0,0,0,4.63-3.33c1.41-1,2.71-2.5,4.28-2.87,1.79-.44,3.11-1.42,5-2.08-.44-3.64-.86-7.09-1.24-10.22a22.19,22.19,0,0,1,8.23-6.42c1.61-.66,3.54,0,4.94-1.39a10,10,0,0,1,2-1.3v-3.94c-1-1.48-2.47-2.81-2.81-4.38-.48-2.22-.12-4.63-.12-6.64l5-5.91c0-2.68-.55-5.2.16-7.3s1-4.23,1.63-6.29c.86-2.71.21-5.9.21-8.76,3.89-3.85,7.27-8.3,13.56-7.45l2.87,2.88h4c1.18-1.86,2.41-3.81,3.79-6-.39-.48-1.11-.94-1.12-1.43-.11-3-.06-6-.06-9.27l7.83-6.42v-4.38l.47.12c.56-1.44,1.08-2.89,1.68-4.3s1.3-2.8,1.7-3.64c-.36-2.35-.65-4.22-.91-5.94l4.85-4.8-5.43-9c.65-2,1.12-3.78,1.81-5.47a13.9,13.9,0,0,1,2.2-4.07c2.51-2.81,5.55-3.3,8.44-1.07,2.19,1.7,5.17,2.73,6,5.88.1.37.69.61,1.18,1,4.81-4.41,11-3.86,16.55-5.36,3.32,4.92,3.39,5,5.51,6.1l4.88-2.58L783,1056.4l-2.21-2.41c.61-1.83,1.3-3.88,2-5.93,15,4.4,29.78,8.42,44.91,12.16l3.93-13.53,1.63-1.62c17.75,4.54,35.32,9,53.14,12.1l1.66-4.44c5.82.14,11,2.38,15.44,2.94l3.95,2.89a13.91,13.91,0,0,0-1.37,2.74,14.26,14.26,0,0,0,0,3l2,2c.39,4.51-2,8.61-2.52,13.41l14.9,3.59,2.9-4.36h4.41l2.48,2.67c-.42,1.47-.84,3-1.29,4.56,4.53,2.53,9.43,4,13.93,6.18s9.74,3.13,13.81,6.41l.88-.88c3.36,1.07,7,1.82,10.27,3.42,1.63.81,3.79-.49,4.87,1.55,3.29.28,6.12,1.5,7.89,4,3.64.08,5.18-3,8.06-3.66,5.07,1.46,9.86,4.72,15.4,4.73l6.81,2.84,7.77-3c2.51,1.14,4.38,2.27,5.82,4.75,1.93,3.3,5.37,5.31,9.22,6.44,1.76.51,3.35,1.6,6,2.91l3.69-.78c3.91.25,4.32,4.47,6.6,7.32l2.85-2.64c.18,1,.34,2,.53,3h4.4l6.32-6.32a15.2,15.2,0,0,1,14,.42c2.38,1.2,3.2,3.34,4.24,5.58l-2.08,4.22c3.93,3.58,9.28,4,14.57,5.63a19.18,19.18,0,0,1,.49-4,20.53,20.53,0,0,1,2.2-3.57l5.13,1.16c2,3.29-2.52,6.69.82,10,1.08,0,2.37,0,3.66,0a15.84,15.84,0,0,1,5.12.88c1.73.53,3.52,2.12,5.76.27.79-.66,2.89-.16,4.56.64a71.19,71.19,0,0,0,19.41,6.25,30.92,30.92,0,0,1,4,1.28c1.2.36,2.43.62,4.21,1.07,1.83,1.27,2.23,4.85,6.72,5.53,4.51-.91,9.67,1.45,14.67,2.79l6.66-.93,2.78,2.4,5.42-4c9.24-.15,15.33-2.41,20.22-8.12h5.29l8.33,5.94,11.66,1.23,3.39-1.79,4.77.92,4.86,5.6c-1,4.66-3.3,7.28-8.44,7.08l-3.22,4.24a9,9,0,0,1,.82,2.14c.31,3.09,2.23,4.79,5,5.61,4.74,1.42,9.11,3.8,13.83,5.23,2.81.85,5.16,3.07,8.79,2.76l3.24-3.24,4.21,1.6v5.42c5.79,2.45,11.45,4.89,17.15,7.22a9,9,0,0,0,2.8,0c2.85-6.44,4.77-13.47,9.69-19.16l12.58,5.13c-.31,1.84-.56,3.3-.84,5,2.62,1.42,5.27,3.33,8.55,4.07,3.78.86,7.09,3,10.71,4.3,5,1.88,10,4.11,15,5.92a40.08,40.08,0,0,1,5.63,3.12c-1.21,3.31-2.38,6.47-3.65,9.93l3.81,2.75c4-.68,8.61-3.21,14.36-1.66a41.06,41.06,0,0,1,11.75,8.52,19.91,19.91,0,0,0,6.83,3.9,17,17,0,0,1,6.22,4.31c2.08,2.16,4.3,4.19,6.34,6.39,1.86,2,3.55,4.19,5.32,6.28a21.73,21.73,0,0,1,4.7,12.56c0,5.16.72,10.46-.16,15.47-1.33,7.57-.42,15.09-.82,22.61C1405,1300,1405,1300.81,1405,1301.7Z"/></svg>