<svg id="Layer_3" data-name="Layer 3" xmlns="http://www.w3.org/2000/svg" viewBox="0 0 1998.43 2437.8"><defs><style>.cls-1{fill:#fff;}</style></defs><path class="cls-1" d="M604.91,1239c1.85-.54,3.54.42,4.56-1.21.75,1.32,3.53.48,2.74,3,3.59.21,5.33-2,7.18-3.87,2.58,1.82,5.49.41,8.17,1,1.44,2.94,1.41,6.13,1.51,9.35.06,1.82.85,3.62,1.3,5.44.3,1.22.58,2.44,1,4.06h5.56v3.12c1.58,2,1.72,2.26,2.11,4.31,2.57,2.36,5.7,1.44,8.76,1.69.13-.66.23-1.11.37-1.82h3.41c4,4.61,7.94,9.13,12.18,14,4.88-.39,10.15-.34,15.18-1.42,2.59-.56,5.23-.15,7.58-.93,2.57-.85,5.07-.77,7.63-.88,1.9-.08,3.53-1.34,5.59-1.06a7.11,7.11,0,0,0,5.15-.83c.94-.6,2.64.1,3.92-.15,2.24-.44,4.72-.51,6.36-2.66-.43-1.69-.85-3.31-1.34-5.2h4.62l1.57-1.58c.1-2.76.17-5.5-1.85-8.51-.46,0-1.73,0-3,0-9.87-.15-19.68-1.91-29.47-.73l-1.46-2.81c1.34-2.64,3.25-1.3,5.43,0,.2-1.59.34-2.79.56-4.56.92-.25,2.9-1.14,3.15-.79,1.33,1.87,3.41.39,5,1.49,1.26.87,3.55.07,5.28.47a30.89,30.89,0,0,0,11.21.77v-4.23l5.29-2.76c-.54-2.19.33-4.15-.87-6.32a6.64,6.64,0,0,1,.28-5.66c.52-1.09.87-2.82.36-3.74-1.57-2.84-.46-5.79-1-8.73l3-2v-76l2.37-1.51c-.36-1.24-.63-2.11-.87-3-.47-1.81-1.32-3.63-1.29-5.43a21.47,21.47,0,0,0-1.13-6.57c-1.46-4.92-2.69-9.89-4.08-14.82-1-3.57-2-7.17-3.07-10.72-1.42-4.6-2.43-9.32-3.89-13.89-1.61-5-2.73-10.19-4.2-15.25-1.61-5.5-3.05-11.06-4.76-16.53-1.59-5-2.66-10.22-4.14-15.29-1.35-4.61-2.78-9.2-3.89-13.89a103.5,103.5,0,0,0-3.05-10.73c-1.52-4.24-2.37-8.65-3.71-12.93-1.3-4.12-2.54-8.33-3.49-12.59s-2.5-8.62-3.67-13-1.94-8.85-3.48-13.07c-.69-1.9-.13-3.42,0-5.23.49.57,1.24,1.07,1.43,1.73,1.42,4.92,2.47,10,4.15,14.79,1.64,4.65,3.24,9.36,4.64,14,1.18,4,2.33,8.08,3.37,12.15s2.6,8,3.67,11.93c1.79,6.59,4.16,13,5.76,19.62,1.36,5.6,3.3,11,4.56,16.65,1.14,5.1,3.29,10,4.86,15,.94,3,1,6.39,2.57,8.91,1.73,2.76,1.37,5.75,2.33,8.56,2.71,7.9,4.79,16,7.13,24,1.65,5.64,3.3,11.29,5,16.92a48.34,48.34,0,0,0,2,5.17c1.46,3.29.66,7.23,3,10.26.77,6.39,3.49,12.24,5,18.42.9,3.61,2.06,7.16,3.14,10.72.83,2.76,1.91,5.53,2.78,8.32,1.82,5.76,3.35,11.61,5.07,17.4.61,2.07,1.42,4.08,2.27,6.49,3.71-.57,7.65,1,11.67-1.59v-4.78l5.23,1.4,1.95-1.64c-.2-1.68-.38-3.58-.64-5.47-.77-5.45-1.31-10.93,1.17-16.09a26.9,26.9,0,0,1,3.08-4.4l11.78-3.46c1.21-1.89-.62-4.3,1.89-5.85h3.39l7.85-5.28h4.22v-3.49l-1.5-1.59-3,1.36-.44-1.56c3.77-2.21,7.8-1.58,11.76-1.63,1,1.44,1.85,2.76,2.7,4,4.77-1.38,9.36-2.79,14-4,4.93-1.32,9.94-2.33,14.67-4.42a7.5,7.5,0,0,1,3.41-.52c1.44.14,2.41-.72,3.6-1,7.65-2.07,15.21-4.48,23-6.09,3.16-.65,6.17-2,9.63-3.15l3.53,4.3,12.43-2.31c2.1-1,1-3,1.64-4.82l3.64.61,1.69-1.69.87,1.9c-2.13,3.41,1.73,7.08.46,10.74l4.68,1.37c.56,4.32,1,8,1.46,11.41l3.69,4,27.49-15,3.06.87c.29-.3.51-.41.51-.54,0-3.78,0-7.57,0-11.43,1.34.32,2.7,1.07,3.24.69,1.51-1.08,3.08-.92,4.66-.89,4,.08,7.82-1.06,11.73-1.78,5.55-1,11.34-.9,17-1.19.33,0,.71.64,1.33,1.23,1.9-2.7,4.95-.74,7.58-1.91,2.37-1.05,5.76.26,8.19-.73,2.8-1.15,5.79.53,8.06-1,2.54-1.69,5.32.32,8-1.48,2.06-1.39,5.23.4,8-1,2.28-1.15,5.28-.87,8.14-1.25v-6.55l5.41-2c-.69-1.36-1.33-2.59-2.12-4.12v-5.13h3.52a7.23,7.23,0,0,1,2.27,7.18c1.5,2.39,3.67,1.49,5.68,1.7.53,2.21,1.09,4.47,1.72,7.06,1.62-.48,3.44.69,5-.85a1.38,1.38,0,0,1,.9-.22c7.21,0,14.33-1.59,21.59-1.07,3.16.23,4.89,2.68,7.42,3.86.85.39,1.43,1.36,2.17,2.1h3.28l.78-2.16,2.53,1.52c.46,4.06.9,8.06,1.42,12.69L1092,1132v3.45l1.31.35c2,.57,3.69-.79,5.58-1s4,.93,5.63-.92c.22-.25,1,0,1.46,0a21.8,21.8,0,0,0,6.62-.86c2-.66,4.41,0,6.59-1,1-.52,2.65-.38,3.78,1.68,0,.84.46,2.5-.08,3.71-2.39,5.26-3.08,11-4.8,16.52a50.59,50.59,0,0,0-6.34.06,31.55,31.55,0,0,0-5.22,1.64c3.84,3.44,2.65,9.14,7.25,12.53l-3.32,1.37,4.41.57,1.57,2.92-4.33,3.81v1.71l5.85,2.81v2.43l-9,1.6c.68,6.12-1.34,12.3-1.14,18.63.06,2.09-2,4.18-3.06,6.32a30.26,30.26,0,0,1,11,8c.78,2.69.86,5.33,3.07,7,.73,2-.29,4,.91,6.21.93,1.69.64,4.37-.73,6.48a63.1,63.1,0,0,0-3,5.87c.3,1.79-.76,4.28.78,6.56l-2.66,1.66v4.49c.7.72,1.52,1.55,2.47,2.5a12.19,12.19,0,0,0,3.21-.54,8.51,8.51,0,0,1,6.08-.19,6.08,6.08,0,0,0,2.7.42c3.82-.92,3.79-.91,7.79,0a18.94,18.94,0,0,0,4.15,0l1.74,2.43,9.15-1.38,2.28,2.29,9.16-1.39c.07-1.21.13-2.34.19-3.44.31-.15.61-.42.87-.38a14.64,14.64,0,0,0,9.13-2.1c2.2-1.27,4.36-.69,6.43-1,2.16,2.71,1.27,5.75,1.56,8.8l2.77,1.74c.06,3.51,1.86,7.07,1.13,10.82-.66,3.38-1.61,6.71-2.45,10.14,4.2,2.19,7.19,5.92,12.27,5.48l5.88-10,3.28.85,4.85-1.07,4.29-5.65c0-3.16-3.51-4.14-5.11-6.77-.57-3.55,3.2-3.74,4.93-5.68.24-2.87-2.56-3.48-4.17-5.36,2.31-2.2,1.11-4.59,0-7,1.26-1.61,1.16-4.17,3.93-4.37,1.41-4.75-1.8-8.93-1.81-12.85l3.88-3.87,4.31,1,4.83-4.18c.47-4.63,6.59-5.46,9.15-9.91-.63-1.25-1.38-2.77-2.15-4.32,2.74-2.93,3.38-6.45,3-10.33,1.06-1.35,2.19-2.69,3.19-4.13.71-1,1.66-2.1,1.76-3.23.16-1.7,1.14-2.89,1.79-4.29,1.24-2.64,2-5.14.61-8.17-1-2.19-1-4.84-1.49-7.5h5.61c1.19.66,2.25,1.32,3.38,1.83a4.56,4.56,0,0,0,1.64,0c2.42-3.34,1.12-8,3.82-11.17l-1.54-1.64c-4.65,1.78-7.18.31-10.73-6.23,1.77-4.44,5.94-6.84,9-10.67-1.66-2.83-1.28-6.75-4.28-9.14,2.28-2.75,5.11-2.07,7.75-2.16l1.61-5.88,4.3,2.54c-1.37-4-2.4-7-3.53-10.37l2.33-.37c3.78,3.32,7.47,6.64,9,11.89h3.62l.46-1.77c.71,0,1.71-.31,2.24.05a47.43,47.43,0,0,1,5.27,4.21c5.2,4.78,10.19,9.82,15.56,14.41,4,3.39,8.41,6.2,12.62,9.3,3.45,2.55,7,5,10.26,7.77s6.15,5.53,10,7.26a4.18,4.18,0,0,1,2.14,1.92c.54,1.48,1.71,2,2.84,2.75s2.36,1.59,3.47,2.48c2,1.61,4,3.31,6,4.93,1.37,1.1,2.79,2.12,4.18,3.19s2,2.59,3.82,2.88c.53.09,1,.88,1.42,1.36a83.79,83.79,0,0,0,10.79,8.9c2.34,1.69,4.32,3.87,6.65,5.67,4.8,3.72,9.4,7.71,14.34,11.28,2.21,1.6,4,3.69,6.26,5.35,4.67,3.45,8.89,7.52,13.4,11.2s9.1,7,13.57,10.64c2.78,2.25,5.22,4.95,8.13,7,4.85,3.42,8.54,8.28,13.91,11a26.9,26.9,0,0,1,2.35,1.5c-1.55,3.58-2.77,6.41-4.14,9.59,5.8,6.7,13.83,11.36,20.69,17.67.21,3.62-1,7.15-2.36,10.34-3.28,7.64-6.53,15.31-10.31,22.75-1.87,3.68-4,7.32-5.47,11.21-.45,1.16-.76,2.37-1.16,3.63l4.34,2.2-1.46,1.39c-15.78,2.14-31.67.79-47.52,1.06-5.19.09-10.31-1.36-15.58-1-4.53.31-9,1.69-13.58,1.07-2.86-.39-5.72-.77-8.59-1-1-.07-2.1.42-3.76.78l-.91-.59a51.7,51.7,0,0,1-5.58.73c-3.83.11-7.67,0-11.59,0l-1.72-1.87h-4.37l-1.87,1.87h-22.79c-20.17,0-40.36-.67-60.48.23-13.72.61-27.4.46-41.1.77-5.27,1.76-10.73.55-16.07,1.07-2.4.24-4.33-1.16-6.59-1.09s-4.63.67-6.44-.14a13.71,13.71,0,0,0-8.13-.73c-10.18,1.75-20.41.62-30.6.84s-20.33,0-30.86,0l-2.36-3.37-7.58,1.36a10.29,10.29,0,0,1-1.43-1.45c-2.48-3.65-6.54-4.18-10.32-5.25-.28-.08-.68.43-1.06.49-1.9.31-3.84.71-5.35-.67-4.74,1.7-9.54.57-14.23.85a11,11,0,0,1-2.87-.7c-.08.08-.42.66-.81.7-4.69.39-9.38,1-14.08,1-4.24,0-8.29,1.49-12.59,1.15s-8.79-.74-13,.11-8.43.52-12.62.84c-2.21.17-4.25,1.24-6.6,1-2.19-.18-4.53-.59-6.61.89-.44.31-1.31.12-2,0-2.37-.3-5-1.42-7-.78a25.88,25.88,0,0,1-6.65.79c-7.19.35-14.43.28-21.56,1.18-3.38.42-7,0-10,1-3.49,1.19-6.91,0-10.12.91-2.27.68-4.73.36-6.84,1.57a3.31,3.31,0,0,1-1.37.31c-6.69.34-13.39.6-20.08,1-3.2.21-6.37.75-9.41,1.13l-10.2,4.6a1.87,1.87,0,0,1-.9.22c-4.61-.7-9,1.16-13.59,1-7.39-.27-14.75,2.23-22.06.92-9.21-1.65-18.42-.28-27.6-1-2.54-.19-4.66,1.16-7.09,1.09s-4.66,0-6.86.12-2.6,2.51-4,3.7c-7.17.39-14.44.2-21.49,1.35-5.75.93-11.48.08-17.09,1-3.89.62-7.9.1-11.56,1-4.77,1.22-9.44.41-14.13.84-2.7.25-5.38.78-8.09,1s-5.55-.62-7.94.19c-3.75,1.26-7.45.43-11.13.87a89.36,89.36,0,0,1-16.09,1c-3,1.82-6.39,1-9.59.94-6.39,0-12.66,1.78-19.08,1.06-7.11,2.15-14.4.46-21.58,1-7.45-2.07-15.06-.77-22.59-.92-5.18-.11-10.38.71-15.58.88s-10.28,0-14.43,0l-3.91,3-3.28-4-2.42.47c-1.52-.17-3.33-.94-4.5-.39-3,1.44-6.11.55-9.14.9a24.69,24.69,0,0,0-3,.76c-6-3-6.07-3.09-6.07-11.41l-2.23-1c.64-2.1,1-3.41,1.42-4.68l-3.05-1.84v-3.49l3.28-2.43c.55-.06,2.19.63,3.43-1.44.67-2.61-.33-5-2.18-7.49s-3.81-5.08-6.75-6.59c-2.21-1.13-4.6-2.06-6.49-3.59-3-2.41-6.35-3.94-9.7-5.61q-5.82-2.91-11.52-6a78.25,78.25,0,0,0-19.5-7.18c-3.33-.79-6.59-1.81-9.9-2.65a10.21,10.21,0,0,0-2.86-.31,12.62,12.62,0,0,1-5.12-1,15.52,15.52,0,0,0-6.56-1.12c-3.65.2-7.41-.43-11,.17-5.86,1-11.77.41-17.58,1.07-3,.34-6,.74-9.1.84a4.59,4.59,0,0,0-1.74.61c-3.31,1.65-7.13,1-10.55,2.29-.49.19-1.36-.6-2.15-1v-9.51c2.79-1,4.24-3.77,6.67-5.68v-4.21c-3.1-4.69-6.2-9.4-9.55-14.46l-1.76-.74c-3.15,1-6.9.83-9.94,2.71s-6.86,2.26-9.07,5.82c-3.71-3.65-6.5-6.73-6.64-11.64,1.43-.77,2.84-1.45,4.17-2.25s2.87-1.9,4.32-2.85c2.34-1.53,5-2.4,7.33-4.06.65-.47,1.92-.07,3.47-.07l-3-4.71,1.05-1c.19,0,.53,0,.64.18,2.61,3.58,5.6,7,7.7,10.81,3.47,6.4,8.59,11.63,12.14,18,1.3,2.33,3,4.45,4.52,6.7,7.45.42,14.77.24,21.82-2.93l1.88,1.09c.38-.18.81-.24.91-.45,1-2,2.77-3.3,3.26-5.68.41-2,3-3.25,2.87-5.78,2.83-3.75,2.94-9.17,8.39-12.43,4.1-.2,9.33-.11,14.43-.88,2-.3,4.08-1.08,6.09-.75,2.26.37,4-1.06,6.1-1.07h12.85a14.44,14.44,0,0,0,.18,2.79,17.51,17.51,0,0,0,1.2,2.78,24.85,24.85,0,0,0,12.55,4.9l.75-1.4h5.6l5.8,5.81c2.66-.18,2.66-.18,4.62-1.93,1.6.41,3.57-.78,5,1,.13.17.65.08,1,0,1.7-.32,3.38-.77,5.09-1s3.71.52,4.87-.26c2.27-1.53,4.54-.18,5.89-.63l6-3.06,3.25,1.78,3.12-3.13,3.38,1.26h4.37l1.87-1.9,3.61-.19c-.2-2.52.59-5.07-.75-7.71.8-2.6,4.94.24,5.86-3.38l-1.05-3a5.56,5.56,0,0,0,.81-5.75C604.37,1246.31,605.46,1242.76,604.91,1239Z"/></svg>