<svg xmlns="http://www.w3.org/2000/svg" viewBox="0 0 1998.43 2437.8"><defs><style>.cls-1,.cls-3,.cls-4{fill:none;stroke-miterlimit:10;}.cls-1,.cls-3{stroke:#fff;}.cls-2{fill:#c00;}.cls-3,.cls-4{stroke-width:5px;}.cls-4{stroke:#000;}</style></defs><g id="Layer_1" data-name="Layer 1"><path class="cls-1" d="M1959,1758.8H39V678.8H1959Zm-1343.35-588c-3.18,0-6-.17-8.84,0a13.6,13.6,0,0,1-7-1.16,18.65,18.65,0,0,0-10.72-1.82c-4,.44-7.76-.73-11.55-1.3a35.29,35.29,0,0,1-6.72-1.76,52.57,52.57,0,0,1-6.52-2.35c-1.65-.87-2.83-.46-4.48-.11-3.25.7-5.76,2.54-8.16,4.44-3.7,2.91-12.09,4.27-15.36,4a3.13,3.13,0,0,1-.93-.17c-3.3-1.28-6.77-2.27-9.86-3.95-6.55-3.55-12.93-7.44-19.34-11.26-2.42-1.44-4.71-3.1-7.09-4.61-4-2.5-7.83-5.25-12-7.34-5.05-2.53-9.2-6.43-14.37-8.75-2.69-1.2-5-3.25-7.31-4.81h-2.5c-2.85,1.06-1.24,3.47-2.36,5.09l-3.05-1.4c-1.53,2.31-2.74,4.6-2.38,7.2a4.12,4.12,0,0,0,3.3,3.63c-.53,1.61-1,3.07-1.41,4.3-2.47.19-4.36.12-6.14-.88-.44-.24-1.2.08-1.68.13v3.78l9.83,5.19v4.33c-1.86,2-3.62,4.1-6.53,4.6l-16.75-6.74-3.62,3.17v3.22l4.09,2.73v5.25c3.94,2,8.59,1.49,11.68,4.62v2.73l-4.11,3.59,1.15,4.8c-1.29,1.2-2.74,2.53-3.85,3.55v6.56c1.74.89,3.78,1,5.35,1.67,1.91.81,4,.66,5.84,1.65s4.7.3,6.33,1.46c1.95,1.37,4.45-.6,5.88,1.61,2.3-.34,4.38.68,6.57,1,3.56.59,6.89,2.35,10.61,2.14,1.66,2,4.25.24,6.34,1.71,1.63,1.15,4.31.67,6.46,1.2,3.36.83,6.85,1.17,10.12,2.15,4.93,1.47,9.93,2.56,14.9,3.83,2.54.65,5,1.46,7.53,2.18v2.29l-2.16,2.26A50.1,50.1,0,0,1,526,1230a46.33,46.33,0,0,1,0,5.23l5.14,2.08a11.17,11.17,0,0,0-1.09,2.94,62.62,62.62,0,0,0,0,9.49c.39,3.35-1.1,6.35-1.09,9.59,0,11.84.19,23.67,0,35.5s1.1,23.44-1,35.09v45.5c0,15.16.14,30.33,0,45.5s.54,30-.81,45.1c-.8,8.92-.31,18-.1,27s-.14,17.7.73,26.61c1.2,12.24-.72,24.69,1.52,37.32,4.08-.61,8.3.92,12.24-1.2l1.83,4c2.65.46,4.68-.55,6.55-2.29s3.72-3.83,6-4.84c2.61-1.17,4-3.6,6.44-4.93,2.9-1.57,5.2-4.26,7.57-6.29v-4.53l-4.35-2.84-4.19.89c-.47-3.5-.9-6.64-1.25-9.16l-4.09-3.2c-.27-4.27,1-8,1.86-11.92.54-2.46.31-5,1-7.6s.3-5.35,1-8.09,0-5.7,1-8.58-.42-5.95.88-9.14c1.08-2.64.33-6,1.07-9,.91-3.72.81-7.69,1.14-11.55,0-.49-.1-1.19.16-1.41,1.45-1.2.56-2.8.85-4.18a37.25,37.25,0,0,0,1-4.09c.42-4.35.7-8.72,1-13.08,0-.5-.2-1.12,0-1.48,2.14-3.39.34-7,.85-9.43-1.86-4.12-6-1.92-7.74-4.5-.14-2.84.49-6-.6-8.32-1.24-2.65,1-5.69-1.68-8l11.06-7.43v-4l-2.47-3.1-6.23.61a30.21,30.21,0,0,1-1.16-5.6c-.17-6-.22-12,0-18s-.63-11.72.82-17.62c1-4.19.8-8.69,1.13-13.06,0-.33-.13-.74,0-1,2.18-3.65.56-7.82,1.77-11.75s.88-8.66,1.21-13c0-.5-.21-1.19,0-1.47,1.2-1.39.81-3,1-4.61.2-1.72.78-3.39.94-5.1.25-2.87-.52-5.86,1-8.58-.64-5.09,1.69-10,.9-15.28l-2.5-2.32c-2.25-.69-5.18,1.22-7.3-1.47V1237l4.63-5.45c2.37.39,5.35.21,7.6,1.41,3.59,1.9,7.5,2.85,11.08,4.69,6.17,3.17,13,4.69,19.21,8,2.88,1.53,6.29,2.45,9.43,3.72,3.29,1.33,6.62,2.55,9.88,3.91,4.27,1.78,8.51,3.68,12.78,5.37,6.43,2.55,12.82,5.26,19.31,7.71,3.74,1.42,7.41,3,11.15,4.46,7.05,2.71,14.31,4.79,21.29,7.75,2.54,1.07,5,2.58,7.66,3.19,5.32,1.21,9.92,4.49,15.41,5.09,2.66,2.4,6.3,2.47,9.38,3.9s6.79,2.13,10,3.6,6.68,1.69,9.28,4.16a1.41,1.41,0,0,0,.87.3c2.92,0,5.38,1.43,8,2.51.86.35,1.89.26,2.79.53a17.88,17.88,0,0,1,2.34,1l3.42-2,1.49,1.5c-.54,1.9.92,4.19-.94,5.87a12.79,12.79,0,0,1,1.85,8.07l1.69,1.57a39.68,39.68,0,0,1,5-1.05c5.19-.42,10.39-.7,15.59-1,.47,0,1.12.06,1.39-.21,1.56-1.58,3.48-.41,5.19-.78s3.38-.79,5.09-1c3.69-.41,7.51-.24,11-1.19a36.17,36.17,0,0,1,6.13-.86c2-.21,4-.77,6.09-.94,2.71-.23,5.38,0,8.13-.89,2.34-.74,5-.3,7.57-1,2.4-.67,5-.24,7.59-1s5.35-.26,8.09-1c2.55-.68,5.35-.47,8.07-1,4.09-.82,8.36-.79,12.56-1.12.33,0,.81.14,1,0,1.34-1.36,3-.81,4.61-1s3.38-.77,5.09-1c3.85-.41,7.72-.69,11.58-1,.34,0,.81.14,1,0,2-2,4.42-.57,6.61-1a36.38,36.38,0,0,1,6.58-1c3.59,0,7-1.77,10.59-1.06,1.3-1.41,3-.84,4.58-1s3.39-.82,5.1-.93a47,47,0,0,0,8.62-.9c2.88-.73,6-.23,9.09-1a45.36,45.36,0,0,1,6.54-1.14c2.39-.22,4.73-.47,7.11-.89,5.5-1,11.13-1,16.66-2.09,2.49-.47,5-.1,7.61-.94,2.36-.78,5-.1,7.61-.93,2.3-.74,5-.55,7.55-1.08s5.37-.51,8.09-1c4.11-.67,8.36-.19,12.58-1s8.7-.78,13.06-1.12c.46,0,1.09,0,1.35-.32,1.27-1.36,2.84-.37,4.24-.67a31.92,31.92,0,0,1,4.58-1c5.86-.42,11.72-.7,17.59-1,.33,0,.78.14,1,0,1.86-1.52,4-.75,6.1-1s4-.79,6.09-1c3-.24,6,0,9.12-.89,2.87-.77,6-.2,9.09-1,2.88-.75,6.06-.69,9.06-.94,5.18-.44,10.31-1.91,15.57-1.23.66.09,1.55.29,2,0,1.91-1.51,4.08-.72,6.12-1,2.21-.27,4.39-.69,6.59-1,2.86-.37,6.15.08,8.46-1.23,2-1.16,4.38.4,5.91-1.5,5.49-.54,10.53-3.17,16.14-3.38,1.82-.07,3.65-.82,5.58-1s3.53-1.08,5.29-1.64a4.48,4.48,0,0,1,1.39-.25c3.53,0,6.81-1.42,10.19-1.85s6.77-1.51,10.14-2.22a94.73,94.73,0,0,1,10.21-1.74c5.88-.56,11.13-4.2,17.24-3.22.11,0,.23-.21.38-.26,3.83-1.45,7.89-1.92,11.88-2.69,2.49-.49,5.1-.74,7.54-1.23,4.26-.85,8.76-1.32,12.71-3,2.5-1.07,5-.48,7.43-1.35a75.45,75.45,0,0,1,9-2.34c5.37-1.19,10.93-1.35,16.25-3.06,4.46-1.44,9.26-1.52,13.75-3a13.4,13.4,0,0,1,4.57-1c4.39.16,8.25-2.54,12.64-2.15,1.86-2,4.54-.5,6.8-1.74,2.09-1.14,5-.82,7.49-1.19.76-.11,1.49-.44,2.25-.6,4-.81,8-1.63,12-2.37,2.5-.46,5.15-.41,7.49-1.25,3.87-1.39,8-1.63,11.88-2.65,4.69-1.21,9.58-1.56,14.25-3.06,1.56-.5,3.33-.34,5.3-.5l1.09,1.08V1232h4.8c-.66,1.24-1.22,2.31-1.94,3.68,0,11.62-.28,23.62.08,35.6s-1.37,24-1.14,36.09c.26,13.66.06,27.33.06,41s.2,27.34-.06,41,.74,27.05-.77,40.6c-.91,8.06-.17,16.3-.17,24.37l1.5,1.49h9l2.65,2.66v4.35a53.49,53.49,0,0,1,6.6,0,9.87,9.87,0,0,0,7.57-2.18,11.17,11.17,0,0,1,8.65-2.9l4-3.48v-5.36a24.07,24.07,0,0,0-4.29-2.92c-3.69-1.53-4.73-4.31-4.61-8.27l2.94-1,3.67-3.19,1.28-5.22c-.24-.38-.93-1-.85-1.43.75-4.48-2.66-8.24-2.13-12.65-1.82-1.38-.12-3.67-1.15-5-1.22-1.57-.09-3.44-.88-4.63-1.15-1.73-.71-3.43-.92-5.15a12.13,12.13,0,0,0-.59-1.76c-1.27-4.41-2.74-8.77-2.43-13.51.22-3.48-.1-7,.08-10.49a20.23,20.23,0,0,0-2.09-9.2l2.64-4,4,1.33c2.76-.58,4.46-2,5.26-5.17V1353l-4.18-3.36,3.41-2.71c-.37-4.25.09-7.9-.93-11.66-1-3.5.16-7.35-1-11.08-.86-2.67,0-5.66-.95-8.6-.85-2.63-.44-5.67-1-8.56-.72-3.59-.06-7.37-1-11.09-.71-2.73,0-5.71-1-8.6-.64-1.77,0-4-.16-5.95s-.75-4.05-.93-6.09c-.42-4.69-.7-9.39-1-14.08,0-.17.07-.41,0-.49-2.29-2.39-.41-5.54-1.61-8.35-1.07-2.54-.34-5.86-.37-8.84,0-2.83,0-5.66,0-8.5a5.6,5.6,0,0,1,.18-1l2.56-2.51a60.83,60.83,0,0,0,1.2-6.36c.2-2.31,0-4.64,0-7,.67-.46,1.3-1,2-1.35,2.52-1.46,5.46-1.31,8.19-1.9s5.24-1.76,8.06-1.1c5.79-2.78,12.23-1.58,18.29-2.84,2.44-.52,5-.89,7.38-1.58.59-.17,1.2-.61,1.75-.55,3,.33,5.66-.54,8.41-1.48-.47-4.11-.92-8.11-1.46-12.86l-4-4.79h-3.39c-.78-1.35-1.55-2.7-2.11-3.68.58-1.73,1-3,1.4-4.22,3.33-2.47,6.54-4.88,11.28-5.5l-2.24-2.53c-1.31,1.57-2.8.93-4.35.88l-1.64-2.84h-5.57l-2-2.69c-3.2-.9-5.7-1.82-8.29-2.28-4.67-.83-8.81,1.32-12.47,3.57a21.54,21.54,0,0,1-11.12,3.45,18.37,18.37,0,0,0-10.85,3.94c-4.5,0-4.49,0-8.32,1.64-4.67,2-9.67,2.54-14.61,3.32-.94.15-2.31.29-2.85-.23-1.2-1.16-2.5-.53-3.73-.74-4.77-.79-9,2.25-13.68,2-.51,0-1,.76-1.59.93-5.79,1.73-11.79,2.27-17.75,3-2.47.29-5.44.87-7.38-.17-2.28-1.22-4.8.13-6.9-1.66-.77-.66-2.8,0-4.23.28-2.46.45-4.89,1.49-7.33,1.5-4.36,0-8.72-.57-13.08-.91a.61.61,0,0,1-.41-.21c-1.17-1.49-2.8-.49-4.18-.79s-3-.73-4.59-1-2.72,0-4.19-.84c-1-.59-2.94.61-4.48.78a7,7,0,0,1-2.8-.43c-3.08-1-6.11-2.15-9.2-3.12a5.44,5.44,0,0,0-2.69,0c-4.6,1.08-9.09,2.73-13.91,2.64a6,6,0,0,0-.93.16l-1.69,1.69h-2.19c-1.17-2.27-2.22-4.34-3.34-6.52-3.68-.27-4.87-5.13-9-4.45a14.68,14.68,0,0,0-1.8-3,19.41,19.41,0,0,0-3.21-2.12c-.1-1.28-.19-2.53-.25-3.46a16.8,16.8,0,0,0-8.41-1.29l-3.91,3.91h-5.18l-2.6-3h-6.31l-1.46-1.46V1155l-2.89-1.48c-.09,2.11-.17,3.69-.24,5.25h-1.69c-.39-2.72,0-6-1.37-8.22-1.63-2.76.6-6-1.36-7.88.21-1.47.38-2.61.54-3.75h-3.63c.58,4.15,1.64,8.09,1.69,12.22s1.83,8.23.06,11.88l-2.31,2.32c-7.76-2.9-14.78-8.16-22.9-11.56.71-4.85-.88-8.94-2.51-13l-3.19,1.26c-.36-3.65-4.34-6.66-.72-10.25h8.13c1.81-2.55,5.66-.9,7.49-3.68-.3-1.3-1.31-3.18-.78-3.85,1.32-1.67-.68-2.42-.49-3.88a32.36,32.36,0,0,0-2.26-16.47l-5.8-5.8-2.69-6.16h-4.85l-.57,2a39.85,39.85,0,0,1-2.86-2.88c-1.77-2.25-2.59-4.62-.82-7.35,1.44-2.21,2.72-4.53,4.16-7-1.37-2.22-3.07-4.34-4.06-6.75-1.14-2.81-2.7-5-5.3-5.86-11.61-1.68-22.53,1-33.9,4.25l-3.81,3.81c-.8,4-1.6,8-2.29,11.45a26.73,26.73,0,0,0,2,3.4c4.67,5.41,9.51,10.69,14.08,16.2,2.07,2.5,4.1,5.21,4.11,8.77v10.56c-6.48,2.19-13.22,1.82-19.13,3.27-1.53-1.95-3-3.3-3.79-5s-2.49-3.36-2.09-5.63c-2.09-1.38-.17-3.81-1.6-5.74l-4.3-2.17c0-1.66-.09-3.32-2.29-3.59-2.41.84-1.61,2.93-2,5.41l-2.8,2.54c-.38,4.71,1.06,9.7-2,14.15-.44.65-.06,1.86-.06,2.2-3.43,2.89-7.19,1.34-10.57,2.54s-7,.84-10.53,1.17c-.48,0-1.2-.15-1.43.1-1.85,2-4.35.4-6.5,1.27s-4.4.59-6.49.82c-3-3.76-2.41-7.9-2.5-12.33-1.51-1.52-2.9-3.77-4.91-4.71-2.8-1.32-5.48-2.86-8.57-4.47-1,1.49-1.71,3.55-3,4.15-1.94.87-3.09,2.38-4.42,3.73-2.06,2.06-2.42,4.54-1.62,7.45s2.19,5.65,1.4,8.88a8.47,8.47,0,0,1-2.06,1.08,52.06,52.06,0,0,1-6.08,1,35,35,0,0,0-6.12.89c-2.56.69-5.35.25-8.08,1-2.55.71-5.39.67-8.07.95-4.66.5-9.29,1.89-14.07,1.25-.84-.11-1.75.63-2.66.74-1.43.18-2.89.16-3.59.19l-3-2.32c-.09-3.28-.9-6.1-1.25-9-.86-6.75-1.45-7.22.27-11.65A14.91,14.91,0,0,0,989,1115l-7.83-2.64a8.8,8.8,0,0,0-4.31-6.07c-1.75-1.12-3.23-1.94-2.9-3.92l-3.16-2c.33-1.13.62-2.16,1-3.34l-1.55-1.54c-.15-.9-.31-1.8-.43-2.47h-3.24c.18,1.51.25,2.89.54,4.23s.78,2.68,1.12,3.79l-3.39,2.58,1.49,2.46c-2.14,2.16-4,4.12-4.52,7.3a5.52,5.52,0,0,1-4.34,4.61,8.47,8.47,0,0,0-2.42,1.4,5.51,5.51,0,0,1-.05,2c-.24.57-.89,1-1.37,1.43-1.61-.75-6.71-1.76-8-.84-2.34,1.68-5,0-7.07,1.07-2.59,1.4-5.14.46-7.67.8-.25,0-.54-.3-.3-.16-.64-1.57-1.11-2.71-1.59-3.9-.84.49-1.33,1-1.87,1-4.36.4-8.72.71-13.08,1-.5,0-1.22-.2-1.46.06-1.83,1.92-4.11.57-6.13.94a45.35,45.35,0,0,1-6.09,1,23.46,23.46,0,0,0-8.17,2l-1.19.49v3.09c-1,.49-2.07,1.45-3,1.33-4-.55-7.68,1.26-11.59,1.11-3.23-.12-6.43.73-9.55,1.22-3.5.54-7.13,1-10.24,2.38l-2.59,1.72v19.36l3.45,2.3c-3.46,0-6.3.58-8.7-.2a11.23,11.23,0,0,0-5.13-.72c-2.1.32-3.66-1.11-5.6-1.1a24.77,24.77,0,0,1-7.62-.86c-2.38-.73-5-.16-7.6-1s-5.67-.34-8.57-1-6.05,0-9.09-1c-1.78-.61-4.19.34-5.79-.47-1.86-1-3.54-.42-5.26-.57a36.91,36.91,0,0,1-5.61-.94c-2.77-.68-5.67,0-8.62-.94-2.63-.85-5.66-.42-8.55-1-4.08-.87-8.37-.8-12.56-1.13-.33,0-.81.14-1,0-1.66-1.59-3.73-.73-5.6-1s-3.75-1-5.59-.92c-4.43.2-8.64-1.83-13.09-1.07-.32,0-.83.14-1,0-1.45-1.75-3.41-.69-5.11-1-1.87-.32-3.71-.79-5.59-1-4.36-.41-8.81-.26-13.05-1.16a60.46,60.46,0,0,0-9.62-.92,4.69,4.69,0,0,1-1.93-.84l-4.11,1.28c-2.45,2.46-5.35,5.23-8.06,8.16a6.79,6.79,0,0,0-1,2.56c1.08,3.36,2,6.3,3,9.24a17,17,0,0,1,0,11.67c-1.16,2.88-6.9,5.25-9.54,3.93-.14-.07-.24-.23-.14-.12l-2.09-4.39a75.31,75.31,0,0,0-10.91,6.48h-4.08l-4.16-4.85c-1.66,0-4.06-.71-5.56.15-3.21,1.84-5.44.3-8.55-1.25-2.4.29-5.39.88-8.41,1-5,.18-10,0-15.09,0Zm609.18,359c.06-.88.13-1.79.18-2.37l-2.59-1.93,3.55-2.87v-7.4l-.75.69c-.25-.85-.51-1.71-.74-2.5l-3,1.77-1.72-1.79c1.64-3.72,3-6.91,2-10.61-4.54.78-3.15-3.5-4.82-5l1.9-3.2,6,1,4.67-3.42c-1.27-2-2.35-3.71-3.57-5.62,1.84-3.17,1-6.79,1.08-8.77l-2.63-4.39c-3,1.51-6.28,1.39-8.1,3.7v4.56l1.68.37v4.37c-.46.46-.92.94-1.54,1.58h-4.43c.6,3.6-2,5.3-4,7.39v4a25.19,25.19,0,0,0-6.28,9.37c1.26,1.48,3,2.61,3.18,4,.44,3.25,2.63,5,4.78,7.28h3.71l-3.89,3.9,3.8,6Zm-430.67-11.91c-.76,1.29-1.54,2.63-2.26,3.87.71,1.42,1.89,2.51.63,4.08-.44.55-.77,1.8-.47,2.21,2.61,3.49.11,6.68-1.3,9.14-1.67,2.9-2.8,5.59-2.78,8.85,0,.25-.34.51-.52.77h-3.35c-.45,1-1,2.1-1.46,3.22l.58.39-3.28,2.66c.07,1.13.11,1.9.18,3.17,3.42-.89,6.39-2,9.44-2.37,3.27-.39,6.63-.08,10.2-.08l1.62-5.77,3.89-1.77c-.43-.77-.8-1.42-1.31-2.3l4.92-2.28c-.45-2.46-2.8-2.88-4-4.62.21-3.15,3.92-5.34,2.91-9.15l-6.42-1.82-1.71.94-1.59-3.08,1.11-3.3C797.85,1519.23,797,1517.47,794.16,1517.89ZM1128.59,1443l.86-.84c.73-2.51,1.14-5.19,2.29-7.5,1.23-2.46,3.3-4.52,3.26-7.73h-8.74l-6.82,8.42c4.42.65,7.63,2.23,7.56,7-3.7.51-3.76,4.87-6.63,6.25-2-2.22-3.49.23-5.17.37a7.19,7.19,0,0,1-.38,1.41,16.09,16.09,0,0,1-1.14,1.65l1.87,1.89,11.26-1.39,5.76-5.75Zm-8.82,55.87c-2.8-.39-5.32-.89-7.85-1.06s-5.23,0-7.75,0l-2.1,3.64c.77,3,1.46,5.73,2.18,8.55l8.55-1.5,1.7-1.69h3.17C1118.32,1504.11,1120.82,1502.13,1119.77,1498.9ZM1111,1358.77c-5.06,2.83-5,8-7,12,.8,3.66,1.49,7.35,2.47,11,.34,1.23,1.43,2.25,2.53,3.9l1.9-3.6a14.49,14.49,0,0,1,2.37-9.82l-3.21-5C1111.12,1364.46,1110.94,1361.75,1111,1358.77Zm-136.82,184c-3.25.85-2.67,4.93-5.87,5.17-.45,2.77-4,3.59-4.39,6.46,3,1.26,5-.81,7-1.55l4.66,1.69,5.2-1,.4-2.09,2-1.56c-1.41-2.14-2.88-3.52-4.79-3.26C977.28,1544.48,976.48,1542.73,974.21,1542.78Zm244.86,6c-3-1-4.85-3.76-7.92-2.78v6.72c4.62,3,9.66,1.86,14.26,2.1,2.5-1.83,1.34-4,1.48-5.4C1224.06,1547.32,1221.54,1547.25,1219.07,1548.77Zm-423.28-38,4.73-3.87c.9-2.85,1.55-4.94,2.3-7.33l-6.12-2.07a33.62,33.62,0,0,0-2.67,3.28,38.82,38.82,0,0,0-1.89,3.75c.49,2,.89,3.58,1.24,5Zm320.58,24.1c-3.24,3.24-5,6.93-4.21,11.74a11.67,11.67,0,0,0,8.88-2.19c-.28-3.25.72-6.56-1.42-9.55Zm-5.46-238.33a33.39,33.39,0,0,0,4.63,2.19c2.26.68,4.21-.91,6.34-1.33l2.11-2.11v-3.13l-3.12-2.64-4.7,4.43-2.6-1.45ZM784.48,1487.8c2.43-2.39,5.18-4.59,4.43-8.59l-1.23-1.24h-3.85c-1.25,2.83-2.5,5.62-3.74,8.41l1.41,1.42Zm9.61,6.2-4.43-2.4c-3.36,4.56-3.82,5.8-.51,9.21C792,1499.51,792.28,1496.38,794.09,1494Zm328.37-15.4c1.44,0,2.68,2.58,4.79.38-.81-2.31-1.67-4.77-2.67-7.61l-5.21,2.09Zm-324.34,37.31,4.13,1.14,1.8-1.81-3.48-4.51-2.45.17Z"/><path class="cls-2" d="M615.65,1170.8l2.82,3c5.09,0,10.1.13,15.09,0,3-.11,6-.7,8.41-1,3.11,1.55,5.34,3.09,8.55,1.25,1.5-.86,3.9-.15,5.56-.15l4.16,4.85h4.08a75.31,75.31,0,0,1,10.91-6.48l2.09,4.39c-.1-.11,0,.05.14.12,2.64,1.32,8.38-1,9.54-3.93a17,17,0,0,0,0-11.67c-1-2.94-1.88-5.88-3-9.24a6.79,6.79,0,0,1,1-2.56c2.71-2.93,5.61-5.7,8.06-8.16l4.11-1.28a4.69,4.69,0,0,0,1.93.84,60.46,60.46,0,0,1,9.62.92c4.24.9,8.69.75,13.05,1.16,1.88.18,3.72.65,5.59,1,1.7.29,3.66-.77,5.11,1,.14.16.65.07,1,0,4.45-.76,8.66,1.27,13.09,1.07,1.84-.08,3.71.66,5.59.92s3.94-.6,5.6,1c.17.17.65,0,1,0,4.19.33,8.48.26,12.56,1.13,2.89.62,5.92.19,8.55,1,2.95,1,5.85.26,8.62.94a36.91,36.91,0,0,0,5.61.94c1.72.15,3.4-.38,5.26.57,1.6.81,4-.14,5.79.47,3,1,6.18.35,9.09,1s5.91.23,8.57,1,5.22.22,7.6,1a24.77,24.77,0,0,0,7.62.86c1.94,0,3.5,1.42,5.6,1.1a11.23,11.23,0,0,1,5.13.72c2.4.78,5.24.2,8.7.2l-3.45-2.3v-19.36l2.59-1.72c3.11-1.37,6.74-1.84,10.24-2.38,3.12-.49,6.32-1.34,9.55-1.22,3.91.15,7.61-1.66,11.59-1.11.9.12,1.94-.84,3-1.33v-3.09l1.19-.49a23.46,23.46,0,0,1,8.17-2,45.35,45.35,0,0,0,6.09-1c2-.37,4.3,1,6.13-.94.24-.26,1,0,1.46-.06,4.36-.32,8.72-.63,13.08-1,.54,0,1-.56,1.87-1,.48,1.19,1,2.33,1.59,3.9-.24-.14.05.19.3.16,2.53-.34,5.08.6,7.67-.8,2-1.1,4.73.61,7.07-1.07,1.28-.92,6.38.09,8,.84.48-.47,1.13-.86,1.37-1.43a5.51,5.51,0,0,0,.05-2,8.47,8.47,0,0,1,2.42-1.4,5.52,5.52,0,0,0,4.34-4.61c.52-3.18,2.38-5.14,4.52-7.3l-1.49-2.46,3.39-2.58c-.34-1.11-.84-2.43-1.12-3.79s-.36-2.72-.54-4.23h3.24c.12.67.28,1.57.43,2.47l1.55,1.54c-.34,1.18-.63,2.21-1,3.34l3.16,2c-.33,2,1.15,2.8,2.9,3.92a8.8,8.8,0,0,1,4.31,6.07L989,1115a14.91,14.91,0,0,1-.84,5.85c-1.72,4.43-1.13,4.9-.27,11.65.35,2.85,1.16,5.67,1.25,9l3,2.32c.7,0,2.16,0,3.59-.19.91-.11,1.82-.85,2.66-.74,4.78.64,9.41-.75,14.07-1.25,2.68-.28,5.52-.24,8.07-.95,2.73-.75,5.52-.31,8.08-1a35,35,0,0,1,6.12-.89,52.06,52.06,0,0,0,6.08-1,8.47,8.47,0,0,0,2.06-1.08c.79-3.23-.61-6-1.4-8.88s-.44-5.39,1.62-7.45c1.33-1.35,2.48-2.86,4.42-3.73,1.34-.6,2-2.66,3-4.15,3.09,1.61,5.77,3.15,8.57,4.47,2,.94,3.4,3.19,4.91,4.71.09,4.43-.53,8.57,2.5,12.33,2.09-.23,4.49,0,6.49-.82s4.65.77,6.5-1.27c.23-.25,1-.05,1.43-.1,3.53-.33,7.29,0,10.53-1.17s7.14.35,10.57-2.54c0-.34-.38-1.55.06-2.2,3-4.45,1.59-9.44,2-14.15l2.8-2.54c.36-2.48-.44-4.57,2-5.41,2.2.27,2.26,1.93,2.29,3.59l4.3,2.17c1.43,1.93-.49,4.36,1.6,5.74-.4,2.27,1.21,3.86,2.09,5.63s2.26,3,3.79,5c5.91-1.45,12.65-1.08,19.13-3.27V1112c0-3.56-2-6.27-4.11-8.77-4.57-5.51-9.41-10.79-14.08-16.2a26.73,26.73,0,0,1-2-3.4c.69-3.44,1.49-7.46,2.29-11.45l3.81-3.81c11.37-3.25,22.29-5.93,33.9-4.25,2.6.91,4.16,3,5.3,5.86,1,2.41,2.69,4.53,4.06,6.75-1.44,2.42-2.72,4.74-4.16,7-1.77,2.73-1,5.1.82,7.35a39.85,39.85,0,0,0,2.86,2.88l.57-2h4.85l2.69,6.16,5.8,5.8a32.36,32.36,0,0,1,2.26,16.47c-.19,1.46,1.81,2.21.49,3.88-.53.67.48,2.55.78,3.85-1.83,2.78-5.68,1.13-7.49,3.68h-8.13c-3.62,3.59.36,6.6.72,10.25l3.19-1.26c1.63,4.11,3.22,8.2,2.51,13,8.12,3.4,15.14,8.66,22.9,11.56l2.31-2.32c1.77-3.65,0-7.72-.06-11.88s-1.11-8.07-1.69-12.22H1206c-.16,1.14-.33,2.28-.54,3.75,2,1.9-.27,5.12,1.36,7.88,1.33,2.25,1,5.5,1.37,8.22h1.69c.07-1.56.15-3.14.24-5.25L1213,1155v9.28l1.46,1.46h6.31l2.6,3h5.18l3.91-3.91a16.8,16.8,0,0,1,8.41,1.29c.06.93.15,2.18.25,3.46a19.41,19.41,0,0,1,3.21,2.12,14.68,14.68,0,0,1,1.8,3c4.11-.68,5.3,4.18,9,4.45,1.12,2.18,2.17,4.25,3.34,6.52h2.19l1.69-1.69a6,6,0,0,1,.93-.16c4.82.09,9.31-1.56,13.91-2.64a5.44,5.44,0,0,1,2.69,0c3.09,1,6.12,2.12,9.2,3.12a7,7,0,0,0,2.8.43c1.54-.17,3.51-1.37,4.48-.78,1.47.88,2.79.62,4.19.84s3.06.65,4.59,1,3-.7,4.18.79a.61.61,0,0,0,.41.21c4.36.34,8.72.92,13.08.91,2.44,0,4.87-1,7.33-1.5,1.43-.26,3.46-.94,4.23-.28,2.1,1.79,4.62.44,6.9,1.66,1.94,1,4.91.46,7.38.17,6-.71,12-1.25,17.75-3,.58-.17,1.08-1,1.59-.93,4.7.2,8.91-2.84,13.68-2,1.23.21,2.53-.42,3.73.74.54.52,1.91.38,2.85.23,4.94-.78,9.94-1.37,14.61-3.32,3.83-1.6,3.82-1.64,8.32-1.64a18.37,18.37,0,0,1,10.85-3.94,21.54,21.54,0,0,0,11.12-3.45c3.66-2.25,7.8-4.4,12.47-3.57,2.59.46,5.09,1.38,8.29,2.28l2,2.69h5.57l1.64,2.84c1.55,0,3,.69,4.35-.88l2.24,2.53c-4.74.62-8,3-11.28,5.5-.39,1.19-.82,2.49-1.4,4.22.56,1,1.33,2.33,2.11,3.68h3.39l4,4.79c.54,4.75,1,8.75,1.46,12.86-2.75.94-5.45,1.81-8.41,1.48-.55-.06-1.16.38-1.75.55-2.43.69-4.94,1.06-7.38,1.58-6.06,1.26-12.5.06-18.29,2.84-2.82-.66-5.44.54-8.06,1.1s-5.67.44-8.19,1.9c-.69.4-1.32.89-2,1.35,0,2.4.15,4.73,0,7a60.83,60.83,0,0,1-1.2,6.36l-2.56,2.51a5.6,5.6,0,0,0-.18,1c0,2.84,0,5.67,0,8.5,0,3-.7,6.3.37,8.84,1.2,2.81-.68,6,1.61,8.35.08.08,0,.32,0,.49.33,4.69.61,9.39,1,14.08.18,2,.76,4,.93,6.09s-.48,4.18.16,5.95c1,2.89.29,5.87,1,8.6,1,3.72.31,7.5,1,11.09.58,2.89.17,5.93,1,8.56,1,2.94.09,5.93.95,8.6,1.2,3.73.08,7.58,1,11.08,1,3.76.56,7.41.93,11.66l-3.41,2.71,4.18,3.36v3.69c-.8,3.12-2.5,4.59-5.26,5.17l-4-1.33-2.64,4a20.23,20.23,0,0,1,2.09,9.2c-.18,3.49.14,7-.08,10.49-.31,4.74,1.16,9.1,2.43,13.51a12.13,12.13,0,0,1,.59,1.76c.21,1.72-.23,3.42.92,5.15.79,1.19-.34,3.06.88,4.63,1,1.33-.67,3.62,1.15,5-.53,4.41,2.88,8.17,2.13,12.65-.08.46.61,1.05.85,1.43l-1.28,5.22-3.67,3.19-2.94,1c-.12,4,.92,6.74,4.61,8.27a24.07,24.07,0,0,1,4.29,2.92v5.36l-4,3.48a11.17,11.17,0,0,0-8.65,2.9,9.87,9.87,0,0,1-7.57,2.18,53.49,53.49,0,0,0-6.6,0v-4.35l-2.65-2.66h-9l-1.5-1.49c0-8.07-.74-16.31.17-24.37,1.51-13.55.52-27.07.77-40.6s.06-27.33.06-41,.2-27.34-.06-41c-.23-12,1.51-24,1.14-36.09s-.08-24-.08-35.6c.72-1.37,1.28-2.44,1.94-3.68h-4.8v-8.53l-1.09-1.08c-2,.16-3.74,0-5.3.5-4.67,1.5-9.56,1.85-14.25,3.06-3.93,1-8,1.26-11.88,2.65-2.34.84-5,.79-7.49,1.25-4,.74-8,1.56-12,2.37-.76.16-1.49.49-2.25.6-2.52.37-5.4,0-7.49,1.19-2.26,1.24-4.94-.21-6.8,1.74-4.39-.39-8.25,2.31-12.64,2.15a13.4,13.4,0,0,0-4.57,1c-4.49,1.5-9.29,1.58-13.75,3-5.32,1.71-10.88,1.87-16.25,3.06a75.45,75.45,0,0,0-9,2.34c-2.47.87-4.93.28-7.43,1.35-4,1.69-8.45,2.16-12.71,3-2.44.49-5,.74-7.54,1.23-4,.77-8.05,1.24-11.88,2.69-.15,0-.27.28-.38.26-6.11-1-11.36,2.66-17.24,3.22a94.73,94.73,0,0,0-10.21,1.74c-3.37.71-6.65,1.78-10.14,2.22s-6.66,1.88-10.19,1.85a4.48,4.48,0,0,0-1.39.25c-1.76.56-3.49,1.49-5.29,1.64s-3.76.92-5.58,1c-5.61.21-10.65,2.84-16.14,3.38-1.53,1.9-3.87.34-5.91,1.5-2.31,1.31-5.6.86-8.46,1.23-2.2.29-4.38.71-6.59,1-2,.25-4.21-.54-6.12,1-.41.32-1.3.12-2,0-5.26-.68-10.39.79-15.57,1.23-3,.25-6.18.19-9.06.94-3.08.79-6.22.22-9.09,1-3.08.84-6.08.65-9.12.89-2,.16-4,.7-6.09,1s-4.24-.53-6.1,1c-.2.17-.65,0-1,0-5.87.33-11.73.61-17.59,1a31.92,31.92,0,0,0-4.58,1c-1.4.3-3-.69-4.24.67-.26.28-.89.28-1.35.32-4.36.34-8.81.26-13.06,1.12s-8.47.38-12.58,1c-2.72.44-5.47.4-8.09,1s-5.25.34-7.55,1.08c-2.62.83-5.25.15-7.61.93-2.57.84-5.12.47-7.61.94-5.53,1-11.16,1.14-16.66,2.09-2.38.42-4.72.67-7.11.89a45.36,45.36,0,0,0-6.54,1.14c-3.08.73-6.21.23-9.09,1a47,47,0,0,1-8.62.9c-1.71.11-3.39.72-5.1.93s-3.28-.38-4.58,1c-3.63-.71-7,1.1-10.59,1.06a36.38,36.38,0,0,0-6.58,1c-2.19.39-4.63-1-6.61,1-.17.17-.64,0-1,0-3.86.33-7.73.61-11.58,1-1.71.18-3.38.74-5.09,1s-3.27-.36-4.61,1c-.16.17-.64,0-1,0-4.2.33-8.47.3-12.56,1.12-2.72.55-5.52.34-8.07,1-2.74.74-5.55.27-8.09,1s-5.19.31-7.59,1c-2.56.72-5.23.28-7.57,1-2.75.87-5.42.66-8.13.89-2.05.17-4.05.73-6.09.94a36.17,36.17,0,0,0-6.13.86c-3.53.95-7.35.78-11,1.19-1.71.19-3.4.62-5.09,1s-3.63-.8-5.19.78c-.27.27-.92.18-1.39.21-5.2.34-10.4.62-15.59,1a39.68,39.68,0,0,0-5,1.05l-1.69-1.57a12.79,12.79,0,0,0-1.85-8.07c1.86-1.68.4-4,.94-5.87l-1.49-1.5-3.42,2a17.88,17.88,0,0,0-2.34-1c-.9-.27-1.93-.18-2.79-.53-2.58-1.08-5-2.51-8-2.51a1.41,1.41,0,0,1-.87-.3c-2.6-2.47-6.2-2.76-9.28-4.16s-6.8-2.12-10-3.6-6.72-1.5-9.38-3.9c-5.49-.6-10.09-3.88-15.41-5.09-2.67-.61-5.12-2.12-7.66-3.19-7-3-14.24-5-21.29-7.75-3.74-1.44-7.41-3-11.15-4.46-6.49-2.45-12.88-5.16-19.31-7.71-4.27-1.69-8.51-3.59-12.78-5.37-3.26-1.36-6.59-2.58-9.88-3.91-3.14-1.27-6.55-2.19-9.43-3.72-6.19-3.3-13-4.82-19.21-8-3.58-1.84-7.49-2.79-11.08-4.69-2.25-1.2-5.23-1-7.6-1.41L558.1,1237v32.4c2.12,2.69,5,.78,7.3,1.47l2.5,2.32c.79,5.29-1.54,10.19-.9,15.28-1.55,2.72-.78,5.71-1,8.58-.16,1.71-.74,3.38-.94,5.1-.18,1.57.21,3.22-1,4.61-.25.28,0,1,0,1.47-.33,4.36,0,8.94-1.21,13s.41,8.1-1.77,11.75c-.15.24,0,.65,0,1-.33,4.37-.11,8.87-1.13,13.06-1.45,5.9-.62,11.75-.82,17.62s-.16,12,0,18a30.21,30.21,0,0,0,1.16,5.6l6.23-.61,2.47,3.1v4l-11.06,7.43c2.65,2.32.44,5.36,1.68,8,1.09,2.34.46,5.48.6,8.32,1.78,2.58,5.88.38,7.74,4.5-.51,2.45,1.29,6-.85,9.43-.23.36,0,1,0,1.48-.33,4.36-.61,8.73-1,13.08a37.25,37.25,0,0,1-1,4.09c-.29,1.38.6,3-.85,4.18-.26.22-.12.92-.16,1.41-.33,3.86-.23,7.83-1.14,11.55-.74,3.07,0,6.39-1.07,9-1.3,3.19.11,6.29-.88,9.14s-.35,5.85-1,8.58-.33,5.52-1,8.09-.43,5.14-1,7.6c-.84,3.88-2.13,7.65-1.86,11.92l4.09,3.2c.35,2.52.78,5.66,1.25,9.16l4.19-.89,4.35,2.84v4.53c-2.37,2-4.67,4.72-7.57,6.29-2.47,1.33-3.83,3.76-6.44,4.93-2.27,1-4.1,3.08-6,4.84s-3.9,2.75-6.55,2.29l-1.83-4c-3.94,2.12-8.16.59-12.24,1.2-2.24-12.63-.32-25.08-1.52-37.32-.87-8.91-.53-17.75-.73-26.61s-.7-18.06.1-27c1.35-15,.64-30.07.81-45.1s0-30.34,0-45.5v-45.5c2-11.65.72-23.39,1-35.09s.07-23.66,0-35.5c0-3.24,1.48-6.24,1.09-9.59a62.62,62.62,0,0,1,0-9.49,11.17,11.17,0,0,1,1.09-2.94L526,1235.2a46.33,46.33,0,0,0,0-5.23,50.1,50.1,0,0,0-1.15-5.43l2.16-2.26V1220c-2.49-.72-5-1.53-7.53-2.18-5-1.27-10-2.36-14.9-3.83-3.27-1-6.76-1.32-10.12-2.15-2.15-.53-4.83,0-6.46-1.2-2.09-1.47-4.68.31-6.34-1.71-3.72.21-7.05-1.55-10.61-2.14-2.19-.36-4.27-1.38-6.57-1-1.43-2.21-3.93-.24-5.88-1.61-1.63-1.16-4.47-.49-6.33-1.46s-3.93-.84-5.84-1.65c-1.57-.67-3.61-.78-5.35-1.67v-6.56c1.11-1,2.56-2.35,3.85-3.55l-1.15-4.8,4.11-3.59v-2.73c-3.09-3.13-7.74-2.66-11.68-4.62v-5.25l-4.09-2.73v-3.22l3.62-3.17,16.75,6.74c2.91-.5,4.67-2.65,6.53-4.6v-4.33l-9.83-5.19V1148c.48,0,1.24-.37,1.68-.13,1.78,1,3.67,1.07,6.14.88.41-1.23.88-2.69,1.41-4.3a4.12,4.12,0,0,1-3.3-3.63c-.36-2.6.85-4.89,2.38-7.2l3.05,1.4c1.12-1.62-.49-4,2.36-5.09h2.5c2.32,1.56,4.62,3.61,7.31,4.81,5.17,2.32,9.32,6.22,14.37,8.75,4.17,2.09,8,4.84,12,7.34,2.38,1.51,4.67,3.17,7.09,4.61,6.41,3.82,12.79,7.71,19.34,11.26,3.09,1.68,6.56,2.67,9.86,3.95a3.13,3.13,0,0,0,.93.17c3.27.26,11.66-1.1,15.36-4,2.4-1.9,4.91-3.74,8.16-4.44,1.65-.35,2.83-.76,4.48.11a52.57,52.57,0,0,0,6.52,2.35,35.29,35.29,0,0,0,6.72,1.76c3.79.57,7.56,1.74,11.55,1.3a18.65,18.65,0,0,1,10.72,1.82,13.6,13.6,0,0,0,7,1.16C609.63,1170.63,612.47,1170.8,615.65,1170.8Z"/><path class="cls-2" d="M1224.83,1529.8h-11.57l-3.8-6,3.89-3.9h-3.71c-2.15-2.24-4.34-4-4.78-7.28-.18-1.34-1.92-2.47-3.18-4a25.19,25.19,0,0,1,6.28-9.37v-4c1.91-2.09,4.55-3.79,4-7.39h4.43c.62-.64,1.08-1.12,1.54-1.58V1482l-1.68-.37v-4.56c1.82-2.31,5.07-2.19,8.1-3.7l2.63,4.39c-.13,2,.76,5.6-1.08,8.77,1.22,1.91,2.3,3.62,3.57,5.62l-4.67,3.42-6-1-1.9,3.2c1.67,1.54.28,5.82,4.82,5,1,3.7-.31,6.89-2,10.61l1.72,1.79,3-1.77c.23.79.49,1.65.74,2.5l.75-.69v7.4l-3.55,2.87,2.59,1.93C1225,1528,1224.89,1528.92,1224.83,1529.8Z"/><path class="cls-2" d="M794.16,1517.89c2.84-.42,3.69,1.34,5,2.76l-1.11,3.3,1.59,3.08,1.71-.94,6.42,1.82c1,3.81-2.7,6-2.91,9.15,1.2,1.74,3.55,2.16,4,4.62L804,1544c.51.88.88,1.53,1.31,2.3l-3.89,1.77-1.62,5.77c-3.57,0-6.93-.31-10.2.08-3.05.37-6,1.48-9.44,2.37-.07-1.27-.11-2-.18-3.17l3.28-2.66-.58-.39c.5-1.12,1-2.24,1.46-3.22h3.35c.18-.26.52-.52.52-.77,0-3.26,1.11-6,2.78-8.85,1.41-2.46,3.91-5.65,1.3-9.14-.3-.41,0-1.66.47-2.21,1.26-1.57.08-2.66-.63-4.08C792.62,1520.52,793.4,1519.18,794.16,1517.89Z"/><path class="cls-2" d="M1128.59,1443l4,3.82-5.76,5.75-11.26,1.39-1.87-1.89a16.09,16.09,0,0,0,1.14-1.65,7.19,7.19,0,0,0,.38-1.41c1.68-.14,3.16-2.59,5.17-.37,2.87-1.38,2.93-5.74,6.63-6.25.07-4.81-3.14-6.39-7.56-7l6.82-8.42H1135c0,3.21-2,5.27-3.26,7.73-1.15,2.31-1.56,5-2.29,7.5Z"/><path class="cls-2" d="M1119.77,1498.9c1,3.23-1.45,5.21-2.1,7.9h-3.17l-1.7,1.69-8.55,1.5c-.72-2.82-1.41-5.51-2.18-8.55l2.1-3.64c2.52,0,5.14-.14,7.75,0S1117,1498.51,1119.77,1498.9Z"/><path class="cls-2" d="M1111,1358.77c-.09,3,.09,5.69-1,8.41l3.21,5a14.49,14.49,0,0,0-2.37,9.82l-1.9,3.6c-1.1-1.65-2.19-2.67-2.53-3.9-1-3.61-1.67-7.3-2.47-11C1106,1366.72,1106,1361.6,1111,1358.77Z"/><path class="cls-2" d="M974.21,1542.78c2.27,0,3.07,1.7,4.22,3.81,1.91-.26,3.38,1.12,4.79,3.26l-2,1.56-.39,2.09-5.21,1-4.66-1.69c-2,.74-4,2.81-7,1.55.4-2.87,3.94-3.69,4.39-6.46C971.54,1547.71,971,1543.63,974.21,1542.78Z"/><path class="cls-2" d="M1219.07,1548.77c2.47-1.52,5-1.45,7.82.64-.14,1.44,1,3.57-1.48,5.4-4.6-.24-9.64.87-14.26-2.1V1546C1214.22,1545,1216.06,1547.78,1219.07,1548.77Z"/><path class="cls-2" d="M795.79,1510.79l-2.41-1.29c-.35-1.37-.75-3-1.24-5a38.82,38.82,0,0,1,1.89-3.75,33.62,33.62,0,0,1,2.67-3.28l6.12,2.07c-.75,2.39-1.4,4.48-2.3,7.33Z"/><path class="cls-2" d="M1116.37,1534.89h3.25c2.14,3,1.14,6.3,1.42,9.55a11.67,11.67,0,0,1-8.88,2.19C1111.32,1541.82,1113.13,1538.13,1116.37,1534.89Z"/><path class="cls-2" d="M1110.91,1296.56l2.66-4,2.6,1.45,4.7-4.43,3.12,2.64v3.13l-2.11,2.11c-2.13.42-4.08,2-6.34,1.33A33.39,33.39,0,0,1,1110.91,1296.56Z"/><path class="cls-2" d="M784.48,1487.8h-3l-1.41-1.42c1.24-2.79,2.49-5.58,3.74-8.41h3.85l1.23,1.24C789.66,1483.21,786.91,1485.41,784.48,1487.8Z"/><path class="cls-2" d="M794.09,1494c-1.81,2.38-2.12,5.51-4.94,6.81-3.31-3.41-2.85-4.65.51-9.21Z"/><path class="cls-2" d="M1122.46,1478.6l-3.09-5.14,5.21-2.09c1,2.84,1.86,5.3,2.67,7.61C1125.14,1481.18,1123.9,1478.56,1122.46,1478.6Z"/><path class="cls-2" d="M798.12,1515.91v-5l2.45-.17,3.48,4.51-1.8,1.81Z"/><ellipse class="cls-3" cx="999.43" cy="1218.14" rx="1357.65" ry="763.68"/></g><g id="Layer_18" data-name="Layer 18"><rect class="cls-4" x="37.58" y="678.14" width="1921.42" height="1080.76"/></g></svg>